<svg xmlns="http://www.w3.org/2000/svg" viewBox="0 0 64 64" xmlns:v="https://vecta.io/nano"><style><![CDATA[.v{fill:#7b6540}.w{fill:#a6946f}.x{fill:#957e56}.y{fill:#c1a771}.z{fill:#27231a}.AA{fill:#b68f47}.AB{fill:#d2bd89}.AC{fill:#bb9b5e}.AD{fill:#090806}.AE{fill:#cbad73}.AF{fill:#c6a464}.AG{fill:#d2a555}.AH{fill:#ddbf8b}.AI{fill:#cfb680}.AJ{fill:#cdb27a}.AK{fill:#e4cda2}.AL{fill:#dfc389}.AM{fill:#d1ab6e}.AN{fill:#d0b983}]]></style><path d="M-.1,0h64.3v64H-.1V0Z" fill="#e09f5b"/><path d="M28.2 21.3h2.3c.2 0 .3 0 .3.3v.7c.2.4.3.8.2 1.2-.1.7 0 1.4 0 2.2v1.9.3 1 .6 1.4 1.3 1.7 1 .4.5.5c-.2.9 0 1.7 0 2.5v.6c.2 1 .1 2 .2 3 0 1.1-.2 1.3-1.2 1.3h-1.2-.7H27c-.8.1-1.5-.1-2.2.1h-.2-.2c-1.3-.2-2.5 0-3.7 0h-3.8c-.7.1-1.2 0-1.9 0h-.4-.4H12h-.5-.9-.3-1c-.5 0-.7-.3-.5-.9 0-1.3.2-2.5.1-3.8-.1-.3-.1-.6 0-.9v-2.8c-.2-.2-.3-.5-.2-.8v-.9-1.6-.8c0-.3 0-.6.1-.9v-.2-1.4l-.2-4.7v-1.5c0-.5 0-1 .5-1.2h1 2.1.8c.5 0 .9 0 1.4.2h1.3c.5-.4 1-.4 1.6-.3h.3 1.5.7.3 1.1c.5 0 .9-.1 1.3.1h.8.6 2.9 1.5 0z" class="AD"/><path d="M27.1 41.2v-.4c-.2-.3-.5-.7-.6-1.1 0-.2-.2-.1-.3 0l-.6.9c-.3 0-.5 0-.6-.2.3-1 .4-2 .4-3 .5-.5 1 0 1.6 0 .2 0 .2.2.4.4v1.1c0 .6.2 1.1.4 1.6.2.4.5.7.9.8h.3.2v-.2-.2h.3c.3.1.3.6 0 .8-.2.1-.4.2-.7.1a1.92 1.92 0 0 1-1.2-.4s-.2 0-.4-.1H27h0z" class="AG"/><path d="M12.6 24.3c.3.1.3.4.5.6.1.3.3.3.5 0 .5.3.5.9.7 1.5v2.5 1.6 1c0 .2 0 .4.2.5-.3.3-.5.3-.7-.2-.3-.7-.5-1.4-.7-2.2-.5-1.5-.6-3-.9-4.5 0-.3 0-.6.3-.8h0z" class="AH"/><path d="M25.4 28.2v-.5c.2-.6.2-1.2.3-1.8 0-.3 0-.6.5-.8h.3c.3-.4.6-.8.8-1.4v-.1-.2c.2.2.4 0 .6 0 .4.3 0 .6 0 1-.1.4-.3.8-.3 1.3 0 1.7-.9 3.1-1.5 4.5 0 .2-.2.3-.4.4-.1-.4 0-.7 0-1.1v-1-.2h0z" class="AG"/><path d="M13.2 29.5c.3.7.5 1.4.7 2 0 .2.1.3.2.4 0 .1.2.1.3 0h2.5 1.9.3.3c.2.2.1.3 0 .5H15h-.6c-.1 0-.2 0-.2.3-.8.3-1.3-.2-1.9-.5v-.4c0-.2.4-.3 0-.6v-1.6c.3-.3.6-.3.9-.1h0z" fill="#ddb877"/><path d="M25.4 32.7v-.2c-.1-.2-.2-.3 0-.5.5-.6 1.1-1.2 2-1.3 0 .2 0 .4.1.7v.3 1.1c-.2.3-.4.5-.7.6.6.4.6.4 0 1.1-.1 0-.2.1-.4.1h-.2l.2.1c.1.1.2.3.3.4 0 .3 0 .6-.2.9-.3.3-.6.1-.9 0v-2.8-.2-.4-.1h0z" fill="#d4a961"/><path d="M12.5 41.2h-.7c-.3.1-.5.2-.9.4 0 0-.1-.1 0-.2l.2-.2c.5-.4.8-.9.9-1.6 0-.5.1-1 .2-1.6.5-.7 1.2-1.1 2-1.2v.4c-.2.3-.3.5-.5.6h.5c0 .4.1.7.2 1.1-.2.4-.4.7-.9.7-.1 0-.3-.2-.3 0l-.7 1.1v.3.2h0z" class="AK"/><path d="M12.3 36.5v-3.3c.7-.4 1.3 0 1.9.3.1.7 0 1.4 0 2.1-.6.6-1.2.8-2 .9h0z" class="AL"/><path d="M13.3 29.5h-.9l-.1-2.2c0-.8-.2-1.7-.4-2.5 0-.3-.2-.6-.4-.9-.3-.4-.6-.6-1.2-.5 0 0-.1 0-.1-.2a.55.55 0 0 1 .5-.3c.3 0 .6 0 .9.2.2.1.4.1.5-.1h.2v.1c0 .2-.2.3 0 .5.1.2.2.3.4.5-.1.2-.1.3-.2.5 0 .4 0 .8.1 1.2.1.7.2 1.3.4 2l.3 1.6h0z" fill="#d5b26e"/><path d="M25.4 30.4c.3-.2.3-.6.5-.9 0-.5.4-.8.6-1.2.4-.9.6-1.7.9-2.7v2.7.2.9c0 .2-.2.2-.3.4 0 .6-.6.9-1.1 1.1h-.4l-.2-.1v-.4h0z" class="AM"/><path d="M21.8 27.6c.1-.1 0-.2 0-.3 0 0-.1-.2 0-.2h.3.2c0-.2-.2-.3-.3-.4.1-.1.3 0 .4 0h.2c0-.1 0-.2-.2-.2l-.4-.3c0-.2.2 0 .4-.1V26c-.1 0-.2 0-.3-.1 0-.1.2-.2.3-.2 0 0 .2 0 0-.1 0 0-.1 0-.2-.1.2-.2.4-.2.7-.4v.4c-.2.5-.2.6.2.9h.1c.1 0 0 0 0 .1 0 .2-.2.2-.3.3-.3.2-.3.4 0 .7l.1.2v.2h-.1c-.5.1-.6.2-.6.7v.2c0 .1-.2.3-.4.3-.3 0-.5-.2-.9 0-.2-.1-.2-.3 0-.5v-.3c0-.1 0-.1.2 0 0 0 .2.1.2 0 0-.2-.1-.3 0-.5.2 0 .2.2.4.3h0c-.1 0 0-.1 0-.1v-.2h.1 0z" class="AC"/><path d="M26.2 34.6h.4c.2-.2.4-.3.7-.2v.4.1 2.4c0 .1-.1.1-.2.1-.5-.2-1-.3-1.5-.6 0-.1-.1-.2-.1-.3v-.1-.3h.9c.2-.3.2-.7 0-1.1 0-.1-.1-.3 0-.4h0z" class="AG"/><path d="M19 37.3c-.3.5-.3.9-.2 1.4.2 1 .7 1.8 1.5 2.6.3.3.6.5.9.8-.4.1-.4.2-.6 0-1.4-1-2.3-2.2-2.3-4v-.7c.2-.2.4-.4.7-.2h0z" class="AB"/><path d="M17.5 29.2c0-.3-.2-.4-.3-.5a.55.55 0 0 0 .3-.5c0-.4-.1-.6-.5-.7h-.3v-.2a.76.76 0 0 0 .4-.2h.2c.1 0 .2 0 .2.2s0 .3.2.2c.3 0 .2 0 .1.2 0 .2 0 .2.2.2.1 0 .2 0 .2.1v.2.2s.1 0 .1-.1v-.1c.1.1 0 .3 0 .5v.1h.2l.1-.1c0 .2 0 .3.1.4l.1.1V29v-.1s0-.1 0 0c0 .2.1.4.3.4.1-.1 0-.4.1-.5.2 0 .2.3.2.5.2.1.2.3.2.5-.2 0-.5 0-.6.1-.2.2-.4.2-.7.2 0-.4 0-.7-.5-.8-.3 0-.5 0-.7.3h0z" fill="#c19851"/><path d="M25.4 30.8c.1.2.3.1.4 0 .1 0 .2-.1.3-.1.5-.2.8-.6.8-1.1 0-.3.2 0 .3 0 .1.4 0 .8 0 1.2-.7.3-1.3.8-1.8 1.2v.4h-1.5c-.2-.4 0-.4.4-.5.3-.2.6 0 .9-.1.2 0 .3 0 .3-.4v-.6h0z" class="v"/><path d="M19.1 37.3h-.7v-1.8-.2-.3c0-.1.1-.1.3 0a1.08 1.08 0 0 1 0 1.1v.1h.2l.3-.8c.1 0 .2-.1.4 0 0 .3-.2.6-.3.9v.2h.2c.2 0 .4-.2.5-.3.2-.1.5-.3.8-.3.2 0 .4 0 .5.2-.6.2-1.1.3-1.6.6-.1 0-.3.1-.2.3v.1c-.1 0-.2.1-.3.2-.1 0-.2 0-.3.1h0z" fill="#d9b877"/><path d="M14.3 26.3c-.3-.1-.3-.5-.6-.6v-.2-.6c0-.3.2-.5.4-.7s.2-.4 0-.7v-.2h.1c.2 0 .2.3.5.3.3.2.3.6.2.9v.3c-.3.5-.4 1.1-.5 1.7h0z" class="AF"/><path d="M26.2 25c-.2.2-.2.5-.2.7 0 .7-.3 1.2-.5 1.9v-.4-1c0-.5 0-1.1-.3-1.6 0-.4-.4-.8.2-1h.1.2c0 .2-.1.3 0 .4.3.3.4.7.6 1.1h0z" fill="#c9ab6f"/><path d="M28.3 21.8h1.8c.2 0 .3 0 .3.3v.4 6.1 1.2c0 .1-.1.1-.2 0v-2.4-4.5-.4c0-.6 0-.6-.6-.6h-1.2v-.1h0z" class="x"/><path d="M20.5 38c.2 0 .5 0 .3.3v.1h.2s-.1.3.1.3 0 .3 0 .4h.2c.1 0 .2.1.2.3v.2.3c0 .1-.1.2-.2.3v.2c-.2 0-.3.1-.4 0-.1 0-.1-.1-.1-.2V40v-.3h-.3-.2v-.2s.1-.1.1-.2c0 0 0-.2-.1-.2H20c-.1 0-.2-.2-.1-.3l.2-.1c.2-.1.1-.3 0-.4 0-.3 0-.5.3-.6h0z" class="AI"/><path d="M13.5 39.7c.2 0 .3-.1.4-.3.1-.1.2-.3.5-.3 0 .2.2.4.2.7.2.6.4 1.1.9 1.5v.2c-.3 0-.5 0-.7-.2a.37.37 0 0 0-.6 0h-.1v-.2c.1-.1.1-.2 0-.4-.2-.3-.5-.7-.7-1.1h0z" class="AN"/><path d="M24.2 31.9c0 .2-.3.2-.4.5h-.9-.2-2.2c-.2-.1-.2-.3 0-.5h1.4 2.3z" fill="#d8b069"/><path d="M12.9 21.9h-2.5c0-.2.2-.1.3-.1h7.7 2.8.3-.3-2c-.3.1-.7.1-1 0h-1.8H13h0z" class="v"/><path d="M21.3 36c0-.2-.3-.2-.4-.3l1.1-.5c.4-.2.7-.3 1-.6 0 0 .1 0 .2-.1h.1c.1 0 0 0 0 .1-.1.2-.4.4-.6.5s-.5.2-.8.4c0 0-.2 0-.2.2s.2.1.3.2c1.1.2 1.8.9 2.3 1.8h-.2c-.7-1.1-1.6-1.7-2.9-1.8h0zm-4.2 6.6h-2.7-2.6-1.3c.6-.2 3-.3 6.5-.2v.2h0z" class="x"/><path d="M14.3 36.8c-.2.1-.3.1-.5.2-.5.4-1 .6-1.6.9v-.4c.3-1 1-1.5 2-1.8v1h0z" class="AL"/><path d="M14.3 33.4c-.4 0-.8 0-1.2-.2-.2 0-.4-.1-.7-.2v-.8c.4 0 .8 0 1.1.2.2 0 .4.3.7.3v.7h0z" fill="#c19851"/><path d="M21.5 40.2v-.3-.2c0-.1.2-.3.4 0 0 0 .2.1.3 0h.2c.1-.3 0-.8.6-.7v.3c.1.1.3.2.4.3 0 0 .1.2 0 .2 0 0 0 .2-.2.2h-.1c-.2 0-.3 0-.3.3s-.2.3-.3.3c-.4-.1-.4 0-.5.3 0 0-.1.1-.2.1s-.2-.1-.2-.2v-.3c0-.1 0-.1-.2-.1h0z" class="AC"/><path d="M27.8 24.3v-.9c.5-.5 1-.5 1.6-.3.2 0 .3.2.4.5 0 .2 0 .5-.3.6h-.4c-.1 0-.1-.2 0-.4 0 0 .1 0 .1-.1v-.2h-.3c-.5.2-.9.4-1.2.9h0zm2.3 5.6h.2V35s0 .1-.1 0v-5.2h0z" class="AF"/><path d="M15.6 37.3c.1 0 .3-.2.3 0v.4.5c.2-.1 0-.3 0-.4v-.6.7c0 .2.1.4.4.4 0 0 0 .1.1.2.1.2 0 .3 0 .4-.2.1-.4.1-.5 0v-.2c0-.2 0-.2-.2-.2h-.2c-.2 0-.3 0-.3-.2v-.4c-.1-.3 0-.5 0-.8h0z" class="w"/><path d="M23.3 33.9c0 .2-.3 0-.4.1 0 .2-.3 0-.3.1 0 0 0 .3-.1.4 0 0-.1.1-.2 0-.2 0-.3-.2-.3-.3s0-.3.1-.3.2-.1.2-.3c0-.1 0-.2.1-.1.2 0 .3 0 .3-.2 0-.1 0-.3.2-.2s.3 0 .4 0c.2-.2.2 0 .3.1 0 0 .1.1 0 .2 0 .2-.2.3-.3.4h0z" class="x"/><path d="M25.3 23.5c-.3.2-.2.6-.2.9l-.4-.4c-.3-.3-.6-.5-1.1-.4-.1 0-.2 0 0 .2l.1.2v.2c-.2.1-.5 0-.5-.2 0-.3 0-.6.4-.7s.8-.1 1.2 0 .4.2.6.2h0z" fill="#c39e5b"/><path d="M30.2 38.5c.1 1 0 1.9 0 2.9v1c0 .3-.1.4-.4.4H29c-.7 0-1.4.2-2.1 0 0 0-.1 0 0 0h2.2.8c.2 0 .3-.1.3-.3V42v-3.1s0-.1 0 0h0z" class="v"/><path d="M20.6 26.7c-.6.5-1.2.4-1.7.1-.4-.2-.5-.4-.4-.8v-.3c.1 0 .2.2.2.3.2.5.6.7 1.1.7 0 0 .2 0 .2-.1.1-.1.2-.3.4-.4.3.1.2.3 0 .6h0z" class="AC"/><path d="M20.1,29.4c0-.2,0-.3-.1-.5,0,0,.1-.2.1-.3v-.5c.2,0,.2.3.3.4.2,0,0-.3.1-.4l.4.4c0,.2-.1.3,0,.5,0,.3,0,.5-.3.7,0,0-.1.2-.2.3,0-.3,0-.6-.3-.8h0Z" class="v"/><path d="M14.3 35.8a5.51 5.51 0 0 0-2 1.7v-1s.2 0 .2-.1c.5-.3 1.1-.5 1.8-.8v.2z" fill="#e4cfa5"/><path d="M24.9 40.4c.2 0 .5 0 .6.2v.4.2h-.3c-.2.1-.3.2-.5.3-.5.2-.9.3-1.4 0v-.2c.8 0 1.3-.3 1.8-.9h0z" class="AE"/><path d="M18.9 24.8c-.1-.3-.2-.6-.5-.7 0-.5-.4-.7-.7-.9V23h.1.1a4.1 4.1 0 0 1 1.6 1.6v.3c-.1.1-.3.1-.4 0h0z" class="AC"/><path d="M27.3 34.4c-.2.2-.4.2-.7.2 0-.2 0-.4.2-.5 0 0 .1-.1.1-.2s-.2-.1-.3-.1h-.5v-.1-.1c.4 0 .8-.4 1.2-.6v1.5h0z" fill="#d5b278"/><path d="M23 38.9c0 .3-.3.1-.4.2v.2.2c-.1 0-.2 0-.2.2-.2 0-.4 0-.4.2v.4c-.1-.2 0-.5 0-.7 0-.1-.1 0-.3 0-.1 0 0-.2 0-.4h.3c.1-.3 0-.5 0-.8l.2-.1h.6 0c0 .2 0 .4.3.6h0z" class="z"/><path d="M14.9,24.4c-.2,0-.2-.2-.2-.4v-.5c.5-.2.9-.5,1.5-.4.2.2.1.3,0,.4-.5.2-.9.4-1.2.9h0Z" class="AJ"/><path d="M17.5 34c-.7 0-.9 0-1.2.7-.2.4-.3.7-.1 1.1 0 0 0 .2-.1.2s-.2 0-.2-.2c-.2-.5-.1-1.4.5-1.8.1 0 .3-.2.3-.4.3-.2.5 0 .8.2v.2h0z" class="x"/><path d="M17.6 36.1h-.8c-.2 0-.3-.2-.2-.4 0-.2.1-.3.3-.4s.3-.1.5-.1c0 0 .1 0 .1.1v.1s-.1 0-.2.1v.1h.3c.3 0 .3.2 0 .5h0z" class="y"/><path d="M9.3 23.4V22h.1v3.1.3h-.1v-.3-1.6h0z" class="v"/><path d="M24 33.2c.3 0 .4-.2.6-.3.1 0 .4 0 .3.2v.3a.45.45 0 0 0 0 .5v.2c-.2.1-.5.2-.8.3v-.2c0-.1 0-.2.2-.4-.1.1-.2.2-.4.1-.1 0-.2-.2-.2-.4v-.2l.2-.1h0z" class="AA"/><path d="M22.7 38.3h-.6c0-.1.1-.2.2-.3h-.4s-.1 0 0-.2c0-.1.1-.2 0-.3 0 0-.1-.1 0-.2 0-.2.3-.3.5-.2.1 0 .2.2.1.4 0 .2 0 .3.2.3h.4s.2 0 .2.2v.2c-.1.1-.4 0-.4.4h0z" class="AC"/><path d="M28.2 21.7v.1H28h-2.8-2.4-.6-.1v-.1h.9 5 0zm-3.8 21h-2.6-.9c-.1 0-.1 0 0-.2h2.7c.2 0 .5 0 .7.1h0 0z" class="v"/><path d="M20.6 26.7v-.6c0-.4 0-.8-.1-1.2.4.1.6.4.6.7 0 .5 0 .9-.5 1.2h0z" class="AA"/><path d="M15.4 36.9h.2v.2c-.2.2 0 .5-.1.8h-.1c-.3 0-.3 0-.3-.3 0-.2 0-.3-.2-.4s-.2-.2 0-.4c0-.2.1-.3 0-.4 0-.1.1-.2.3-.1a1.38 1.38 0 0 1 .3.4v.1h0z" class="w"/><path d="M15.5 41.6v-.2c.3 0 .5.1.8 0 0 0 .1-.1 0-.2 0 0-.1 0-.1-.1V41c0-.1.3-.2.5-.2.1 0 .2.1.3.3 0 .2 0 .4-.2.5-.4.2-.7.3-1.2 0h0z" class="y"/><path d="M23.5 35.3c0-.2.3-.2.2-.4v-.2l.8-.2s.1 0 .2.1v.2h-.2c-.1 0 0 .1 0 .2 0 .3 0 .3-.2.2-.3 0-.3 0-.3.3s0 0-.2.2c-.2 0-.3-.2-.3-.4h0z" class="AA"/><path d="M24.2 37.9h.1c.3.5.4.9.4 1.5 0 .3-.1.5-.3.7-.1.2-.3.2-.3.2V40c.2-.4.2-.8.2-1.3 0-.2 0-.4-.1-.7h0z" class="y"/><path d="M16.1 23.6v-.4c.2 0 .4 0 .6.2.3.3.3.9 0 1.1-.2.2-.5.1-.7 0v-.3h.2c.2 0 .3 0 .3-.2s0-.3-.3-.3h-.1 0z" fill="#c39e5b"/><path d="M17.3 36.4c.2 0 .3.1.4.2v.2h-.1c-.2.1-.2.3 0 .5.1.1.1.3 0 .3-.2.1-.3 0-.5-.1h-.2v-.1-.2-.3c0-.2 0-.2.2-.2h.2v-.2h.1 0z" class="w"/><path d="M25.4 36.5s.1.1.1.2a.55.55 0 0 0 .5.3c.3 0 .6.2.9.4v.1H26c-.2 0-.4-.2-.7-.2v-.8h0z" class="AA"/><path d="M13.3 23.1c-.3 0-.5 0-.5-.4 0-.1 0-.3.2-.4s.4-.1.6 0c.2.2.3.5 0 .6h-.2 0zm12.5-.4c0-.3.2-.4.4-.4s.3 0 .4.2c.2.3 0 .6-.3.6s-.5 0-.6-.4h0z" class="AF"/><path d="M28.6 37.3c-.2-.1-.3-.2-.2-.4 0-.2.2-.3.4-.3h.2c.2.1.3.4.1.6-.1.2-.3.2-.5 0h0z" class="AA"/><path d="M16.4 33.5s-.2 0-.3.1c-.6 0-1 .4-1.2 1v.2c-.2 0-.1-.2-.1-.3 0-.3.2-.6.5-.7.3-.2.6-.4 1-.5.1 0 .2 0 .2.2h0z" class="x"/><path d="M15.1 36.4h-.3c-.1 0-.2-.2 0-.3l.4-.2v-.3c0-.1-.1-.2 0-.3h.4c0 .1 0 .3.1.4 0 .2 0 .3-.2.3-.1 0-.2.1-.3.2h0z" class="AE"/><path d="M10.9 41.3v.2c-.4.2-.7.1-1-.2-.1-.1-.2-.3 0-.4s.2-.2.4-.2h.2v.2c0 .1-.1 0-.2 0v.2c.2.1.4.1.7 0zm10.9-3c0 .3.3.5 0 .8-.3-.5-.6-1.1-1-1.6v-.1c.4.2.6.6.8 1h0z" class="w"/><path d="M18.6 35h-.3c-.2-.3-.4-.7-.8-.9 0-.1.2-.1.4-.1.4.2.5.7.7 1.1h0z" class="x"/><path d="M14.3 37.9c-.2 0-.4.1-.6.2h-.3-.2v-.2c.3-.2.6-.4.9-.7v.6h0z" class="AL"/><path d="M15.4,30.6c.2-.2.4-.3.6-.1.2,0,.2.4.1.6,0,.1-.1.2-.3.2-.3,0-.4-.2-.4-.6h0Z" class="AF"/><path d="M23.7,30.6c.2-.2.4-.3.6-.1.2.1.2.3.1.5,0,.2-.2.3-.4.2-.3,0-.3-.2-.3-.6Z" fill="#bf9b57"/><path d="M17.6 41.8v-.3c0-.2.3-.3.5-.2.2 0 .3.3.2.5l-.2.2c-.2 0-.3 0-.5-.2h0z" class="AJ"/><path d="M19.8 34.2c0-.4.2-.7.3-1.1 0 0 0-.2.2-.2h.2v.2.3c-.1.3-.2.6-.4.9h-.3 0zm9.4-6.1v.2a.37.37 0 0 1-.6 0c-.1-.2 0-.5 0-.6.2-.1.4 0 .6.1v.3h0z" class="AC"/><path d="M17.9 33.8c0 .2-.1.2-.3.2-.3-.1-.6-.3-.9-.4h-.3l-.2-.2c.6-.2 1.1.1 1.6.5h0z" class="AM"/><path d="M13.9,41.7c-.2.4-.2.4-.4.3-.2,0-.3,0-.3-.3,0-.2.1-.3.3-.4.1,0,.3,0,.4.1,0,0,0,.1.1.2h0Z" class="y"/><path d="M19.7 34.2h.3c0 .4-.2.7-.4 1.1h-.4c0-.4.3-.7.5-1.1h0zm4.7 8.5c.4-.2.9-.1 1.4 0h1.1v.2h-2.5 0z" class="x"/><path d="M20.4 31.9v.5h-.9v-.5h.8 0z" class="AA"/><path d="M21 30.9v.4c-.1.1-.2.2-.3.2s-.1-.2-.1-.3v-.5c0-.1.1-.3.3-.3s.2.2.2.3v.2h0z" class="x"/><path d="M10.9 37c.1 0 .2.2.2.3s0 .2-.2.3-.5 0-.6-.2v-.3c.1-.2.3-.2.5-.1h0z" class="AI"/><path d="M11 28.1h-.5c-.2-.2-.1-.5.1-.6h.5c.2.2.2.4 0 .6h0z" class="AA"/><path d="M26 41.6c.3 0 .5 0 .6.2 0 .2 0 .3-.1.4h-.4c-.2-.1-.2-.3-.1-.5l.1-.1h0z" class="y"/><path d="M30.3 38.5v-3.4h.1v.7 2.7h0zm-9.7-.6c-.2.2-.3.3-.4.6-.1.1-.2.2-.3.2h-.1v-.1s.2-.1.3-.2c.1 0 0-.1 0-.2-.2-.2-.1-.4 0-.4.2 0 .4-.1.5.2h0z" class="x"/><path d="M23 38.9c-.2 0-.4 0-.7-.2 0-.2.2-.2.3-.4h.5c.2 0 .3.2 0 .4 0 0-.1 0-.2.1h0zm.1 2.3l-.1.2c-.2 0-.3-.2-.3-.5 0-.2.2-.3.4-.4h.3s.2 0 .2.2 0 .1-.2.1h-.1c-.3 0-.3 0 0 .4h0z" class="w"/><path d="M12.4 31.3s.2-.1.2-.2h.3 0c0 .4 0 .4-.2.6h-.3v-.5h0z" fill="#d5b26e"/><path d="M10.1 23.4v.2c0 .2 0 .4.2.4h.2v.2c0 .1-.2.2-.4.1-.2 0-.2-.1-.3-.3 0-.3 0-.5.2-.7h0z" class="x"/><path d="M17.4 26.8h-.2c0-.3 0-.6-.1-.9v-.2h.3v.2.5c0 .2 0 .3-.2.5zM9.3 38.6v1.8V38v.4h0z" class="v"/><path d="M22.7 28.9c-.2 0-.3-.2-.3-.4s.2-.3.4-.2c.2 0 .3.2.2.4 0 .1-.1.2-.3.2z" class="AC"/><path d="M19.7 37c.5-.2.9 0 1.3.3v.2c-.4-.2-.7-.4-1.2-.4h0zm-2.6.5v.4c-.1.1-.2 0-.4 0 0-.2-.1-.4-.2-.5 0-.1 0-.2.2-.2 0 0 0 .1.1.3l.1.1h0z" class="w"/><path d="M20.8 42.5v.2h-1.1s-.1 0 0-.2h1.1 0z" class="x"/><path d="M18.3 29.2c0 .1.1.2.1.3s0 .2-.1.2h-.2s-.1-.2 0-.3c0-.1.1-.2.3-.1z" class="AA"/><path d="M23.6 27.4h-.3c-.1 0-.3 0-.2-.3 0 0 0-.2.1-.2h.2s.1 0 .2.2v.2h0z" class="x"/><path d="M17.2 27.9v.2c-.1.2-.3.2-.4.1-.1 0-.1-.2 0-.4 0-.2.2-.1.4 0h0z" class="AA"/><path d="M9.4 42.5h.7 0-.7v-.1h0z" class="z"/><path d="M17.1 42.7v-.2h1.3c.1 0 .1 0 0 .2H17h0z" class="y"/><path d="M23.5 26h-.4s-.1-.1-.1-.2c0 0 0-.1.1-.2h.2s.1.2.1.4h0zm-5 16.7v-.2h.8s.1.1 0 .2h-.8 0z" class="x"/><path d="M23.5 27.3v-.2s.1-.1.2-.1.2 0 .2.2 0 .4-.4.5v-.1c0-.1 0 0 0 0v-.1h0z" class="z"/><path d="M16.7 37.9h.4c.1 0 .2 0 .2.1.1.2 0 .3 0 .3H17c-.1-.1-.1-.3-.1-.5h0z" class="y"/><path d="M17.5 29.2h.1c0 .3 0 .5.2.9-.4-.3-.5-.5-.3-.8zm.4-4.5v-.2-.1c.2.3.2.4 0 .6h-.2c-.1-.1 0-.2.1-.3h0zM9.3 32v1.2c-.2-.5-.2-.7 0-1.2z" class="v"/><path d="M23.5 33.6v-.3l.3-.3c.1-.1.1 0 .2 0v.2l-.1.1h0s0 .2-.2.3h-.2-.1 0 0zM20 29.9h0c0 .3-.2.3-.4.2-.1 0-.1-.2 0-.3 0-.2.2-.2.4 0h0zm1.6-.1h-.3c-.1 0-.2 0-.2-.2 0-.1 0-.2.2-.2.1 0 .2 0 .3.2v.2h0z" class="AA"/><path d="M21.5 24.2c.2 0 .2 0 .3.2v.2s-.1.1-.2.1h-.2v-.4h0z" class="v"/><path d="M16.5 26.5v-.2h.3v.2c0 .1-.2.1-.3.1 0 0-.1 0-.2-.2h0 0z" class="AA"/><path d="M9.5 30.6v.3h-.1c-.1-.1-.1-.4 0-.5.1 0 .1 0 .2.2z" class="z"/><path d="M16.6 22.3c.3 0 .6 0 .8.3v.1c-.2 0-.4-.2-.7-.3v-.1h0z" class="AC"/><path d="M18.9 24.9h.4c0 .1 0 .3-.2.3s-.2-.1-.2-.3h0z" class="z"/><path d="M9.3 41.7v-.9c.1.4 0 .6 0 .9h0zM20.7 24c-.2 0-.3.2-.5 0 0-.2.2-.2.6 0h0z" class="v"/><path d="M11.6 43.2v.2c0 .1-.1.2-.3 0 0 0 0-.1-.1-.2h.4z" class="AH"/><path d="M23.6 33.6l.3-.3c.1.2 0 .3 0 .5h-.1l-.2-.1v-.2h0zM9.4 34.8c.1 0 .1.2 0 .3v-.3h0zm0-7.5c.1 0 .1.2 0 .3v-.3zm13.5-2.4v-.2s0-.2.1-.3c.1.1 0 .2 0 .3z" class="z"/><path d="M23.5,35.7c0,.1-.2.2-.3,0-.1-.1-.1-.2,0-.4.2,0,.2.2.2.4h0Z" class="AA"/><path d="M17.4 25.1s.1 0 .1.1 0 .2-.2.2-.2 0-.2-.2 0-.2.2-.2h0z" class="v"/><path d="M16.6 22.2v.2h-.3l-.1-.1h.2.2 0z" class="z"/><path d="M21.9 27.7l-.2.2s-.1 0-.1-.1v-.2c0-.1.2 0 .3 0h0zm.6-2.9c-.2 0-.2 0-.2-.2h.2c.1 0 .1.2 0 .3z" class="v"/><path d="M19.4 42.7v-.2h.4v.2h-.4 0z" class="y"/><path d="M24.3 33.8c0 .2 0 .3-.2.4h-.2v-.1h.4V34z" class="z"/><path d="M27 37.6v-.1h.2v.3c-.1 0-.2 0-.3-.2h0z" class="v"/><path d="M23.4 33.5v.1.1l-.1.1h0v-.4h.2 0zm.1 2.2s0-.2-.1-.4c0 .1.1.2.2.4h-.2 0zm-6.7-10.4c-.1 0-.1-.2 0-.2h.1v.2z" class="z"/><path d="M25.6 23.5h-.2v-.2c.1 0 .1 0 0 .2h0zm-4.2.3s-.1.1-.2 0v-.1h.2 0zm.4 1.1s.1-.1.2 0v.1s-.1.1-.2 0h0z" class="v"/><path d="M17.2 20.9c.2 0 .3 0 .3.3h-.2v-.3h0z" class="AH"/><path d="M19.3,31.9c0,.1-.1.1-.2,0,0-.1.1-.1.2,0Z" class="v"/><path d="M14.2 43.2c0 .2 0 .2-.2 0h.2z" class="AH"/><path d="M27 41.2h.2v.2H27v-.2h0z" class="x"/><path d="M21.3 36.9h.2c0 .1 0 .1-.2.1s-.1 0 0-.2z" class="AC"/><path d="M23.3,28.8c0-.2-.1-.3,0-.5.1.1,0,.3,0,.5Z" class="v"/><path d="M23.5 26h.2v.1c-.2 0-.2 0-.1-.2zm-14 3.9c-.1 0-.1 0-.1-.1v.2h0z" class="z"/><path d="M21.1 28.3h-.2v-.2s.1 0 .2.1h0zm.8 1.5v-.2c0-.1 0 0 0 0v.1.2h-.1z" class="v"/><path d="M23.9 33.9v.1s-.2.1-.2 0h.2 0z" class="AA"/><path d="M9.9 21.8c-.1 0 0 0 0 0h0zm9.4 6.6v-.2.2h0zm2.4 1.4h.2c-.1.2-.2.2-.3 0h0z" class="v"/><path d="M20 30.4c.1 0 0 .1 0 .1h-.1.1 0z" class="z"/><path d="M17.4 36.3h-.1-.2.3 0zm-8.1.9v-.1h0v.2h0z" class="v"/><path d="M9.3 35.7z" class="z"/><path d="M25.4 33.2c.1 0 .2 0 0 .1v-.1z" class="AA"/><path d="M20.1 23.7z" class="z"/><path d="M19.1 37.3s0-.1.2-.2l-.2.2z" class="AB"/><path d="M27.4 31.8v-.2.2z" class="v"/><path d="M27.2 23.5h-.1v-.2h.2v.1h0z" class="AG"/><path d="M12.5 41.1s.1.1 0 .1h-.2v-.1h0z" class="AK"/><path d="M25.4 41h.1v.2c0 .1-.1 0-.2 0v-.1h0z" class="AE"/><path d="M23.4 33.9v-.2.1s0 .1-.2 0h0z" class="x"/><path d="M8.7 29.9v.1h-.1z" class="AC"/><path d="M27.3 35h0z" class="v"/><path d="M18.3 35.3v.1-.1z" class="x"/><path d="M10.3 43.2h0z" class="AH"/><path d="M20.9 37.5h-.1v-.1h.1v.1z" class="w"/><path d="M22.7 32.5h.1-.1z" class="v"/><path d="M25.4 32.7zm-5.8-11.5h.1z" class="AA"/><path d="M17.4 22.7s.1 0 .1.1h-.2v-.1h0z" class="AC"/><path d="M23.5 27.6s0 .1 0 0z" class="z"/><path d="M25.4 28.2v.1-.1zm2 .3v.1h0zm-4.1.4v-.1h0zm2.1.3v-.1z" class="v"/><path d="M20.6 25.9h0z" class="AC"/><path d="M26.1 34.6v.4h-.5s-.1 0-.1-.1 0-.2.1-.2h.4 0z" fill="#d5b278"/><path d="M25.9 30.8s0 .1-.1.2c-.1 0-.2 0-.3-.2h.4 0z" class="AG"/><path d="M22.2 27.1s.1 0 .1.1h-.2v-.1zm-.3.6h0z" class="AD"/><path d="M25.6 36.7s-.1-.1-.1-.2c.1 0 .3 0 .1.2z" fill="#d4a961"/><path d="M21.5 39.6v.2c-.2 0-.1-.1 0-.2zm.9.2c.1 0 .2 0 .2.2h-.1l-.1-.2h0z" class="z"/><path d="M15.6 38.1v-.8.8z" class="AD"/><path d="M24.4 33.8h0 0zm-.4-.5v-.1.1z" class="z"/><path d="M15.4 36.9v.2.1-.1-.2h.1 0zm1.6.5c-.1 0-.2 0-.2-.2.2 0 .2 0 .2.2zm.1.1H17h.1zm6.4-10.2h0z" class="AD"/><path d="M23.6 33.8h.1v.1z" class="x"/><path d="M33.2 41.7v-.4c-.3-.9-.3-1.8-.3-2.7 0-.2 0-.4.2-.6v-1.2-.3-1c0-.1-.1-.2-.2-.3v-.5-.9-.3-2.2c0-.3 0-.5.2-.8v-.8c-.1 0-.2 0 0-.2v-4c-.4-.6-.2-1.1-.3-1.7v-1.1-.4-.5-.2c.3-.5.7-.5 1.2-.3h1 3.5.8.6 2.2.5.5.2.7.4c1.5-.1 3 0 4.5 0h.5.4l5.2.2c.2.2.3.4.3.7v.6.9 1.9c0 .6.1 1.1.1 1.7v.4 1.9.9.5 8.1.4 1 2.4c0 .6-.4.8-.9.9-.5 0-1 0-1.6-.2h-1.6-1.6-2.6c-.3 0-.5 0-.8-.2h-.7-.2-.2s.1.1 0 .2c-.1 0-.2 0-.3-.2h-.4c-.5.2-1 .2-1.4 0h-.4c-.2.1-.3.2-.6 0h-1.8c-.5.4-.9.3-1.4.3h-.4-.5c-.4 0-.7 0-1.1-.2-.4-.1-.7 0-1.1 0-.9.3-1.7.4-2.5-.2v-.4-.3c-.1-.2 0-.3 0-.6h0z" class="AD"/><path d="M33.2 36.4v.2c-.3 0-.3 0 0-.2zm.1 2c-.2 0-.1-.2-.1-.5s0 0 0 0v.5z" class="AE"/><path d="M44.8 43.5h.3s-.1 0-.3.1h0zm.8-.1z" class="AM"/><path d="M33.2 41.7v.5c-.2 0-.2-.3 0-.5z" fill="#e0be80"/><path d="M33.3 42.6c.1 0 0 .2 0 .4v-.4z" fill="#e9d096"/><path d="M38.4 25.1l.6-.3h.2v.2l-.8.8c-.6.5-.9 1.2-1.1 2v.3c-.2.8 0 1.4.5 2.1 0 .3-.2.4-.4.4-.9 0-1.7.2-2.6-.3v-1.2c.3-1.1.6-2.2 1.5-3.2.7-.3 1.4-.5 2.2-.8h0z" fill="#e1c99b"/><path d="M41.9 30.8c.4-.2.9-.2 1.3-.3l2.9-.3h.2.4c.6 0 1.1.1 1.6.2.3 0 .6 0 .8.4 0 .4-.1.8.5.7.2 0 .3 0 .4.2 0 .2 0 .4-.2.5-.2.2-.5.2-.8.1-.4 0-.8-.1-1.2-.3-.3-.2-.6-.4-1-.2h-.3c-.1 0-.2-.2-.3-.3-.4-.4-.6-.3-.9.3-.2.2-.4.3-.6.5s-.5.3-.8 0 .2-.5.3-.7c0-.2.3-.4.3-.6-.3.1-.2.4-.4.6s-.4.3-.6.3-.5 0-.4.5c0 .3-.3.3-.5.3-.4 0-.8 0-1.2-.3-.2-.7.2-1.1.7-1.6h0z" fill="#ddbf84"/><path d="M47.5 31.8l1.3.3c.3 0 .7 0 .9-.2v-.2s0-.1-.2-.1-.3 0-.5.1c-.4 0-.6-.2-.4-.6 0 0 0-.2.2-.3.4-.6.9-.3 1.5-.1a1.72 1.72 0 0 1 .6.6c.2.8 0 1.2-.5 1.5s-1.1.4-1.8.3l-2.1-.3c-.8-.2-1.4.2-2.1.4h-.3s-.1 0-.1-.2v-.1l-.1.1c-.2 0-.4-.3-.6 0 0 .1-.4 0-.5 0-.6-.4-1.2-.4-1.9-.2-.5.1-1.1.1-1.6.2-.6.1-1-.1-1.1-.7.7-.2 1.4 0 2.1-.2.4 0 .7-.1 1 0 .5 0 1 0 1.5.2h.2V32h-.3v-.1c.2-.1.4-.2.7-.2h.7c.1-.1.2-.1.4 0 0 .1.1.3 0 .3s-.3 0-.4.2v.3h.2l1-.6c.4-.3.8-.4 1.2 0h.3c.4-.2.6 0 1 0h0z" class="z"/><path d="M53.7 22.9c.2.4 0 .8-.1 1.2-.1.2-.2.4 0 .7 0 .2-.1.4-.3.3-.5-.3-.8 0-1.1.2v.2c.2.2.4.4.6.7.2.2.4-.1.6 0 0 .1-.2.3 0 .5l.2.2c.2.3.1.8-.1 1.1-.2.2-.5.2-.7 0 0 0-.1-.2 0-.3s.2 0 .3 0h.2v-.2c0-.2-.1-.3-.2-.4-.2-.3-.6-.5-.9-.7-1.4-.8-2.9-1.5-4.5-2.1 0-.3.1-.5.4-.6.6.1 1.2.3 1.7.4h.5c.9.4 1.8.2 2.7-.2.2 0 .2-.2.3-.3 0-.2.2-.4.2-.7 0-.1.2-.1.3 0h0zm-15.3 2.2c0 .3-.4.4-.6.5s-.4.3-.8.2h-.7c1-1.3 2.4-2.2 4-2.6 1.1-.3 2.3-.4 3.5-.2 1.1 0 2.2.3 3.2.5.2.3 0 .5-.2.7-.6 0-1.2-.2-1.7-.3-1.5-.1-3 0-4.4.3-.2 0-.3.1-.5 0-.3-.3-.6-.1-.9 0-.4.1-.7.3-.9.6 0 0-.1.2 0 .3h0 0z" class="AB"/><path d="M40.3,32.4c-.7.3-1.4.4-2.1,0-.1-.3,0-.4.3-.4.1,0,.3-.1.2-.3,0-.2-.2-.2-.4-.3-.5,0-.9.3-.9.8,0,.2.1.4.1.7,0,.4.1.8-.2,1.1-.4,0-.7-.2-.9-.5-.7-.7-1.3-1.4-1.6-2.4.1-.2.3-.3.4-.3,1.1,0,2.3-.2,3.4,0,.5,0,.9.1,1.4.2.5.4.5.9.2,1.5h0Z" fill="#d9b877"/><path d="M53.4 33.5c.4.5.5 1.1.5 1.7v.6c-.7 1.2-1.1 2.3-1.7 3.5-.2.4-.6.5-.9.7-.2.2-.5.3-.8.5-.4-.6 0-1.1.3-1.7.1 0 .1 0 .2-.2l.7-1.3c.1-.3.2-.7.2-1.1.2-1.1.6-2 1.5-2.6h0z" fill="#e0c695"/><path d="M53.5 33.5c-.2.3-.4.6-.7.9l-.2.2-.7 1.4c0-.1-.1-.3-.2-.5-.2-.8-.5-1.4-1.3-1.8-.2-.3 0-.5.1-.7.4-.5.9-1 1-1.6 0 0 .1-.1.3-.1.7.5 1.2 1.1 1.4 1.8 0 .1 0 .2.1.4h0z" fill="#debb7b"/><path d="M45.5 27.3c-.6.3-1 .8-1.3 1.4l-.3.6c-.2.2-.4.2-.7 0-.3-.5-.5-1-1-1.4-.1-.1 0-.2.1-.2 0 0 .1 0 .1-.1s0-.2-.1-.3c-.6-1.2-1.4-2.1-2.6-2.7-.1 0-.3 0-.3-.3.2-.3.4-.2.7 0 .5.3.8.6 1.2.8.4.3.7.6.9 1 .5.9.9 1.7 1.1 2.7 0 .2.2.2.3 0 0 0 .2-.2.2-.3.3-.9 1.1-1.6 1.5-2.5 0 0 0-.2.2-.3.2 0 .3.3.2.5s-.2.3-.3.4v.4h0 0z" class="AN"/><path d="M35 36.8c0 .5.3.8.6 1.1.6.7 1.3 1.2 2.2 1.6a.55.55 0 0 1 .5.3c-.1.2-.4 0-.4.2s.3.2.4.3c.2 0 .4.1.6.2.6.2.6.2 1.1 0 .1.2.2.3 0 .6-.7 0-1.4-.1-2.1-.2-.5 0-1.1-.1-1.7 0-.3-.2-.3-.4-.1-.7.2 0 .4-.1.6-.1 0-.2 0-.2-.1-.3-.2-.1-.4-.3-.6-.4-.2-.2-.5-.3-.8 0H35v-.2c.2-.2.2-.3 0-.5-.3-.4-.4-.9-.3-1.4h.2 0z" fill="#d7b57a"/><path d="M49.7 40.8c-.9.5-1.8.7-2.7.9h-1.3c-.3-.2-.3-.5 0-.8l1.9-.3c.7-.2 1.5-.4 2.2-.8.4.3.3.6 0 1h0z" fill="#e0c695"/><path d="M44.3 33.3c.5-.6 1.2-.8 1.9-.8s1.5.2 2.2.3c.2.2.1.4 0 .5h-.5c-1.1 0-2.1.2-3.2.4-.4 0-.4 0-.4-.4v-.2h0z" fill="#ddc290"/><path d="M43.1 33.9c-.6-.9-1.6-.7-2.5-.6-.6 0-1.1.2-1.7.1-.6 0-1.1-.3-1.4-.8-.3-.4 0-.9.3-1.1.2 0 .5-.1.6 0 .1.2 0 .3-.2.4 0 0-.1.2 0 .4-.1 0-.1.1 0 .2.3.3.6.4 1 .3.4 0 .8 0 1.2-.1.3 0 .7 0 1-.2.5-.1.9 0 1.3.2s.3.3.6.2v-.7-.2h.1v.5c0 .1 0 .3.3.3h.3v.2c-.1.5 0 1 .1 1.5 0 .3.2.5.3.8 0 0 0 .1-.2.1-.4-.4-.6-.8-.7-1.2 0-.2-.1-.4-.3-.6H43h0z" class="w"/><path d="M49.4 23.2c.5-.3 1-.7 1.6-.8.3-.1.5-.2.8 0 .1.1 0 .2 0 .3l-.9.3c-.2 0-.4.1-.7.2v.1c0 .1 0 0 0 0h.7c.2 0 .5.1.6.4v.2h-.2c-.1 0-.3 0-.4-.1-.3-.1-.7-.2-1 0h-.8c-.3 0-.5-.1-.4-.5 0-.3-.2-.4-.4-.5-.1 0-.1-.1 0-.2.4-.3.6-.2.9 0 .1.1.1.3 0 .5v.2h0z" class="y"/><path d="M48.5 33.5V33c.6 0 1.2 0 1.8-.4.2-.1.4-.3.5-.5v-.7c0-.2.2-.3.2-.6l.1-.1c.3 0 .5.2.7.4 0 .1-.3.2-.2.3.2.3 0 .4-.1.6-.4.5-.8.9-1.1 1.5-.7-.1-1.3-.2-2-.2h0z" fill="#ddbe87"/><path d="M54.8 42.8c-.2.3-.5.3-.7.3h-1.7l-2-.1h-1.2-.4c-1.5 0-3.1 0-4.7-.1 0 0-.1 0 0-.1h.9 9.2c.2 0 .4 0 .6-.2 0 0 .1 0 .1.2h0z" class="x"/><path d="M38.7 30.7c-.4 0-.8.1-1.1.2h-1-1.7c-.2-.2-.2-.5-.2-.8.8 0 1.6.1 2.4 0 .2 0 .4 0 .6-.1.3.1.6.3 1 .5h0z" class="AA"/><path d="M51.3 22.3h-5.9c-.6 0-1.2-.1-1.8-.2 0 0-.1 0 0-.1h3.3 6.9c.1.1.2.1.4.1-.2 0 0 0 0 0h-.3-1.6c-.3.2-.5.2-.7 0z" class="x"/><path d="M51.2 30.8v.2c-.2.4-.5 0-.8 0-.5-.2-.9-.4-1.4-.1-.3-.2-.7-.2-1-.3-.4 0-.9 0-1.3-.4 0 0 .1-.1.2-.1h2.8c.5 0 .9.3 1.4.6h0z" class="AA"/><path d="M36.6 24.2l.2-.2v-.1c0-.1 0 0 0 0h-.5-.7c-.5 0-.9-.3-1-.8V23v-.1c.7.4 1.3.9 2.2.8 0-.2-.1-.3-.2-.4v-.5h.2s.1 0 .1.1c0 .5.4.6.8.8.2 0 .4 0 .5.3-.1.2-.3.2-.5.2-.4 0-.7.2-1.1.4v-.1h0z" class="y"/><path d="M37.8 41.7c-.2.1-.4.2-.5.4a.55.55 0 0 1-.5.3h-.3c-.1-.1 0-.2 0-.3 0 0 .2-.1.2-.3l-.5-.2c-.2 0-.3-.2-.3-.4V41h.2c.1 0 .1 0 .2.1.2.2.5.2.7 0 .2 0 .3-.2.5-.2.1 0 .2-.1.4-.1.3 0 .4 0 .4.3v.2c0 .3 0 .3.4.3h.1v.1c-.4.3-.6.3-1 0l-.2-.2h0 0z" class="AJ"/><path d="M40.3,32.5c0-.5,0-1-.2-1.5.6-.1,1.1-.2,1.7-.2,0,.2,0,.4-.1.5-.3.3-.4.6-.5,1-.3,0-.6.1-.9.2h0Z" class="AK"/><path d="M45.6 40.9v.8c-.8.1-1.6 0-2.5-.1-.2-.2-.2-.4 0-.6h2.5z" class="y"/><path d="M43 40.9v.6c-1 0-2-.3-3-.5v-.5c1 0 2 .3 3 .4h0z" fill="#e1c89a"/><path d="M45.8 36.2c-.2 0-.2-.2-.3-.2s-.2 0-.3-.1c-.1-.3-.2-.6-.2-.9 0-.2 0-.4.1-.4s.2.1.3.2c0 .1.2.1.3 0 .2-.2.5-.5.8-.6h.1c.1 0 0 0 0 .1-.3.3-.4.6-.5.9 0 .3 0 .3.3.4h.2c-.2.2-.5.4-.5.7v-.2c-.2-.3-.2-.5-.2-.7s-.1 0 0 0v.6h0z" class="y"/><path d="M48.7 39h-.3c-.3-.4-.5-.8-.7-1.3-.4-1-.6-2.1-.6-3.2 0-.3 0-.4.2-.4s.1.2.1.4c0 .5 0 1.1.1 1.6.3.9.4 1.9 1.1 2.7v.3h0z" class="AB"/><path d="M52.2 39.3c0-.6.3-1.1.5-1.7l.6-1.2c.1-.2.3-.4.5-.5 0 .6 0 1.1-.4 1.6 0 0-.1.2-.2.3-.2.6-.6 1-1.1 1.5h0z" fill="#d2ae74"/><path d="M45 39.8c-.3.1-.4.3-.6.5s-.2.1-.3-.1c0-.1-.1-.2-.2-.2-.4 0-.8.2-1.1.3h-.2-.2v-.1s.1 0 .2-.1c.1 0 .3-.2.4-.3.5-.4 1.2-.6 1.9-.8h-.1c-.3.3.2.4 0 .7h0zm7.2 1.8l-1.5-.7v-.2h.2.1a15.95 15.95 0 0 1 2.7 1.2c.1 0 .3.2.4.3 0 0 .1.1 0 .2 0 .1-.2 0-.3 0l-1.6-.8h0z" class="y"/><path d="M40.4 42.9h-1.8-4.3-.5.1 3.6l2.8.2h0z" class="x"/><path d="M45.8 26.5c0-.2-.1-.3-.2-.6 0-.2 0-.3.1-.4.2-.3.3-.7 0-1.1v-.2h.2c.2.1.3.3.2.6 0 .2-.1.4-.2.7.2 0 .4-.2.5-.3.2-.2.5-.4.7-.6h.4c0 .1 0 .2-.1.3l-.6.5-1 .9h0z" class="w"/><path d="M36.2 39.9v.6c-.2.2-.5.2-.7.4s-.4.4-.5.7c0 0 0 .1-.2.2-.3-.3-.1-.6 0-.9s.2-.5.2-.8c.4 0 .8 0 1.2-.1h0z" fill="#ddc290"/><path d="M50.7 35.7c0-.3 0-.5.2-.7h.2s.2.1.2.2v.3c-.1.3-.3.5-.5.8-.1.2-.3.3-.3.5.1.1.3.2.4.3v.2c0 .1-.1 0-.2 0H50h-.2a.76.76 0 0 1-.2-.4v-.2l.1-.2s0-.1.2-.2l.1-.1c.3-.1.4-.4.8-.5h0z" class="y"/><path d="M49.7 40.9v-1l1.1-1.1c.1.2 0 .4 0 .6 0 .4-.3.7-.3 1.1-.2.3-.5.3-.8.5h0z" fill="#dab97d"/><path d="M39.1 39.6c.6-1.1 1.5-1.9 2.8-2.4 0 0 .1 0 .1.2-1.1.5-1.9 1.3-2.7 2.2h-.2 0z" class="w"/><path d="M49.4 37.1h-.2l-.2.2c-.1.1-.1 0-.1 0v-.2c-.2 0-.3 0-.2-.2v-.7c.4 0 .4.2.5.3.5-.2.3-.7.5-1.1.2 0 .2 0 .2.2 0 .1 0 .3.3.3.2.1.1.2 0 .4h0v.1h0v.1l-.1.2s0 .1-.1.2h0z" class="y"/><path d="M39.7 35.7h.2v-.2c-.1 0-.3-.1-.4 0-.5.3-.8 0-1.1-.3v-.1h.2.7c.3 0 .7.2 1 .3.1 0 .2.1 0 .3v.1c.1 0 .2 0 .2.2h-.3c-.2 0-.4 0-.5.1h-.2c0-.1 0-.1.2-.2h0z" class="w"/><path d="M48.2 34.6l.5-.5h.2c0 .4.4.2.6.2.3 0 .6 0 .8.1 0 0 .2.1.1.2h-.2c-.5 0-1.1.2-1.6.4v-.2c0-.3 0-.2-.2-.1h-.2v-.2h0z" class="y"/><path d="M54.9 23.4c.1.2.1.4.1.6v3.1c0 .1 0 .3-.2.5v-4.1h.2 0z" class="v"/><path d="M51.6 29.3H50c-.3 0-.5.2-.8.4-.2 0-.4.2-.6.2h-.1v-.2c.8-.4 1.7-.7 2.7-.6.1 0 .2 0 .3.1v.2h0z" class="y"/><path d="M50.8 27.5v.4s-.1.1-.1 0c0-.2-.4-.3-.4-.7 0 .5 0 .9-.3 1.3-.2-.2-.2-.5-.3-.8.2 0 .2-.2.1-.4 0-.1-.1-.2-.2-.3 0-.2 0-.2.2-.2h.1.3a1.44 1.44 0 0 0 .2.3c.2 0 .2.1.3.3h0z" class="x"/><path d="M36.6 24.2v.1c-.3.3-.6.7-.7 1.1 0 .1 0 .2-.2.3h-.3c-.3-.4 0-1 .4-1.2.2-.1.5-.2.8-.3h0z" fill="#ccb078"/><path d="M42.6 38.6c-.2 0-.3.2-.3.3 0 .2 0 .5-.1.7 0 0 0 .1-.1.1 0 0-.1 0-.1-.1-.2-.2-.1-.5-.2-.8h-.1c.1-.2.3-.4.4-.6h.2v.2.2c.1-.2.2-.3.3-.5.1.2.2.4 0 .7h0z" class="w"/><path d="M45.2 39.6c.6-.2 1.2-.2 1.8-.2.2 0 .2.1.2.3v.2c0 .1 0 .3-.2.3-.1 0 0-.2 0-.3 0-.2 0-.2-.2-.2-.4 0-.8.2-.9.7 0 0-.1 0-.2-.1v-.5c0-.1-.1-.2-.1-.3h0zM50 42c.3.1.5 0 .7 0h.3.3c0 .2 0 .1-.2.2 0 0-.2 0-.3.1s-.2 0-.2.1h-.2c-.2-.1-.4 0-.6 0-.4.1-.8.2-1.3.2-.2 0-.4 0-.6-.3.5 0 .9-.2 1.4 0 .1 0 .2-.1.3-.2h.3 0z" class="y"/><path d="M43.4 22h-1.8-3.5-1.4c.2 0 .5-.1.7-.1h5.5.4 0z" class="w"/><path d="M42 37.4v-.2c0-.1.1-.2.2-.3 0-.1.1-.2.3-.2.9.1 1.8.1 2.7.6v.2c-.1.1-.2.1-.3 0l-.8-.2c-.7-.2-1.4-.2-2.1.1h0z" class="AB"/><path d="M48.5 26.3c-.2 0-.5-.1-.6.2h-.2l-.4-.3c.2-.1.4-.2.8-.2h-.3c-.2 0-.3-.2-.3-.4 0-.1.1-.3.2-.2h.4c.1 0 .3-.2.4 0 0 .1-.2.2 0 .4.1.1.2.3 0 .5h0z" class="w"/><path d="M45.5 37.1h.3c.6.6 1.2 1.1 1.9 1.7l-.2.1c-.3-.1-.5-.2-.7-.4-.5-.3-.9-.6-1.3-.9V37h0z" class="AB"/><path d="M54.8 37.5V37v-5.2-.5.1 6s0 .1 0 0h0z" class="x"/><path d="M39.1 26.7c-.3-.2-.3-.3-.2-.3.2-.2.5-.2.8-.3.1 0 .2 0 .3.1 0 0 0 .1.1.1 0 0 .2 0 .1.1 0 0 0 .1-.2.2-.3.1-.6.1-1 0h0zm.8 9.8c-.9 0-1.7-.2-2.5-.5-.1 0-.2-.1-.3-.2v-.1h.1.3c.7.3 1.5.5 2.3.7v.1h0z" class="w"/><path d="M42.7 29.4c-.6-.6-1.3-.8-2-.9v-.1c.9-.1 1.6.2 2.1.9h-.1 0z" class="AJ"/><path d="M39.2 38.4v.2.2h-.1c0-.2 0-.2-.3-.2-.5.1-.9 0-1.3-.2v-.1h.7c.3.2.6.1.9.1v.1h0z" class="w"/><path d="M43.2 29.4h.7v.6c0 .1-.1.2-.2.3-.2.1-.5.1-.6-.2v-.2-.1c.2 0 .3 0 .3-.2h0z" class="AA"/><path d="M49.9 37.2v.2.2h.3s.2 0 .2.1c0 .2-.1.2-.2.2-.3.1-.5.3-.7.6-.2 0-.2-.2-.2-.3 0-.3.1-.6.3-.9 0-.1 0-.2.2-.2h.1 0zm4.8.3v5 .4-.2-2.6-2.5h0z" class="y"/><path d="M45 28.2h.1c.1 0 .2.2.4.2.1 0 .2-.2.3-.3l.2-.3s.1-.2.2 0v.3c0 .1-.1.2-.2.3-.2.3-.4.5-.8.5-.1 0-.2 0-.2-.2v-.4h0z" class="AI"/><path d="M50.8 27.5c-.1 0-.2 0-.3-.2.2-.2.3-.4.2-.7h.2s0 .2.1.2c0 0 0 .3.2.3h.3.1v.1s0 .1-.1.2c-.3 0-.3.3-.3.6-.1 0-.2-.2-.3-.5 0 0 0-.1 0 0v.2h0z" class="w"/><path d="M46.9,24.2c0-.3.2-.4.2-.6.3,0,.5,0,.8.2,0,.2-.2.5-.4.6-.2,0-.4,0-.6-.2h0Z" class="AF"/><path d="M45.5 27.4c-.1 0-.2-.2-.1-.4 0 0 .1.1.2.1h.5c.3-.1.5 0 .7 0v.2c0 .1 0 .1-.1.1h-.6-.7 0zm-7.4 1.2c0-.2.2-.3.3-.3h.2c.1 0 0 .1 0 .2v.3c0 .1.1.2.2.3v.2h-.1c-.4 0-.6-.3-.5-.7h0zm8.8-.6c.1.2 0 .5.1.7v.1c-.3.1-.5 0-.6-.3v-.3c0-.3.3-.4.6-.3v.2h0z" class="w"/><path d="M48.9 28.3c.2-.1 0-.1 0-.2v-.2c0-.1.1 0 .2 0 .2.1.3.4.2.7 0 .2-.2.3-.5.3-.2 0-.2-.1-.1-.3 0 0 0-.2.1-.3h0zm-5.1-4.1c.1 0 .2.2 0 .3h-.3c-.2 0-.2 0-.3.2 0 0-.2.2-.3 0 0 0-.1-.2-.1-.3s0-.2.1-.3c.2 0 .4-.1.5 0h.4 0zm-3.3 18.7h3.4-3.4 0z" class="y"/><path d="M38.2 37.6H38c0-.3 0-.5.3-.6.2-.1.4-.1.7-.1 0 0 .2 0 .1.2 0 .1 0 .3-.2.2-.3-.2-.4 0-.5.1 0 0 0 .1-.2.2h0z" class="w"/><path d="M36.5 35.8c-.1 0-.2 0-.2-.2s0-.4.2-.6c0-.1 0-.2.2-.2.1 0 .2.1.2.2 0 .3 0 .6-.4.8h0z" class="x"/><path d="M35 21.9h1c0 .2-.2.1-.4.1h-1.4c-.3 0-.3 0-.4.4v.2c-.2 0-.1-.2-.1-.3 0-.5 0-.6.6-.5h.8 0z" class="v"/><path d="M35 36.8h-.2c0-.2 0-.3.3-.4.4 0 .5-.1.7.2v.4h-.4v-.2c0-.2-.1-.1-.3.1h0z" class="w"/><path d="M50.3 26.9H50c-.2-.3-.3-.6-.4-.8V26h.1c.2 0 .4.2.5.4.2.2 0 .4 0 .6z" class="y"/><path d="M52.6 28.6c.3 0 .5 0 .7.2 0 0 .1.2 0 .3 0 .1-.2 0-.2 0h-.2c-.2-.3-.3-.1-.4 0 0 0 0 .1-.2 0v-.2c0-.2.1-.3.3-.4h0z" class="w"/><path d="M40.2 24.4c-.2 0-.4-.1-.7 0 0 0-.1 0-.2-.2.2-.3.6-.4.9-.5h.2v.2s-.3 0-.2.3v.2h0z" class="z"/><path d="M45.1 39c0-.3-.4 0-.5-.3 0-.1-.3-.2-.4-.3v-.2h.1c.3.2.6.3.9.4 0 .1 0 .2.1.4 0 0 0 .2-.2.2h0zm2.4-9.7c.2 0 .4-.2.5-.3h.3v.3c-.2.2-.5.3-.8 0v-.2h0z" class="w"/><path d="M42.3 35.1h-.1c-.1 0-.4-.1-.3-.4 0-.2.3 0 .4 0h.3c.1 0 .2.2.1.3 0 .2-.2 0-.4 0h0z" class="y"/><path d="M44.8 24.6c-.2 0-.2-.3-.4-.2v-.2c.1 0 .2-.2.4-.1.2 0 .4.2.4.4s0 .3-.2.3-.2 0-.2-.2h0z" class="w"/><path d="M43.3 26.2h-.2c-.5-.2-.5-.3-.4-.8 0-.1.2-.2.3-.2s0 .1 0 .2c0 .3.2.4.2.7z" class="x"/><path d="M52.5 41c-.3-.2-.4-.5-.5-.8v-.1h.1c.1 0 .2.2.4.3.1 0 .2.1.1.2 0 .2.1.4-.2.4h0z" class="AF"/><path d="M42.4 24.8c0 .1-.1.2-.2.1-.1 0-.3 0-.3.1h-.2v-.1-.3c0-.2.2-.3.4-.2s.3.1.3.4h0z" class="w"/><path d="M54.1 29.7v.4s-.1.1-.2.1c0 0-.2 0-.2-.2s0-.3-.1-.3c0 0-.2 0-.1-.2h.2c.1 0 .2 0 .3.2h0z" class="x"/><path d="M52.3,30.7c.2.2.4.2.6.2,0,0,.1,0,.1.1s0,.1-.1.1c-.4,0-.6,0-.8-.4,0-.1,0-.2.2-.2h0Z" class="v"/><path d="M45.2 39.6s0 .2.1.3h-.2s-.1-.2-.1-.3 0-.2-.2-.2-.4.2-.6.1c.1-.2.4-.3.7-.4.3 0 .3.2.3.4h0z" class="z"/><path d="M34.6 35.4c.1-.2.2-.3.3 0 0 .1 0 .3.2.3h.2s-.1.2-.2.2c-.3 0-.4 0-.5-.5zm16.5 6.5h-.2c-.2-.2-.6-.2-.7-.5v-.1h.1c.2 0 .4 0 .5.1s.3.2.3.5h0zm-9.9-12.1c-.1-.1-.2-.2-.3-.4v-.1h.3c.1 0 .3.1.3.3s-.3.2-.5.2h0zm12.5 9c.2 0 .2.1.2.2 0 .2-.1.5-.1.8 0 .2-.1.2-.2.3v.2c-.5-.2-.3-.5-.2-.8v-.2c.1-.2.3-.4.4-.6h0z" class="w"/><path d="M52.9 39.6c.2 0 .2-.2.2-.3 0-.2 0-.3.2-.4.2 0 .1.2.1.4-.1.3-.1.7-.4 1-.1 0-.2 0-.2-.2v-.5z" class="x"/><path d="M40 27.4c.2-.2.3-.2.4-.1s.2.3.2.5c0 .1 0 .2-.2.2 0 0-.2 0-.2-.1 0-.3-.2-.3-.3-.4h0z" class="w"/><path d="M54.7 27.7v.3 1.7c0 .1 0 .3-.1.4-.1-.4 0-.8 0-1.2v-1.2h0 0z" class="x"/><path d="M49.8 42.1c0 .2-.2.2-.4.1 0-.2-.3-.4-.2-.6.3 0 .5.1.8.3 0 0-.2 0-.3.1z" class="w"/><path d="M53.6 38.6c0-.5.3-.8.4-1.2.1.3 0 .7-.3 1.1h-.1 0z" class="x"/><path d="M36.2 34.2c-.2-.1-.3-.3-.5-.3 0 0-.1 0 0-.2.3 0 .5 0 .7.2v.4h-.1 0z" class="v"/><path d="M34.7 34.2v.2c0 .1 0 .3-.1.3-.2 0-.2-.2-.2-.3 0-.3.1-.4.3-.5h.2l-.1.1v.2h0z" class="x"/><path d="M47.5 27.4s0 .1-.1.1-.1 0 0-.1c0-.5.3-.6.7-.4 0 0 .1 0 .2.1-.2 0-.4.2-.7.3h0zm4.1 2h.3s.2.1 0 .2c-.2 0-.2.3-.2.5 0 0 0 .1-.2 0 0 0-.1 0-.2-.1-.1-.3 0-.4.2-.7h0z" class="w"/><path d="M50 36.4V36c.2-.2.3-.5.7-.3a1.21 1.21 0 0 1-.7.7h0z" class="v"/><path d="M46.6 37c0-.1.1-.2.2-.3h.2c0 .3.1.7 0 1-.2-.2-.4-.4-.4-.8h0z" class="w"/><path d="M53.1 40.3c0-.3.2-.7.4-1v.5.5.3s0 .1-.1.1c0-.1 0-.2-.1-.4h0z" class="z"/><path d="M40.5 29.9c-.2.2-.6.3-.9.4 0 0-.2 0-.2-.2 0 0 0-.1.1-.1h1z" class="v"/><path d="M48.4 39.4h.2s.2 0 .2-.1v-.2c.1 0 .2.1.3.3 0 0 .1.1 0 .2 0 .1-.2.2-.3.2-.2 0-.4-.1-.6-.2v-.1h0z" class="AB"/><path d="M39.1,27c0,.2-.2.2-.3.3,0,0-.1.2-.2.2,0,0-.2,0-.2-.1,0-.3.1-.5.5-.5,0,0,.1,0,.2.1Z" class="y"/><path d="M40 29.3c0-.2 0-.4.2-.5h.2v.2c0 .3-.1.4-.4.5 0 0-.1 0 0-.2h0z" class="w"/><path d="M48.5 26.4v-.5c.2 0 .4 0 .5.1 0 0 .2.1.1.2 0 0-.1.2-.2.2h-.4z" class="AB"/><path d="M40.5,26.7c.3-.2.3-.2.7-.1,0,.3-.3.3-.5.4-.1,0-.2,0-.2-.3Z" class="y"/><path d="M34.7 41.9s0-.1.2-.2c.2.2.3.2.5 0h.2v.3c-.3 0-.6.1-.8-.2h0z" fill="#ccb078"/><path d="M47.4 39h.2c.3.1.5.3.8.4v.1c-.3-.1-.6-.3-.9-.5h0z" class="x"/><path d="M54.9 23.4h-.2v-1.2s0-.1.1-.1v.3.9h0z" class="y"/><path d="M46.1 29.1s.1.2 0 .2h-.5c-.1 0 0 0 0 0v-.1c.1-.1.3 0 .5 0h0zm-1.4-3.3c.3 0 .2.2.2.4 0 .1-.1.2-.2.2h-.3c0-.2.3-.3.3-.5h0zm-7.5 10.9s-.1 0-.1-.1v-.1h.1c.2 0 .4 0 .6.1-.2.3-.4.1-.7.1h0zm16-13.8c-.1.2-.2.4-.4.3-.2 0-.1-.4 0-.5h.2c.1 0 .2.2 0 .4h0zM47.9 28h.2s.1.2 0 .3-.2.1-.3 0c-.1 0-.1-.2 0-.4h.2 0zm-8.3.1c.1.2 0 .3 0 .4-.1 0-.3 0-.3-.1s0-.2.1-.3h.3 0z" class="w"/><path d="M49.8 37.1l-.2.2s-.1 0-.2-.2v-.2c0-.2.1-.3.3-.3.1.1.2.3.2.5h0z" class="v"/><path d="M48.6 35.2h.4l.1.2c0 .1-.2 0-.3 0s-.2 0-.2-.3h0zm-4.8-8.1c-.1 0-.3 0-.3-.1 0-.2 0-.4.1-.5h.1 0v.6h0zm.4-1.8c-.1.1-.2.2-.3.1 0 0-.1 0-.1-.2 0-.1 0-.2.1-.3.2 0 .2 0 .3.3h0zm9.5 15.5h.2c0 .2 0 .4-.2.6-.2-.2-.4-.4 0-.7h0z" class="w"/><path d="M51.2 22.3h.7v.2h-.8v-.2z" class="z"/><path d="M40.8 30.2c.2-.2.4-.3.7-.2-.2.2-.4.3-.6.4v-.2h0zm7.4 4.3v.2c-.3 0-.4 0-.3-.3v-.3c.2 0 .2.2.2.3v.1h0z" class="v"/><path d="M46.6 26.6h.4s.2.1.1.2c0 .2-.2 0-.3 0s-.3 0-.3-.3h0z" class="w"/><path d="M39.9 36.6v-.2h.5s.2 0 .2.2-.2 0-.3 0-.3 0-.4-.2h0z" class="v"/><path d="M53.5 40.2c0-.1 0-.2.2-.3h.2.2v.2c-.1.2-.3.2-.5.2h0z" class="x"/><path d="M42.5 38.7V38c.2 0 .2.1.4 0v.2c-.1.2 0 .3-.3.5h-.1 0z" class="v"/><path d="M45.2 38.5c.1-.1 0-.2 0-.3v-.1h.1a1.44 1.44 0 0 0 .3.2c.1.1 0 .1 0 .2h-.2-.2 0z" class="x"/><path d="M42.6 38.8c0-.2 0-.4.2-.5v.4.2s-.2 0-.2-.1h0zm.8-3.9c0 .1.1.2 0 .3h-.2s-.1-.2-.1-.3v-.1h.2l.1.1h0z" class="y"/><path d="M52.6 29.9c0-.2.2-.2.3-.1 0 0 .1.1.1.2s-.1.2-.3.1c0 0-.1 0-.2-.2h0z" class="w"/><path d="M45.8 36.2v-.8c0 .3.1.5.2.8h-.2z" class="v"/><path d="M42 27.6h.1-.3s-.2.1-.2 0c0 0 0-.1.1-.1h.3 0z" class="AN"/><path d="M43.8 27.1c0 .1.1 0 .2 0 0 0 .2 0 .2.1s-.2.4-.3.3c-.2 0 0-.3 0-.4h0z" class="w"/><path d="M41.2 36.8v-.1h.3c.1 0 .4 0 .4.1s-.2 0-.4 0h-.2 0z" class="v"/><path d="M35.7 34.9h-.3c0-.1 0-.2.1-.3.2 0 .2 0 .2.3z" class="AC"/><path d="M39.4,37.5c.2-.3.3,0,.5,0-.2,0-.4.1-.5,0Z" class="v"/><path d="M45.5 37c-.2 0 0 .2 0 .2s.2.2 0 .3c0 0-.1 0-.3-.1v-.1-.2-.1h0z" class="z"/><path d="M44.3 35.7h.2c.2.1.3.3.4.5v.2c-.2-.2-.3-.3-.5-.6z" class="AB"/><path d="M41.6 38.7c0 .2-.2.3-.4.3v-.2h.4.1 0z" class="w"/><path d="M45.2 36.8l-.5-.5.1-.1c.2.1.3.3.4.5v.2h0z" class="AB"/><path d="M51.2 28h.1c.2 0 .2.2 0 .2 0 0-.2.2-.3 0v-.3h0z" class="x"/><path d="M53.6 38.6h.1c0 .2-.1.4-.2.6v-.4s0-.1.1-.2h0z" class="z"/><path d="M53.2 22.9v-.3h.2c.1 0 .2.2 0 .4h-.2 0z" class="AB"/><path d="M43.5 37.9h-.3v-.2c.1-.2.3-.2.4.1z" class="y"/><path d="M40 29.2v.2h-.3c-.1 0-.2 0 0-.2V29c0-.1.1 0 .2 0h0z" class="AB"/><path d="M45.1 29.8s-.2-.1-.1-.2c0-.1.2-.1.3 0v.2h-.2 0z" class="v"/><path d="M38.8 43.3v.1s0 .2-.1.2c-.2 0-.1-.1-.2-.3h.2z" fill="#e8d6b1"/><path d="M53.3,23.6c0,.1,0,.3-.3.3,0-.1.1-.2.3-.3Z" class="w"/><path d="M33.7 23.1v.4c-.1-.1 0-.3 0-.5h0z" class="x"/><path d="M53.5 22.9v-.3c.2 0 .3 0 .3.3h-.3z" class="w"/><path d="M37.6 37.1c0 .2 0 .2-.1.2 0-.1 0-.2.2-.1h0z" class="x"/><path d="M45.5 37l-.1.1c-.1 0-.2-.2-.2-.3l.1-.1c.1 0 .2.2.3.3h0z" class="AB"/><path d="M43.4 36h.2v.1c-.1 0-.2 0-.1-.2h0z" class="x"/><path d="M48.1 36.1c-.1 0-.2-.1 0-.2h.2v.2h0z" class="AI"/><path d="M42,35.8c0,.2,0,.2-.1.2,0,0-.1-.2,0-.2,0-.1.1,0,.2,0Z" class="w"/><path d="M40.9 35c0-.1 0-.2.1-.2h0c0 .1 0 .2-.2.1zm14-4.1v-.3.1.2h0zm-13-.7s.1-.1.2 0v.1s-.1.1-.2 0z" class="x"/><path d="M42.7 29.4h.1l.2.2v.1s-.2-.1-.2-.3h0z" class="AA"/><path d="M47.5 29.4h-.1v-.2s.2 0 .2.2v.1h0z" class="w"/><path d="M48.5 27.6h-.1s.1 0 0 .1h0z" class="z"/><path d="M39.7 25.5h.2v.1h-.2z" class="x"/><path d="M33.8 24.8v-.2.2h0z" class="v"/><path d="M43.6 28.4v.2-.2s0-.1.1 0h0z" class="w"/><path d="M33.3 35.1c-.1 0-.2-.2 0-.3v.3z" class="AE"/><path d="M39 39.6h.2s0 .2-.2.3h-.1v-.2z" class="v"/><path d="M42 29.4v-.1h.1v.1zm11.5 9.2v.3c-.1 0 0-.2 0-.3z" class="x"/><path d="M51 38.5s0 .2-.1.2c0 0 0-.1.1-.2z" fill="#dab97d"/><path d="M52.9 39.6h-.1-.1.1 0z" class="x"/><path d="M43.2 27.1c-.1 0-.2-.1-.1-.2h.2v.1h0z" class="v"/><path d="M45.2,37.5c.1-.2.2,0,.3,0,0,.2-.2,0-.3,0Z" class="AB"/><path d="M52.9 24h0 0z" class="w"/><path d="M33.2 21.8z" class="AE"/><path d="M39 39.9s0 .1 0 0z" class="v"/><path d="M48.8 39.2c-.2-.2-.2-.2 0-.2v.2z" class="AB"/><path d="M40.6 29.9h0 0z" class="v"/><path d="M46.3 30.2z" class="AA"/><path d="M55.3 27.4v.1-.1z" fill="#bf9b57"/><path d="M43.4 27.5h0zm-.1-.4v.1h-.1v-.1z" class="v"/><path d="M33.3 33.7z" class="AE"/><path d="M46.3 31.7h-1.2c0-.3 0-.5.2-.7.3 0 .5.1.8.2.2 0 .2.2.2.4h0z" fill="#e5d0a7"/><path d="M44.4 31.6H44V31c0-.3.2-.4.6-.3h.1c.2.1.3.2.1.4-.1.2-.3.3-.4.5h0z" fill="#e6d2ab"/><path d="M47.5 31.8h-.9c0-.1 0-.3.2-.2.3 0 .5 0 .8.3h0z" fill="#e5d0a7"/><path d="M50.2 32.3c-.4.4-.9.5-1.4.4s-1.1-.3-1.6-.3c-.7 0-1.5-.2-2.2.2v-.2c.7-.3 1.3-.4 2-.3l1.8.4c.5 0 .9 0 1.4-.1h.1 0z" class="y"/><path d="M50.4,31c.2-.2.4,0,.7,0,0,.2,0,.4-.3.5-.2-.1-.3-.3-.5-.4Z" fill="#debb7b"/><path d="M49.4 31.5h-.3v-.2c.3-.2.5-.2.8 0-.2.1-.4.1-.6.2z" class="y"/><path d="M44.2 33h-.3c0-.3.2-.5.5-.6h.2v.2l-.4.4h0z" class="AB"/><path d="M50.1 31.3c.2 0 .3 0 .3.2v.1h0c-.1 0-.2-.2-.2-.4h0z" class="y"/><path d="M44.7 32.3v.1s0 .1-.2 0v-.2h0z" class="AB"/><g class="y"><path d="M50.2 32.2v.2l.1-.1h0z"/><path d="M50.2 32.2v-.1.1h0z"/></g><path d="M38.2 32.4c0 .2-.2.2-.2 0-.2-.2-.1-.4 0-.6 0 0 .2-.1.3-.2-.3-.1-.4-.1-.5 0-.2.1-.3.3-.3.6s.3.5.5.7a2.2 2.2 0 0 0 1.4.2c.6 0 1.2-.1 1.9-.2h1.1c.3.1.6.3.7.7-.2 0-.3-.1-.5-.2-.5-.2-1-.4-1.6-.3-.4 0-.9.1-1.3.2h-.8c-.6 0-1.1-.3-1.5-.8-.2-.4-.3-.8 0-1.1.4-.5 1.3-.5 1.6 0 .2.3 0 .5-.3.6h-.4l-.1.2h0z" class="z"/><path d="M50.3 23.4h-.1.1.1 0zm-.9-.2c0 .1-.1.1-.1 0h.1z" class="AD"/><path d="M49.7 36.6v-.1.1zm.2-.1v-.1.1z" class="v"/><path d="M49.4 36.9v.2c-.2 0-.2 0 0-.2z" class="AD"/><path d="M49.2 34.5s0-.1.2-.1h.1-.2 0zm-.1.1h-.2.2 0z" class="v"/><path d="M49.8 42.1s0-.1.2-.1c0 .1 0 0-.2.1z" class="AD"/></svg>