<svg xmlns="http://www.w3.org/2000/svg" viewBox="0 0 839 835.5" xmlns:v="https://vecta.io/nano"><style><![CDATA[.v{fill:#7b6540}.w{fill:#a6946f}.x{fill:#957e56}.y{fill:#c1a771}.z{fill:#27231a}.AA{fill:#b68f47}.AB{fill:#d2bd89}.AC{fill:#bb9b5e}.AD{fill:#090806}.AE{fill:#cbad73}.AF{fill:#c6a464}.AG{fill:#d2a555}.AH{fill:#ddbf8b}.AI{fill:#cfb680}.AJ{fill:#cdb27a}.AK{fill:#e4cda2}.AL{fill:#dfc389}.AM{fill:#d1ab6e}.AN{fill:#d0b983}]]></style><path d="M0,0h839v835.5H0V0Z" fill="#e09f5b"/><path d="M370.1 277.7h24.3l5.4-.2c3 0 3.9.9 4.1 3.6l.2 9c2.8 5.4 3.8 10.1 2.9 15.6-1.4 9.3 1 18.7.7 28.1-.3 8.2-.4 16.4-1.1 25.4v3.4c.8 4.6.7 8.4 0 13 .3 3 .6 5.1 0 8.1.8 6.2.3 11.6 0 17.8 1 5.7.9 10.7.2 16.4-.1 7.9 1.2 15-.1 22.8.9 4.5.4 8.1-.1 12.6.1 1.5.1 3.1 0 4.6 0 2.3 0 3.8-.1 6.1.1 2.3 0 3.9-.3 6.2-2.6 11.2-.2 21.8-.9 33-.6 2.8-.5 4.9-.5 7.8 2.8 13.1 1.9 25.6 2 38.9.1 14.4-2.4 16.9-15.7 16.8-5.2 0-10.3-1.3-16.3-.9H370h-4.7c-4.9.8-9 .7-13.8 0-9.8 1.8-19-1.4-28.6 1.6-1.2.5-1.8.6-3.1.8-1.4 0-1.9 0-3.2-.5-16.8-2.2-32.9-.8-48.9-1.2-16.1-.3-32.1.7-49-.9-8.5 1.8-16.3 0-24.8.4-1.9-.3-3-.4-4.9-.4s-3 0-4.9.2c-9.9 1.1-19.1.7-29 .2-2.4-.3-4-.4-6.4-.3-4 .6-7.2.6-11.2.8-1.4 0-1.9 0-3.3.2-5.1-.3-9.3.2-13.5-.7-5.9-1.2-9.4-4.1-6.7-11.5 1.1-16.7 2.9-32.6 1.5-49.3-1.7-3.9-1.9-7.2-.5-11.1l.2-36.3c-3-3.2-3.6-6.4-3.2-10.8-.3-4.1-.9-7.3 0-11.4-.9-7.3-.7-13.7-.2-21 .8-3.9-.5-7 .2-10.9.4-4.3 1.1-7.7 1.5-12l.5-3c.7-6.5-1.3-12.1-.2-18.6-1.3-20.5-1.3-40.3-2.1-60.8 1.1-6.7.4-12.7.6-19.5.3-6.3-1.1-12.5 6.4-15.8 4.7-1 8.4.2 13 .7 9.5-.9 18.2-.8 27.8 0 3.6 0 6.3-.7 9.9 0 6.4-.7 12-1.2 18 2.3 5.7.3 10.7.4 16.4.2 6.6-4.6 13.3-4.7 20.9-4.3 1.7.2 2.7.3 4.4.4 6.7.2 12.6-.8 19.2 0 3.2.7 5.9.7 9.2.7s2.5 0 4.1.2c5.1.5 9.6-.1 14.8.8 6.1.1 11.6-1.8 17.5 1.4 3.9.2 7 0 10.8-.1 2.8 1.2 5.3 1.3 7.7 1.3l37.9.3 20.1-.3h-.3z" class="AD"/><path d="M355,538c.3-2.1,1.1-3.5-.2-5.4-3-4.4-6.2-8.8-7.6-14.1-.5-2-2.6-1.8-4,.2-2.5,3.7-5.1,7.4-8.1,11.4-3.3.3-5.9-.3-8.2-3.1,3.3-13.1,4.7-26,5.8-39.8,7-6.2,13.1.7,20.3.8,2.6,1.1,3.2,3,4.8,5,.6,5,.8,9.6.8,14.2,0,7.5,2.1,14.4,5.4,21,2.6,5.1,6.6,8.7,12.1,10.4,1.1.4,2.4.5,3.6.5s1.7-.5,2.5-1c1.3-.9.9-1.9.3-3.1-.6-1.1-.7-2.3.6-3.2,1.1-.7,2.3-.6,3.5,0,4,1.8,4.3,7.9.5,10.5-2.6,1.8-5.6,2.3-8.7,1.9-5.4-.8-10.8-1.9-15.7-4.6-1.3-.7-2.8-1.1-4.8-1.4-1.2.2-1.7.3-2.9-.2h0Z" class="AG"/><path d="M165.9,317.8c3.9,1.8,4.5,5.3,6,8.1,1.8,3.4,3.5,3.3,6.3-.4.2-.2.3-.5.9-1.2,6.4,4.4,5.9,12.3,9.2,19l.4,32.3c0,6.9.4,13.9.4,20.8s-.2,9-.3,13.5c0,2.4-.5,4.9,2.5,7-4.2,3.9-6.1,3.6-8.8-2.3-4-8.8-6.6-18.2-9.7-28.2-6-19.5-8-39-11.2-58.3-.6-3.9-.3-7.9,4.4-10.4h0Z" class="AH"/><path d="M333.2,367.9c-.4-2.4-.5-4.3-.6-7,2.2-8.3,2.3-16.1,4.2-23.7,1-3.8,1.3-7.8,6-10,1.9.2,3.3,1.2,4.1,0,3.9-5.6,8-11,9.9-17.7,0-.2-.2-.6-.4-1.5-.2-1.2-.2-1.7.5-2,3.2,2,5.2.4,7.9-.9,5.1,4.2-.2,7.8-.7,12.5-1.8,5.7-3.8,10.5-4.2,16.5-.8,22-11.1,39.9-19.8,58.4-1,2.2-2.2,4.3-5.6,4.6-1.9-4.6-1-8.9-1.2-14v-2.4l-.4-10.4c.1-1.1.2-1.5.1-2.4h.2Z" class="AG"/><path d="M174.7,385.2c3.7,9.1,6.6,17.7,9.6,26.2.7,2,1.5,4,2.6,5.7.9,1.5,2.5,1.4,4.5.3,11.3-.6,22.1-.9,32.9-1h25.2c1.7.2,2.5.2,3.9.1,1.4,0,2.2,0,3.6.2,2.6,2.5,1.7,4.4-.7,6.8-19.6,1-38.6,1-57.7.2-2.4-.1-4.8-.2-7.2,0-1.6.1-2.7,1.2-3.1,3.6-9.8,4.5-16.4-2.5-24.6-6.2-.5-1.9-.6-3.3-.5-5.2.9-2.8,5.1-4.4.7-7.6-.7-7.2-1-13.9-1.2-21.5,3.5-4,7.3-4.4,12-1.4v-.2Z" fill="#ddb877"/><path d="M333.5,426.5c0-.8-.2-1.1-.6-2-1.9-2.2-2.5-4.5-1.1-6.3,6.7-8.3,13.9-16,26.1-16.5.9,3,1.1,5.6,1.5,8.8-.1,1.6-.3,2.7,0,4.2-.1,4.9-.4,9.2-.8,14.2-2.2,4.2-5,6.7-8.7,8.4,7.7,4.7,7.7,5,.2,14.8-1.5,1.1-2.7,1.6-4.6,1.9-1.3.2-2.3-.1-2.5.7-.1.7,1,1,2,1.8,1.8,1.8,2.8,3.3,3.3,5.1,1.3,4,1.1,8.1-2,11.1-3.7,3.5-7.9,1.8-12.3-.6-.5-12.1-.4-23.7-.2-36.1.3-1.2.4-1.6.4-2.5-.3-1.9-.5-3.3-.5-5.3.1-.7-.2-1.5-.1-1.9v.2Z" fill="#d4a961"/><path d="M164.9,538c-3.5-1-5.9-1.1-8.6.2-3.5,1.8-7.1,3.2-11.4,4.8-1.3-.7-1.6-1.6-1.2-3.2,1-1.2,1.7-1.9,2.4-2.4,6.6-5.3,10.9-12,11.7-20.7.6-6.6,1.6-13.2,2.6-20.5,7-9,15.6-14.3,26.7-15.7.6,1.8.7,3.2.7,5.2-2,3.5-3.8,6.3-6.9,8.1,2.1.6,4.3-.5,6.5,1.3,1,4.8,1.6,9.1,2.1,14.2-2.7,4.7-4.9,9.4-11.4,8.5-1.8-1.1-3.3-2.1-4.4-.4l-9.1,14.4c-.7,1.1-.3,2.3.6,4,.4,1.1.5,1.6-.3,2.1h0Z" class="AK"/><path d="M161.8,475.9c-.9-14.6-1.3-28.7.6-43.6,9.3-4.7,16.7-.1,24.8,4.3,1.5,9.1.6,17.7.6,27-7.3,7.7-16,10.9-26,12.2h0Z" class="AL"/><path d="M175.2,385.1c-3.6.7-7.3.7-11.8.7-1-9.4-1.4-18.7-1.4-28.1s-2-21.6-5.2-32.1c-1.2-4.1-3-7.9-5.4-11.4-3.6-5.1-8.1-8-15.4-6.4-1-.3-1.4-.8-1.6-2.2,1.5-3.2,3.6-4,6.2-4.1,4.3-.1,8.4.8,12.1,3,2.9,1.7,5,1.5,6.8-1.4.5-.8,1.5-1,2.3-.4.4.3.8.9.9,1.5.2,2.3-2.8,4.2-1,6.8,1.4,2,3,3.8,4.7,6.3-1.7,2-1.9,4.1-2.1,6.3-.4,5.2.9,10.3,1.7,15.3,1.4,8.7,2.6,17.4,4.9,25.9,1.7,6.4,2.8,13,4.2,20.3h.1Z" fill="#d5b26e"/><path d="M333.7,397.4c4-3.2,3.4-8.4,6.7-11.2.8-6.1,4.8-10.8,7.2-16.2,4.9-11.1,7.9-22.7,11.8-34.7.4,11,.4,22.6.3,34.9-.2,1.2-.3,1.6-.3,2.5v12c-1,2.3-3.1,2.4-3.5,4.6-1.2,8.2-7.3,12-14.8,15-2,.4-3.3.4-5.2-.1-1-.5-1.3-.8-2-1.7-.3-1.9-.3-3.2-.1-5.1h-.1Z" class="AM"/><path d="M286.5,360.7c1.7-1.6.8-2.5.4-3.5-.5-1-1.6-2.1-.7-3s2,.4,3.6.8c1.1.3,1.9.7,2.1-.1.2-1.2.4.3-.4-.7-1.1-2.1-2.4-3.7-3.9-5.6,1.7-1.7,3.3-.3,4.8,0,1.2.2,2.6.6,3.1-.8.4-1.4-1-2-2-2.6l-5.5-3.6c1.2-2.2,3.2-1.3,4.6-1.8.8-.2,1.2-.5.9-1s-.6-1.1-1.1-1.4c-1.4-.6-2.8-1-4.2-1.5.5-1.8,2.1-2,3.4-2.7.6-.3,2.1-.2,1.3-1.5-.4-.6-1.4-.9-2.4-1.4,2.3-2.5,5.6-2.8,9.3-4.9.5,1.6.2,3.7-.5,5.7-2.2,6.2-2,7.4,3.1,11.6.5.4,1.1.6,1.5,1s.7.9,1,1.4c-.3,2.6-2.9,2.9-4.4,4.3-3.3,3-3.7,5.5-1.3,9.6.5.8,1.2,1.3,1.7,2.1.8,1.3.3,2.3-.9,2.9-.5.3-1.2.2-1.8.3-6.9,1.6-7.9,2.9-7.9,9.7s.3,1.8.2,2.7c-.2,1.9-2.7,3.8-4.6,3.3-3.6-.9-7-2.1-11.1.5-3-1.8-2.7-4,0-6.5.4-1.2.2-2.1,0-3.6.3-1.4,1-1.8,2.2-1.2,1,1.1,2,1.7,2.4.7,1.2-2.4-1.4-4.4-.9-6.9,2.7,0,3.1,3.2,5.4,3.7,1.1.3,1.9-.3.7-.5s1.2-1.5,0-1.4c-.3-1.1-.4-1.7.1-2.7.6-.5.8-.6,1.7-1.3h0Z" class="AC"/><path d="M343.2,452.2c1.8-.6,3.2-.6,5.2-.6,2.9-2.2,5.4-3.4,9.2-2.1.8,1.8.9,3.2,1,5.3-.4.9-.7,1.1-.6,1.7.5,10.3.6,20.2.5,31-.8,1.4-1.6,1.7-3.1,1.8-6.7-2.3-13.1-3.4-19-7.4-1.1-1.4-1.5-2.5-1.9-4.2-.4-.8-.6-1.1-1-1.9-.3-1.3-.4-2.1-.2-3.5,3.7-.6,7.3-.6,11.1-.6,2.9-4.3,2.4-8.9-.8-14-1.1-1.9-1.4-3.3-.4-5.5h0Z" class="AG"/><path d="M250.2,486.3c-3.9,6.1-4,12.3-2.7,18.8,2.8,13.2,9.5,24.1,19.2,33.3,3.7,3.5,7.9,6.5,11.3,10.5-4.9,1.9-5.4,2.1-7.5.6-17.7-12.9-30-29-30.5-52,0-2.7,0-5.5.4-8.8,2.8-3,5.4-5,9.6-2.3h.2Z" class="AB"/><path d="M230.7,380.6c.4-3.7-2.4-5.1-4.2-7.1,2.2-1.8,3.6-4,3.5-7,0-5.1-1.9-7.8-6.9-9.2-1.1-.3-2.3-.2-3.3-1.1-.7-.7-.7-2.7.2-3,1.6-.7,3.3-1.4,5.5-2.3,1-.5,1.4-.7,2.5-.4,1.6.9,3.1.8,2.5,2.6-.8,2.2-.6,3.7,2.2,2.9,3.3-1,2.6.5,1.9,2.6-.8,2.4-.6,2.5,2.3,2.1,1.5-.2,2.3,0,2.1,1.6-.1.9-.4,1.7-.6,2.6-.2.9-.2,1.8.8,2.1,1,.3,1.5-.6,1.9-1.5.2-.5.7-.8,1.2-1.4,1.5,1.9.1,4,.4,5.9.1.9.2,2,1.3,1.9.7,0,1.4-.8,2.1-1.3.5-.4.8-.8,1.6-1.7.6,2.1,1,3.9,1.8,5.7.3.6,1.3,1,1.9,1.4.3-.8.6-1.7.8-2.5,0-.3,0-.6.2-1.5.3-1,.5-1.4,1-1.3.9,2.6,1.4,4.6,3.5,5.6,1.9-1.9.2-4.7,1.8-6.5,2.2,1.2,2.1,3.4,2.7,6,2,1.8,3.1,3.5,2.1,6.5-3.2-.5-5.9-.1-8.1,1.8-2.4,2.1-5.1,2.6-8.5,2.9.1-5-.8-9.1-6.2-10.9-3.8-1.2-6.5-.2-9,3.4-.4.8-.6,1.1-1.1,1.1h.1Z" fill="#c19851"/><path d="M333.2,402.6c.3-.8,1-.8,1.3-.6,1.6,2.2,3.4,1.5,5.6.6,1.6-.7,2.6-1.4,3.7-1.9,6-2.9,10.3-7.2,10.9-14.1.3-3.7,2.5-.7,4.1-1.3,1.6,5.2.7,10.4,0,16.2-.6.6-1,.5-1.3.6-9.3,3.4-16.6,9.8-23.8,16.3-1.2,1-1.3,2.7-1,4.9-6.3.6-12.6.4-19.8,0-2-4.7,1.3-5.1,4.6-6.4,3.8-2.1,7.5-1.2,11.1-1.7,3.2-.5,4.1-1.3,4.2-4.7.1-2.4,0-4.8.3-8h0Z" class="v"/><path d="M250.6,487c-2.9-1.1-5.6.4-9.1,1-.6-7.7.4-15.5-.7-24.1-.2-1.2-.4-1.6-.6-2.6l-.8-3.5c1.1-1.7,2.5-1.9,4.5-.9,2.3,4.9,2,9.3,1.2,13.8,0,.5.2,1.2.6,1.4,1.1.7,1.7-.2,2-1l3.8-9.9c1.4-1.2,2.6-1.4,4.6-.8-.8,4-2.5,7.6-4,11.2-.3.7-.1,1.9.3,2.5.8,1.3,2.1,1.1,3.2.4,2.4-1.3,4.7-2.8,7.1-4.2,3.2-1.8,6.4-3.6,10.8-4,2.9,0,5.3-.3,6.3,3-7.2,2.2-14.2,3.8-20.7,7.2-1.5.8-3.4,1.6-2,4.4.9.6,1.3.8,1.2,1.4-1.4,1-2.3,1.6-3.7,2.2-1.4.9-2.6.9-3.8,1.9q-.2.5-.1.5h0Z" fill="#d9b877"/><path d="M188.7,343.3c-3.5-1.8-3.9-6.4-8.1-7.7-1.1-.4-.9-2-.5-3.1.8-2.6,1.2-5.1-.4-8.2.4-3.9,2.7-6.4,4.7-9,2.2-3,3.2-5.8.9-9.2-.5-.7-.6-1.7-.8-2.6,0-.2.2-.6.2-.8.2-.7.7-.8,1.4-.5,2.2.9,3.2,3.8,6.8,3.7,4.4,3.2,3.7,7.2,3.1,11.9-.2,1.6-.3,2.6-.7,3.4-3.8,6.8-5.1,14.2-6.6,22.2h0Z" class="AF"/><path d="M343.4,326.7c-2.1,2.9-2.9,5.9-3.1,8.7-.6,8.5-4.3,15.9-7.1,24.3-1.2-1.2-1.3-3-1.1-4.8.3-4.2.4-8.4.7-12.6.5-7.1-.9-13.8-3.9-21-1-5.2-5-10.2,2.9-13.5.8-.3,1.4-1,1.7-1.3.8-.3,1.3-.3,2.2.1-.5,2-1.4,3.5,0,5.3,3.4,4.2,5.2,9.2,7.6,14.7h0Z" fill="#c9ab6f"/><path d="M370.8,284.2c8.2-.6,16.1-.8,24-.9,2.9,0,3.8,1,4,3.8.1,1.8,0,3.6,0,5.5l-.5,80v16.3c-.8,1.4-1.5,1.6-2.8,1.1-.4-10.7-.6-21-.3-31.3.7-19.7,1.3-39.5,1.1-59.2v-4.6c-.1-7.9-.3-8-8.3-8.3-5.2-.2-10.3-.5-16.2-.9-.9-.5-1.1-.8-1-1.5h0Z" class="x"/><path d="M269.8,495.5c2.3.9,6.3,0,3.8,4.1-.6,1,.3,1.4,1.2,1.6.8.2,1.9.4,2.2,1,.8,1.3-1.9,3.7,1.8,4.5,2.8.6-.4,3.7,1.1,5.3.3.3,1,.2,2.3.2,1.7.6,2,1.7,2.6,3.3.1.9.1,1.3.1,2.2l-.4,3.3c-.5,1.7-1.3,2.4-2.7,3.4l-1.7,2.8c-.7,1.1-1.8,1.5-3.1,1.1-1.4-.4-1.7-1.6-1.7-2.8s.5-1.7.7-2.6c.3-1.2.5-2.5-.6-3.3-1.6-1.1-2.6.2-3.7,1.3-.9,1-2.2,1.2-3.1,0-.4-.6-.5-1.7-.3-2.5.4-1.1,1.5-1.9,1.8-3,.4-1.2.2-2.4-1.6-2.1-1.2.2-2.4.4-3.5.3-1.5,0-2.4-2.3-1.4-3.4.6-.7,1.3-1.3,2.1-1.7,2.7-1.5,1.6-3.4-.1-5.5-1.1-3.8,0-6.4,4.1-7.6h.1Z" class="AI"/><path d="M177.8,518c2-.8,3.6-1.9,5.1-3.4,1.6-1.7,3.1-3.5,6-4.4,1.3,2.8,2,5.7,2.9,8.6,2.2,7.6,5.6,14.6,12.4,20.1.6,1.1.8,1.7.4,3.2-3.6.5-6.2-1.2-8.6-3-2.9-2.1-5.4-2.2-8.3-.2-.4.2-1.1,0-1.9-.2.4-.8.7-1.5,1.2-2,1.5-1.5,1.6-3.1.4-4.8-3.2-4.4-6.3-8.8-9.6-13.8h0Z" class="AN"/><path d="M317.1,416.6c0,2.9-3.4,3.1-4.8,6.1-3.8.8-7.3,1-11.7,1.3-1.1-.2-1.5-.3-2.3-.2-9.7.4-18.8.5-28.8.4-2.4-1.9-2.8-3.8-1.3-6.6,6.4-.8,12.4-1.1,18.4-1.2l30.5.2h0Z" fill="#d8b069"/><path d="M169.9,285.5c-11.5-.3-22.1.6-32.9-.4,1.1-2.2,2.7-1.7,4-1.7h100.4c0-.1,36.5.4,36.5.4.9,0,1.8.3,3.8.6-2.1.5-3.2.9-4.3.9l-26.4,1.4c-4.3.2-8.6.4-12.8-.2-7.9-1.2-15.8-1-23.7-.9-14.6,0-29.2,0-44.7-.1h0Z" class="v"/><path d="M280.2 470.3c-1.3-2.5-3.6-2.4-5.6-3.6 4.6-2.3 9.7-4.2 14.7-6.2 4.8-2 9.4-4.3 13-8.1a8.88 8.88 0 0 1 2.2-1.6c.4-.2 1.2 0 1.6.4s.6 1.2.4 1.6c-1.9 3.2-4.8 5.4-8.1 7-3.2 1.6-6.5 3.1-9.8 4.7-1.1.5-2.2 1-2.7 2.5.5 2.1 2.6 1.9 4.2 2.2 13.8 2.9 23 11.3 29.5 24-.4.9-.8 1.2-2 1-9-13.9-20.7-22-37.3-23.8h-.1zm-55 86.4c-11.9.7-23.5.7-35 .7h-34.5c-5.1 0-10-.5-16.4-1 7.7-2.8 39.1-3.5 84.9-2.1 1 .7 1.2 1.2 1 2.4h0z" class="x"/><path d="M187.9,480.1c-2.1,1.5-4.3,1.9-5.9,3.1-6.3,4.6-13.4,7.7-20.7,12-.6-1.1-.7-2.5-.6-4.6,4.2-13.4,13.6-20,26.4-23,.7,4.2.8,7.9.7,12.5h.1Z" class="AL"/><path d="M188,436.4c-5.5.9-10.2-1.2-15.2-2.5-2.9-.8-5.8-1.6-9.4-2.4-.7-3.2-.6-6.4-.3-10.3,5.4-.8,10,1.3,14.6,3.2,3,1.3,5.7,3.3,9.7,3.4.7,2.6.8,5.2.6,8.6h0Z" fill="#c19851"/><path d="M282.1 524.8c-.1-1.1.3-2.2.9-3.8-.4-1.2-.6-1.9 0-3.2.3-.5.4-.3.3-.3 1.3-1.7 2.8-3.5 4.6-.4.7 1.2 2.1 1.7 3.3.9 1.2 0 1.8 0 2.3-.7 1.9-3.7-1-10.3 7.6-9.3.3 1.4 0 2.6 1.1 3.5 1.5 1.4 3.4 2.5 5 3.8 1 .8 1.4 2 1 3.2-.4 1.1-1.2 2.1-2.6 2.2h-1.8c-2.5 0-3.9.7-3.9 3.6s-2.5 4.5-4 4c-4.6-1.6-5.6.3-6 4.3-.1 1.1-1.7 1.6-3 1.4-1.6-.3-2.9-1.4-3-2.9-.1-1.4.6-2.9.6-4.4s-.8-1.5-2.4-1.8h0z" class="AC"/><path d="M364.2 317.8c-1.1-3.7 1.1-7.4 1.2-12.2 6.1-6 13-6.8 20.4-3.9 2.7 1.1 4.5 3 5.3 5.9.8 3.1-.4 6.1-3.3 7.8-1.8 1-3.5.7-5-.6-1.4-1.2-1.4-2.8.1-4.8.5-.7 1.7-1.1 1.9-1.8.2-.6-.4-1.7-1-2.2-1.3-.9-2.9-.7-4.4-.2-6.2 2.2-11.3 5.8-15.2 12h0zm30.6 72.6c.8-.8 1.5-.8 2.7-.8.3 22.1 0 44.2-.4 66.9-.5 1.1-.9 1.4-1.6 1.1l-.6-67.3h-.1z" class="AF"/><path d="M205.6,487.3c1.6,0,4.2-2,3.7.9l-.7,5.4c-.3,4.5.5,7,1.8,6.1,2.1-1.5.9-3.8,1.2-5.7.4-2.4.5-4.8.7-7.2,0-.8.5-1.2,1.2-.8.5.3,1.1.7,1.1,1.2l.8,9c.3,2.8,1.1,5.4,5,5.6-.9,1.2.8,1.8,1.6,2.9,1.5,2.1,1.1,4.1-.8,5.4-2.7,1.8-5.8,1.6-7.1-.7-.4-.7-.4-1.7-.5-2.6-.1-2.1-1.3-2.4-3-2-.9.2-1.7.7-2.6.9-2.2.4-3.6-.7-3.4-2.7.1-1.5.7-2.9.3-5.5-1.5-3.8-1.3-6.5.5-10l.2-.2Z" class="w"/><path d="M306,442.2c-1.1,3.1-3.8,0-4.6,1.8-1.1,2.4-3.5.6-4.4,1.6-1.1,1.2-1,3.3-1.7,4.9-.6,1.2-1.8,1.5-3.1,1-2-.8-3.4-2.3-4.4-4.3-1-1.9-.7-3.3,1.7-3.9s2.9-1.5,2-3.7c-.6-1.6.2-2.1,1.7-1.5,3,1.1,3.8-.4,3.7-3,0-1.6.2-3.4,2.3-2,2.4,1.5,3.7.7,5.2-1.3,2.2-3,2.5.2,3.9,1.7,1.1.9,1.4,1.6,1.3,3-1.1,2.2-2.3,3.7-3.6,5.8h0Z" class="x"/><path d="M331.8,307.4c-3.7,2.9-2.7,7.5-3,12.4-1.8-1.4-3.4-3.6-5.2-5.6-3.8-4-8.3-6-13.9-5.3-1.4.2-2,1.3-1.2,2.6.4.8,1.3,1.3,1.8,2,.6.9.3,1.8-.5,2.3-2.6,1.5-6,0-6.6-2.6-.9-4.2,1.1-8,5.2-9.4,5.1-1.7,10.2-1.7,15.2.3s5,2.1,8.2,3.2h0Z" fill="#c39e5b"/><path d="M396.3,502.3c1.8,12.9.9,25.2.5,37.6l-.2,12.7c0,3.6-1.2,5-4.7,5.2-3.6.2-7.2.3-10.8,0-9-.3-17.9,2.2-27.6-.2-1.1-.4-1.4-.6-1.2-1.2,9.9-.5,19.3-.5,28.7-.7,3.3,0,6.7-.2,10-.6,2.3-.3,3.8-1.9,4-4.3.2-2.1,0-4.2,0-6.4v-41c.4-1.2.7-1.4,1.3-1.2h0Z" class="v"/><path d="M270.8,348.3c-7.7,5.9-15.2,5.6-22.8,1.9-4.9-2.3-6.1-4.6-5.7-10.1.1-1.2.3-2.4.7-3.6.1-.5.6-.9,1-1.3,1.5.7,2.1,2.1,2.7,3.5,2.7,5.9,8.2,9.3,14.3,8.7,1.1,0,2.4-.6,3.2-1.4,1.7-1.7,3.2-3.6,5.3-5.8,3.5,1.8,3.1,4.5,1.3,8.1h0Z" class="AC"/><path d="M263.5,383.4c0-2.4-.6-4.2-1.8-6.4,1.1-1.1,1.8-2,1.8-3.4v-6.1c2.7.8,2.3,3.8,4.2,4.8,2-1,.2-3.5,1.8-4.7l5.1,5.7c.7,2.4-1.5,4.1-.6,6.9.1,4-.4,7-3.9,8.8-1.1.6-1.6,2.4-2.7,4.4-.4-3.9-.4-7.5-4-10h.1Z" class="v"/><path d="M187.8,467.5c-11,4.9-19.2,12.6-26.4,22.2-.5-4-.5-8.4-.3-13.5,1-1,2-1.1,2.7-1.5,7.1-4.2,14.8-7.1,23.2-10.1.7.7.8,1.5.8,2.9Z" fill="#e4cfa5"/><path d="M326.2,526.8c3.2-.3,5.9,0,8,3,0,1.8-.5,3.1-1,4.9,0,1.1,0,1.7-.9,2.2-1.9-.7-3.1-1.3-4.2-.6-2.4,1.4-4.5,3.2-6.9,4.4-5.9,3-12,4.1-18.9.8-.7-1.4-.4-2.2,1-2.6,10.6,1.1,17.6-3.4,23-12.1h-.1Z" class="AE"/><path d="M249.1,324.3c-1.9-3.8-3.1-7.2-5.9-9.7-.4-.4-1.1-.9-1.2-1.3-.5-6.2-5-9-9.5-12-.2-.2-.4-.5-.5-.7-.3-.7-1.2-1.5-.2-2.2.4-.3,1.1-.3,1.6-.3s1.2.3,1.7.6c8.7,5.2,15.5,12.3,20.3,21.3.6,1.2.5,2.3-.8,3.8-1.8,1.4-3.3,1.6-5.5.7v-.2Z" class="AC"/><path d="M358.5,449c-2.7,2.1-5.3,2.9-8.8,2.6-.8-2.6,0-4.7,2.2-6.2,1-.7,1.8-1.7,1.5-3-.5-1.9-2.2-1.7-3.7-1.8l-7.1-.4c-.4,0-1-.7-1.1-1.1s.2-1.4.5-1.4c5.7-1.2,9.9-5.5,15.8-7.8.8,5.9.9,12.1.8,19.1h0Z" fill="#d5b278"/><path d="M302.2,507.7c-.3,4.2-3.4,1.6-5.2,2.6-1.1.6-1.1,1.1-.6,2,.3.5.8.9,1.2,1.3,1.3,1.2,1,1.9-.7,2.2-1.4.2-3.1,0-2.8,3q-4.6.2-5.2,3.1c-.3,1.7.2,3.6-1.3,5.3-1.9-3.1,0-6.4-.7-9.3-.4-1.7-1.5-1.3-3.3-.5-1.6-1.1-.9-2.5-.8-4.6,1.2-.5,2.4.6,3.9-1,1.6-3.6-1-6.6-.2-10.3.7-.9,1.3-1.2,2.6-1.9,3.1-.2,5.5-1,8.1,1l.4.4c.2,2.7,1,5.2,4.3,6.8h.3Z" class="z"/><path d="M196.6,318.1c-2.3-.9-2.9-2.7-2.9-4.8v-6.7c6-3.1,11.8-6.2,19.3-5,2.4,2.1,1.8,3.5-.5,5.2-6.8,2-12.1,5.1-15.8,11.2h-.1Z" class="AJ"/><path d="M230.3,444.2c-9.1-.3-12,1.2-15.5,8.7-2.2,4.8-3.7,9.6-1.5,14.9.5,1.2,0,2.5-1.4,2.8-1.6.4-2.2-.9-2.6-2-2.7-6.8-1.5-18.6,6-24,1.6-1.2,3.9-2,4.1-5.1,4.1-2.7,7.1,0,10.7,2.5.4,1,.5,1.4.1,2.3h0Z" class="x"/><path d="M231.2,471.5c-4.1-.2-7.4-.4-10.7-.9-2.5-.4-3.4-2.2-3-4.7.3-2.6,1.7-4.5,3.9-5.8s4.5-1.7,7-1.5c.9,0,1.8.3,1.9,1.4,0,.5-.5,1-.9,1.4-.7.6-1.6.9-2.2,1.5-.2.2-.1,1.4,0,1.5,1.1.4,2.4.4,3.5.8,4.1,1.1,4.3,2.4.4,6.4h.1Z" class="y"/><path d="M122.6,305.5c1-6.8-.5-12.9,1.2-18.2,1.5-.9,1.8-.7,1.8.2l.5,40.2c0,1.2-.4,2.4-.6,3.6,0,.2-.4.5-.6.5-.5-.2-1.3-.4-1.4-.7-.3-1.5-.6-3-.6-4.5l-.3-21h0Z" class="v"/><path d="M315,433.8c3.7-.4,5.4-2.4,7.5-3.5,1.9-1.1,4.6.7,4.4,2.9-.1,1.2-.4,2.4-1,3.4-1.4,2.4-1.8,4.3.7,6.2,1.1.9.6,2.5-.5,3-3.2,1.7-6.6,3.1-10.3,3.3-1,0-.6-1.3,0-2.6.9-1.8,1.2-3.2,2.7-4.7.4-.8,1.1-.7.8-.8-1.4,1.5-2.6,2.2-4.8,1.7-1.8-1.3-2.1-2.8-2.2-4.9.1-1,.2-1.3.6-2.2.5-.8.8-1.1,2.1-1.8h0Z" class="AA"/><path d="M298,500.4c-2.4.4-4.7.1-7.4-.7.5-1.6,1.5-2.6,2.7-3.9-1.8-.3-3.3-.3-4.7-.7-.9-.2-1.6-1.3-1.1-2.1,1.1-1.8,1.7-3-1.3-3.5-1.1-.2-1.9-1.6-1.2-2.9,1.3-2.3,4.4-3.6,6.9-3.2,1.9.3,2.5,2.1,1.5,4.9-1,2.7-.1,3.9,2.5,3.4,1.8-.3,3.4-1.1,5.2-1.3,1.3-.2,2.2,1,2.5,2.2.2.8,0,1.9-.5,2.5-1.4,1.7-4.9,1.2-5,5.2h-.1Z" class="AC"/><path d="M370.2,283.6c.9.1.8,1,.8,1.4-.9.7-1.8,1.3-2.6,1.2-12.1-1.3-24.2-.6-36.4-.7l-30.9-.5c-2.8,0-5.4.5-8,1.1-.4.1-1.1-.4-1.5-.7-.5-.3.5-1.7,1.3-1.7,3.9,0,7.9-.2,11.8-.2h65.4c0,.1.1.1.1.1ZM320.4,557c-11.6.5-22.7.7-33.9.8-3.6,0-7.2-.2-11.7-.5-1.4-.7-1.6-1.3-1.1-2.4,12.1-.4,23.9-.5,35.7-.4,3,0,5.9.9,9.7,1.5,1.1.3,1.4.5,1.3,1.1h0Z" class="v"/><path d="M271,348.8c-.7-2.4-.7-4.9-.8-8.3-.1-.8,0-.7,0-.7.3-.1.7-.3.8-1,1-5.3-1.1-9.9-1.4-15.3,5,1.7,7.4,5,8.1,9.3.9,6.2,0,12-6.6,15.9h-.1Z" class="AA"/><path d="M203.1,481.6q3.1-1.2,3,1.3c0,.8-.2,1.6,0,3,.3.5.4.4.4.4-2,3.1-.4,6.6-1.5,10.5-.4.6-.3.5-.3.5-.6,0-1.2,0-1.8-.1-3.4-.5-4.3-1.1-3.4-3.7,1-2.8.7-4.2-2.2-5.6-3.1-1.6-3.2-2.1-1.2-5.7,1.2-2.3,1.6-3.8-1.2-5.8.4-1.5,1.4-2,3.4-1.5,1.7,1.7,2.6,3.1,3.7,4.9-.1,1.1,0,1.6,1.1,1.8h0Z" class="w"/><path d="M204.7,543.3c-.4-1-.3-1.6-.1-3.1,3.6,0,7,1.7,10.8,0,1.3-.6,1.5-1.9.2-3.1-.6-.6-1.4-1.1-1.9-1.8-.3-.4-.3-1.2,0-1.7.8-1.8,4-3.2,6.3-2.6,1.9.5,3.1,1.8,3.3,3.9.3,3-.7,5.4-3.2,7.1-4.6,3.1-9.5,3.9-15.2,1.3h-.2Z" class="y"/><path d="M308.3,461.3c.2-2.9,3.8-3.1,3.1-5.8-.2-.9.2-1.8,1.1-2.2l10.3-3.2c.9-.2,1.7.5,2.1,1.4.5,1,0,1.7-.9,2.2-.8.5-1.6.8-2.5,1.2-1.4.6-1.3,1.4-1.2,2.8.4,3.3.1,3.7-3.1,3-3.6-.8-3.3,1-3.3,3.3s-1.1,1.2-2.3,2c-2.2-.9-3.5-2-3.4-4.7h0Z" class="AA"/><path d="M317.1,494.6c.2-.8.7-.8,1.8-.8,3.6,6,5.5,12.3,4.7,19.2-.4,3.4-1.4,6.4-3.5,9.1-1.6,2-3.7,3-4.3,2-1-1.7.3-2.9,1-4,3-5.3,2.9-11,2.3-16.7-.3-2.7-1.1-5.3-1.9-8.8h-.1Z" class="y"/><path d="M212.5,307.5c0-1.6.5-3.1,1.1-5.1,3-.8,5.3.9,7.3,2.7,3.9,3.6,3.4,11.3-.7,14.6-2.8,2.3-6.3,1.8-8.8-1.1-.8-1-1.1-2.3-.6-3.4.2-.5,1.6-.7,2.4-.6,2,.2,3.7,0,4.2-2.3.6-2.6-1-3.9-3.3-4.5-.3,0-.6-.1-1.6-.4h0Z" fill="#c39e5b"/><path d="M228.1,474.7c2.4,1,4.1,1.5,5.5,2.6.9.7,1,2.1-.2,3-.4.4-1.1.4-1.6.7-2.7,1.5-3,3.5-1,6,1.5,1.9,1.6,3.4,0,4.5-2.1,1.5-3.9,1-6.1-1.5-1.2-.4-1.5-.6-2.1-1-.5-.5-.7-.8-1.1-1.5-.3-.7-.4-1-.4-2.2.8-2,.4-3.2.1-4.3-.4-2,.5-2.7,2.4-2.5.9.1,1.9.4,2.6,0,.9-.4.8-1.3,0-2.7.2-.9.6-1.2,1.8-1.3v.2Z" class="w"/><path d="M333,476.1c.2-.8.9-.8,1.3-.7,1,.8,1.7,1.6,1.9,3.2,1.7,2.4,3.9,3.5,6.2,3.8,4.4.6,7.9,2.6,11.8,5.7.7.7.8,1,.6,1.7-4.3.6-8.1,0-11.8-1.3-2.8-1-5.5-2.3-9.4-2-.8-3.2-.8-6.4-.6-10.3h0Z" class="AA"/><path d="M175 301.4c-4.1 0-6.6-1.2-7.1-4.9-.3-1.9.5-3.6 2-4.8 2.2-1.7 5.5-1.4 8.4.5 3 2 3.6 5.9-.1 8-.8.4-1.7.7-3.2 1.1h0zm164.1-5.1c.7-3.6 2.4-5.4 5.5-5.5 2.3 0 3.9 1.1 5.2 2.9 2.3 3.3.6 7.5-3.4 8.1-3.8.6-6.3-1-7.2-5.5h-.1z" class="AF"/><path d="M374.8,486.3c-2.4-1.6-3.8-3.2-3-5.6.9-2.5,2.8-3.9,5.4-4.3.8-.1,1.8.2,2.5.6,2.4,1.5,3.3,5.2,1.8,8.1-1.4,2.7-3.7,2.8-6.7,1.2h0Z" class="AA"/><path d="M215.8,437.9c-1.3.8-2.5,1.2-3.6,1.4-8,.9-13.1,5.5-16.1,12.7-.3.8-.8,1.5-1.3,2.3-2.2-.7-1.5-2.4-1.4-3.6.5-4.1,2.8-7.2,6-9.7,3.9-3,8.3-4.8,13.7-5.9,1.5.7,2.5,1.2,2.7,2.8h0Z" class="x"/><path d="M199.4,474.8c-1.3.7-2.3.8-4.1,1-1.9-1.3-2.1-2.7-.7-3.8s3.1-1.7,4.6-2.5c1-1.9-.4-3-1.2-4.1-.9-1.4-1.5-2.7,0-3.9,1.9-1.3,4.8-.9,5.6.8.8,1.6,1.2,3.4,1.7,5.1.6,2,0,3.7-2,4.4-1.5.5-2.7,1.4-4,3.1h0Z" class="AE"/><path d="M143.4 539.2c.7.8.7 1.7.8 3.2-4.9 2.5-9.3 1.6-13-2.4-1.5-1.6-2-3.7-.8-5.8s2.9-3 5.3-2.5c.8.2 1.7.6 2.1 1.3.6.9-.3 1.6-1.1 2s-1.7.7-2.3 1.3c-.9.8-.4 1.8.4 2.2 2.5 1.4 5.2 1.4 8.6.7zm143.2-38.7c1 3.7 3.6 6.6 1.2 10.6-3.8-7.1-8-13.9-12.7-21.3-.2-.9 0-1.3.6-1.7 4.8 3.1 7.6 7.6 10.9 12.5h0z" class="w"/><path d="M244.4,456.6c-1.2.5-2.5.4-4.4.4-2.9-4.2-5-8.6-9.8-11.8-.4-.5,0-.9,0-1.1,1.2-1.7,2.8-1.6,4.9-1.8,5.6,3.1,6.9,8.7,9.2,14.3h.1Z" class="x"/><path d="M188.1,494.8c-3,.6-5.4,1.6-7.9,2.8-1.1.5-2.2,1-3.4,1.1-.7,0-1.9-.5-2.2-1-.3-.6,0-2,.4-2.4,3.7-3,7.6-5.8,12-8.8.8,2.4,1,5,1,8.3h0Z" class="AL"/><path d="M202.3,399.4c2.4-3,4.8-3.5,7.5-1.8,2.1,1.3,2.6,4.6,1.4,7.3-.6,1.4-1.8,2.5-3.5,2.3-3.5-.2-5.3-2.6-5.4-7.9h0Z" class="AF"/><path d="M310.6,399.5c2.3-3,4.7-3.9,7.4-1.9,2.1,1.6,2.6,3.9,1.9,6.5-.6,2.1-2.7,3.4-4.8,3-3.6-.7-4.5-2-4.5-7.6Z" fill="#bf9b57"/><path d="M231.2,545.3c-.3-1.7-.7-3.1-.3-4,1.3-3,4.1-4.2,6.4-3.1,2.2,1.1,3.4,4.4,2.5,7-.4,1.3-1.4,1.9-2.6,2.2-2.1.5-4.2.4-6-2h0Z" class="AJ"/><path d="M260.7 446.3c.7-5 2.4-9.5 4-14.1.4-1.2.8-2.4 2-2.8.8-.3 1.9-.6 2.6-.2.6.3 1.1 1.5 1 2.2-.1 1.2-.7 2.3-1.1 3.4-1.5 3.6-3 7.2-5 11.3-1.1.6-1.8.7-3.4.3h-.1zm122.6-79.8c-.6 1.1-.9 1.7-1.3 2.1-3.2 2.6-5.5 2.4-7.4-.6-1.7-2.7-1.2-5.9 1.1-7.2 2.5-1.4 5.3-.8 7.2 1.6.8 1 .7 2.3.4 4.1h0z" class="AC"/><path d="M235.4,441.8c-.4,2.3-1.9,2.6-4.3,2.2-4-1.7-7.3-3.3-11.3-5.1-1.4-.2-2.2-.3-3.6-.4-1.1-.9-1.7-1.6-2.4-2.9,8.1-2.2,14.6,1.5,21.5,6.2h.1Z" class="AM"/><path d="M182.6,544.9c-2,4.7-2.4,4.9-5.8,4.1-2.1-.5-4.4-1.2-4.5-3.7-.1-2.2,1.4-3.9,3.4-5,1.7-.9,3.9-1,5.5,1.5.5.8.9,1.6,1.4,3h0Z" class="y"/><path d="M259.4 446.2c1-.3 1.7-.1 3.3.2-.3 4.9-2.8 9.2-5.4 14-1.5.3-2.6.2-4.6.2.4-5.2 4.2-9.2 6.6-14.4h.1zm61.3 111.3c-.8-.2-.8-.9-.9-1.2 5.8-2.2 11.8-1.8 17.8-1.3l14.2 1.1c.8 0 .8.8.8 1.1-10.4.4-20.8.4-32 .3h.1z" class="x"/><path d="M267.9,416.7c.8,2.1.8,4,.8,6.6-3.7.8-7.5.9-12.1.9-.2-2.1.3-4,.9-6.6,3.3-.7,6.4-.9,10.4-.9h0Z" class="AA"/><path d="M275.3,403.4l-1.2,5.1c-.5,1.4-1.3,2.9-3.1,2.4s-1.8-2.2-1.7-3.7l.9-7.1c.3-1.8.9-3.9,3.1-3.6,2,.3,2.3,2.5,2.3,4.4s0,1.2-.3,2.5h0Z" class="x"/><path d="M143.5,483c1.8,1.3,2.7,2.4,2.3,4.1-.4,1.5-1.2,2.7-2.5,3.5-2.3,1.4-6.5,0-7.6-2.7-.5-1.2,0-2.3.7-3.3,1.7-2.2,4-2.3,7.1-1.7h0Z" class="AI"/><path d="M145.2,367.1c-2.7.5-4.8.8-6.5-.9-2.4-2.3-1.7-6.3,1.4-7.2,2-.6,4.2-1,5.9.8,2.1,2.3,2.3,4.7-.7,7.4h0Z" class="AA"/><path d="M341.1,543.2c3.4-1,6.1-1.2,7.3,2.2.8,2.1.3,4.1-1.5,5.6-1.6,1.3-4,1.3-5.8,0-2-1.4-2.6-3.3-1.8-6.1.2-.5.7-.9,1.7-1.7h0Z" class="y"/><path d="M396.8 502c-.1.8-.9.8-1.3.8-.5-14.7-.6-29.3-.6-44.8.2-.8 1.1-.8 1.5-.7.6 3 .9 6 .9 9l-.5 35.8h0zm-126.3-7.3c-2.1 2.5-4.3 4.1-5.3 7.5-1.4 1.4-2.4 2.7-4.1 2.4-.5 0-1.1-.5-1.4-.9-.2-.5-.3-1.4 0-1.7 1.1-1 2.4-1.8 3.5-2.7 1.5-1.2.4-1.7-.5-2.6-2.2-2.3-1.6-4.7 1.1-5.1 2.5-.4 5.5-1.5 6.7 3.1h0z" class="x"/><path d="M302.5 508.2c-3.1.4-5.8-.9-8.7-2-.1-2.8 3.2-2.2 4-4.7 2.4-.4 4.8-.4 7.1 0 2.7.4 3.3 3.1 1.2 5.2-.6.6-1.5.9-3.1 1.4-.8.1-.7.1-.6 0h.1zm.9 30.3c0 .9-.6 1.3-1.5 2.1-2.9-1-4.5-3.1-4.1-6.2.4-2.6 2.3-4.2 4.6-5.3 1.5-.7 2.9-.6 4.4.2 1.1.6 2 1.3 2 2.7s-1.3 1.8-2.5 1.8-1.2-.3-1.8-.3c-3.4 0-3.6.5-1.1 4.8v.2z" class="w"/><path d="M163.3,408.3c1.2-1.2,2.2-1.8,3.1-2.4,1.6-1,2.7-.7,3.4,1.1l.6,1.7c1,3.3.8,3.9-2.4,5.5-1,.5-2.2.7-4,1-.7-2-.8-4.1-.7-6.8h0Z" fill="#d5b26e"/><path d="M134,305.2c.7.1.8.6,1.2,2-.3,2.9-1.2,5.1,2.3,5.4.8,0,1.8.2,2.5.7,1.1.8,1,2.1.3,3.2-1.1,1.6-2.8,2.1-4.7,1.8-2-.3-3.2-1.6-3.8-3.4-1.2-3.4-.3-6.5,2.4-9.7h-.2Z" class="x"/><path d="M228.8,350.4c-.6.5-1,.4-2.1.3.8-4,.7-7.8-1.6-11.4-.4-.7-.7-1.8.2-2.4,1.3-.9,2.8-.8,4.3-.5,1.2.2,1.3,1.3,1,2-1.1,2.2.3,4.2.6,6.1.5,2.8-1.3,3.7-2.4,5.9ZM123.8,504v24.1c0,.2-.4.4-1,1-.8-10.6,0-20.8.6-30.9l.4,5.8h0Z" class="v"/><path d="M298.1,376.8c-3.1-.8-3.9-2.5-3.5-4.9.4-2.2,2.5-3.7,4.6-3.2,2.2.5,3.4,2.7,2.6,4.9-.5,1.5-1.6,2.5-3.7,3.2Z" class="AC"/><path d="M258.4,482.8c-.7,0-.9-.8-.8-1.2,6.3-2.7,11.7-1.3,16.7,3.7.2,1,0,1.4-.6,2.1-5-2.2-9.1-5.3-15.3-4.6h0ZM224.7,490c0,1.3,0,2.7.3,4.7-1.6,1.7-2.8.5-4.8-.5-1.3-2.3-1.9-4.6-2.2-7-.2-1.4.7-2.1,2.7-2.3.5-.3.5-.4.4-.4.8.8.9,1.9,1.5,3.4.3.4.3.3.2.3.4.4.9.8,1.6,1.6.3.3.3.2.2.2h.1Z" class="w"/><path d="M273.2,554.3c.8.7.8,1.2.7,2.2-4.4.7-8.8.9-13.9,1.1-1.3-.6-1.5-1.3-1.1-2.5,4.7-.6,9.1-.7,14.2-.8h0Z" class="x"/><path d="M240.5,381.1c1,1.4,1.7,2.4,1.7,3.5s-.5,2.3-1.7,2.8c-1.2.6-2.3.2-3.2-.6-1.2-1.1-1.6-2.4-.8-3.9.7-1.4,1.8-2.3,4-1.8Z" class="AA"/><path d="M309.3,357.4c-1.9.6-3,.5-4.1.3-1.9-.3-3.4-1.2-3.2-3.3.1-1,1-2.1,1.8-2.8.9-.8,2.2-.5,3.2,0,.3.1.5.3,1.2.9,1.1.8,1.6,1.3,2,2.5,0,.9,0,1.3-.9,2.3h0Z" class="x"/><path d="M226.3,364.7c.2,1.2.3,1.9,0,2.3-1.8,2.4-3.6,3-5.1,1.7-1.5-1.2-1.7-3.1-.5-4.8,1.3-2,2.9-1.5,4.6-.3.2.2.5.4,1,1.1h0Z" class="AA"/><path d="M124.3,554.4c3.3-.2,5.9,0,8.6,0,.3,0,.9.8.9,1.3s-.4,1.2-.8,1.3c-3,.7-5.9,1-8.6-.9-.4-.3-.4-1,0-1.9h0Z" class="z"/><path d="M225.6,557.5c-.8-.6-.8-1.1-.8-2.2,5.5-.8,11.1-.9,17.3-.9,1.4.6,1.7,1.3,1.2,2.6-5.9.5-11.4.6-17.8.5h.1Z" class="y"/><path d="M308.3,339.5c-1.3.2-3,.1-4.6-.4-1.1-.4-1.9-1.6-1.6-2.9.2-.7.9-1.5,1.6-2,1.2-.8,2.3-.2,3.1.7,1.1,1.1,1.5,2.5,1.5,4.6h0ZM243.8,557.6c-.8-.8-.8-1.4-.9-2.6,3.2-.6,6.4-.7,10.4-.6,1.3.8,1.5,1.4,1.1,2.6-3.5.5-6.7.6-10.7.6h0Z" class="x"/><path d="M309,356.7c-.3-1.1-.3-1.8-.2-3.1.8-.9,1.6-1.4,2.4-1.6,1.8-.5,2.9.4,3.1,2.1.4,3-.9,5.1-4.8,6-1.1-.3-1-1.1-1-1.5s.1-.3,0-.3c.6-.2.9-.6.4-1.6h.1Z" class="z"/><path d="M219.3,495c1.5-.5,3-.3,5.1.2,1.4.8,2.3,1.2,2.8,1.9,1.5,2,1,3.3-1.3,3.7-1.2.2-2.4.3-4.2.4-.7,0-.6.1-.5.2-1.5-1.5-1.8-3.5-1.9-6.3h0Z" class="y"/><path d="M229.8 380.6c.6-.3 1.1-.6 1.4-.6.2 3.6 1.2 7 2.6 11.5-4.8-3.3-6.2-6.3-4-10.9zm5-58c.6-1.3.7-2.2.9-3 .1-.5.4-1.2.8-1.4.2-.1 1 .2 1.3.6 2.6 3.3 2.3 5.4-1.3 8.1-1.1.8-2.1.6-3.1-.5-1.4-1.6-.7-2.6 1.4-3.7h0zm-111 95.1c.4 5.3.4 10.1.4 16.2-2.2-6.7-2.3-9.7-.4-16.2z" class="v"/><path d="M308.3 438.2c0-1.4.2-2.3.4-3.7 1.8-1.4 2.9-2.8 4.2-4.1s1.8-.8 2.5-.6c.6.3.7 1.5.9 2.9-.2.7 0 .6 0 .6-.4.4-.9.8-1.6 1.6l-.2.2c-.8.9-1.2 2-2.2 3.5-.8.6-1.1.8-2.1.9-.9-.3-1.3-.5-1.7-1.3h-.2zm-45.6-48.5v1.5c-1 2.4-2.8 2.9-5 1.7-1.5-.9-1.6-2.3-.7-3.8 1.3-2.1 2.5-2.1 5.8.5h0zm21.6-.7c-.7-1-2.1.4-3.4.1-1.5-.3-2.7-1.2-2.6-2.9 0-1.4 1.1-2 2.3-2.3 1.6-.3 2.9.3 3.3 2 .2.8 0 1.7.5 3.1h0z" class="AA"/><path d="M282.9,315.7c2.5-1.1,3.1,1.1,4.4,2,.8.5,1.2,1.2.9,2.2-.4,1.3-1.6,1.7-2.8,1.6-.7,0-1.9-.5-2.1-1.1-.5-1.3-.6-2.8-.5-4.7h.1Z" class="v"/><path d="M217.8,345.7c.3-1.4.5-2.4,1.1-2.8,1.7-1.2,3.4-.6,4.5.9.4.6.6,1.7.3,2.4-.7,1.5-2.2,1.9-3.7,1.5-.8-.2-1.5-.9-2.4-2h.2Z" class="AA"/><path d="M126,398.9c-.3,1.7-.6,2.8-1,3.8,0,.3-1.2.4-1.5.2-1.8-1.8-1.7-5.6.4-6.7,1.4-.7,1.7,1,2.1,2.7Z" class="z"/><path d="M218.8,290.8c3.9-.3,7.5,0,10.1,3.9.3.9.2,1.2-.5,1.7-3-1.2-5.5-2.5-8.6-3.9-.8-.5-1.1-.8-1.1-1.8h.1Z" class="AC"/><path d="M248.4,324.5c1.4-.6,2.8-.5,5-.5.7.3.7.6.7.9,0,1.8-.5,3.7-2.7,3.8-2.3.1-2.7-1.7-3-4.2h0Z" class="z"/><path d="M122.7 544.5V533c1.7 5 .9 8.3 1.1 11.6 0 .3 0 .6-.2.9-.3.8-.6.6-.8-1h0zm149-231.3c-.2.8-.5 1.1-.7 1.1-2.3-.1-4.1 2.8-6.6 1-.2-.1-.3-.6-.2-.8.7-2.3 2.7-2.7 7.5-1.3h0z" class="v"/><path d="M152.8,563.6c.6,1.1.6,2,.3,2.8-.8,1.8-1.9,2.1-3.5.7-.6-.6-1-1.5-1.5-2.8,1.3-.7,2.7-.8,4.7-.7Z" class="AH"/><path d="M310 439.2l3.8-4c1.8 2 .2 3.8-.3 6.9-.6 1.1-1 1.1-1.9.8-.8-.3-1.1-.3-2.3-1.4-.5-1.4-.2-1.7.7-2.3h0zm-185.8 15.4c1.8 1.2 1.8 2.7 1.3 4.1-.2.4-.9.9-1.3.8-.4 0-1.1-.5-1.3-.9-.5-1.5-.5-2.9 1.3-4.1h0zm0-98.8c1.8 1.2 1.8 2.7 1.3 4.1-.2.4-.9.8-1.3.8s-1.1-.5-1.3-.9c-.5-1.4-.5-2.9 1.3-4zm175.9-30.6c-.3-1-.5-1.9-.4-2.7.1-1.3-.2-3 1.7-3.4.2 0 .6 0 .8.1 1.8 1.5.9 3 0 4.5-.1.2-.4.4-1 .9-.4.2-.8.8-1.1.6z" class="z"/><path d="M308,465.7c-1.1,1.8-2.2,2.1-3.3,1.2-1.9-1.7-1.7-3,1.3-5.8,2.2.8,2.4,2.3,2,4.6h0Z" class="AA"/><path d="M229.3,327.7c.9.7,1.4,1.1,1.6,1.7.5,1.8-.4,3-2.2,3s-2.1-1.2-2.1-2.5.7-2.2,2.7-2.1h0Z" class="v"/><path d="M218.7,289.9c.4.8.4,1.2.5,2.1-1.3.2-2.7,0-4-.5-.7-.3-1.1-1.1-1.7-1.7.8-.3,1.5-.8,2.3-.8s1.7.4,2.9,1h0Z" class="z"/><path d="M287.3 361.4c-.8.9-1.4 1.4-2.3 2.3-.8-.1-1.5-.7-1.9-1.4-.4-1-1.2-2.5-.8-3 1.3-1.6 2.4.3 4.2.8.6.1.4.1.4 0 .2.2.3.5.4 1.2h0zm8.3-38c-2.1-.3-3.1-1.2-2.1-3 .4-.7 1.2-1.3 2.1-.8 1.8.9 1.5 2.2 0 3.8z" class="v"/><path d="M254.7,557.6c-.6-.8-.6-1.4-.6-2.5,1.3-.5,2.6-.6,4.6-.6.7.7.7,1.4.8,2.5-1.4.6-2.7.6-4.7.6h0Z" class="y"/><path d="M319.2,440.7c1.2,2.3-.8,3.3-2.5,5.1-.9-.2-1.3-.6-2.1-1.3-.7-.6-1-.9-.7-1.6.5-.4.5-.3.4-.3l4.9-1.8h0Z" class="z"/><path d="M354.6,490.7c-.2-.5,0-1.4.1-1.8.9-.4,1.7-.4,3.1-.4.7,1.3.8,2.5.8,4.4-1.7.3-3-.2-3.9-2.2h-.1Z" class="v"/><path d="M307.8 437.3c.4.3.3 1.1.4 1.5.5.5 1 .7 1 1.4-.4.6-.4.5-.3.5-.4.5-.8 1.1-1.6 1.8l-1.3.2c-.3-1.7-.4-3.4-.2-5 0-.9.8-1.3 2.1-.3h-.1zm.5 29.1c-.9-1.3-1.2-2.6-1.6-4.7.2-.8.5-.8 1.3-1 1.2 1.4 1.9 2.8 2.9 4.8-.5.7-1.3.8-2.5.9h0zm-87.2-136.2c-1.8-.9-1.4-2-.5-2.9.3-.3 1.3-.4 1.5-.2 1 1.1.5 2.1-1 3.1z" class="z"/><path d="M336.6 306.9c-.9.1-1.3 0-2.2-.4 0-.9.4-1.9 1.1-2.2 1.4-.8 1.9 0 1.1 2.7h0zm-55.6 4c-.6 1.3-1.4 1.6-2.2 1.1-.4-.3-.7-1.1-.5-1.5.7-1.3 1.7-1.3 2.6.4h.1zm4.9 14.6c.7-1.1 1.4-1.7 2.2-1.2.3.2.5 1.1.3 1.4-.7 1.1-1.6 1.4-2.5-.2h0z" class="v"/><path d="M226.6,273.1c2-.3,3.3.6,3.4,3.5-.8.6-1.6.5-2.9,0-.5-1.2-.5-2.1-.4-3.5h-.1Z" class="AH"/><path d="M253.7,416.2c-.5,1.5-1.6,1.5-3.1.7.6-1.5,1.7-1.4,3.1-.7Z" class="v"/><path d="M187.6,563.6c-.6,3-.9,3.1-3,.6.7-.6,1.5-.7,3-.6Z" class="AH"/><path d="M353.9,537.7c1,0,1.5,0,2.7.4.1.9-.4,1.7-1,2.2-.7.5-1.6,1-2.4,0-.6-.8-.3-1.6.7-2.7h0Z" class="x"/><path d="M280.2,481.7c1.7-.6,2.8-.5,3,.9.2,1.5-.9,1.9-2.1,1.9s-1.7-1-.9-2.8Z" class="AC"/><path d="M305.8,376.4c-.7-2-1.4-4.2.3-5.9,1.8,1.8,1.2,3.9-.3,5.9Z" class="v"/><path d="M308.7,340c1,0,2.4,0,2.7,1.2.1.5-.7,1.7-1.2,1.9-2.2.7-2.2-.6-1.6-2.7.1-.5.2-.4.1-.4ZM125.9,390.4c-1.8-.1-1.9-.4-1.6-1.8,0-.4.6-.6.9-.9.2.7.5,1.5.6,2.7h0Z" class="z"/><path d="M277.2 369.1c-.4.6-1 .7-2 .6-.5-.8-.9-2.1-.5-2.3 1.3-.9 1.7.5 2.5 1.7h0zm10.6 20.2c.4-1.2.5-1.9.8-2.4s.8-.8 1.2-1.2c.2.6.5 1.1.5 1.7s-.3 1.1-.9 2c-.8.4-1.3.5-1.6-.1z" class="v"/><path d="M313.9,442.2c.5.3.5,1.2.4,1.6-1.2.4-2.7,1.7-3.2-.8.8-.6,1.5-.8,2.8-.8h0Z" class="AA"/><path d="M130.6 284.6c-1.4-.4-.8 1.1-.9-.1 0-.1.5-.4.8-.4s.5.1.7.2c0 .1-.2.2-.5.4h-.1zm123.3 86.2c-.1.5-.7.6-1.1.6-.4-.9-.5-1.8-.4-2.6 0-.3.6-.6.9-.9.2.2.4.4.5.7.1.6.2 1.2.1 2.3h0zm31.1 18.6l2.6-.5c.5-.3 1 .3 1.2.6-1.5 2.8-2 2.9-3.5.3-.3-.3-.2-.2-.2-.3h-.1z" class="v"/><path d="M262.6,397c1.6,1.3.3,1.4-.4,1.5-.4,0-.9-.5-1.4-.7.4-.3.9-.6,1.7-.8h0Z" class="z"/><path d="M228.6,474.5c-.2.5-.7.6-1.8.9-1.2,0-1.7-.2-2.1-.4.2-.4.4-1.1.6-1.1,1,0,2,.2,3.4.7h0ZM123.5,485c-.5-.2-.9-.7-.8-1.2,0-.5.4-1,.7-1.4l.6,1.5c0,.2,0,.5-.4,1.1h0Z" class="v"/><path d="M123.7,466.2c-.2.3-.7.4-.7.4-.3-.8,0-1,.7-.4Z" class="z"/><path d="M333.7,433.7c1.4-.2,2.1.4.5,1.6-.5-.3-.6-.7-.5-1.6Z" class="AA"/><path d="M263.5,309c.5-.9,1-.8,1,0s-.5.9-1,0Z" class="z"/><path d="M251.1,486.8c-.1-1,.6-1.8,2.4-2.2-.2.6-1,1.3-2.4,2.2Z" class="AB"/><path d="M359.7,414.6c-1.2-.3-1.2-1.5-.5-3,.4.5.6,1.5.5,3Z" class="v"/><path d="M356.6,307c-.8,0-1.4-.2-1.7-.6-.5-.7-.8-1.7.2-2.1.5-.2,1.3.6,2.3,1.3,0,.7-.2.9-.7,1.4h0Z" class="AG"/><path d="M165.2,536.8c.6-.3,1-.2,1.1,0,.5.6,1.4,1.6,1.2,1.9-.7,1.2-1.9.7-3.2-.3,0-.8.2-1,.8-1.7h0Z" class="AK"/><path d="M332.7,535.7c.8,0,1.4.3,1.6.7.3.7.7,1.7.4,2.2-1,1.4-1.8.2-2.9-1,0-.8.2-1.1,1-1.8h-.1Z" class="AE"/><path d="M307.1,442.8c.1-.8.5-1.4,1.3-2.1.5.2.6.5.8,1.4-.5.8-.9,1.8-2.1.7h0Z" class="x"/><path d="M115.2,389.9c-.2-.3.5-.4.9-.4.4.3.5.6.5,1.4-.7.2-1-.1-1.4-1Z" class="AC"/><path d="M358.6 456.5c-.2.3-.8 0-.8 0s.1-.7.4-.8c.3 0 .5.6.4.9h0z" class="v"/><path d="M240,461.1c.7-.1,1,.4.9,1.5-.7,0-1-.4-.9-1.5Z" class="x"/><path d="M136.5 563.4c.4 0-.2.7-.2.7s-.8 0-.9-.3.7-.5 1.1-.4h0z" class="AH"/><path d="M275.2,488.9c-.8,0-1.2-.2-1.8-.9,0-.6.2-.9.9-1.6.9,0,1.3.3,1.9,1.1-.1.7-.4.9-1,1.4Z" class="w"/><path d="M298.3,424.1c0-.3.6-.5,1.4-.4-.1.3-.5.4-1.4.4Z" class="v"/><path d="M333.4 426.5c.7-.2.8.3.5 1-.2.2-.6-.6-.5-1zm-75.9-149.8c.3-.6.9-.5 1.7.2.3.3-.6.5-.6.5s-.8-.3-1.1-.7z" class="AA"/><path d="M229,295.7c.8.3,1.8,1.1,1.7,1.6-.2.8-1.2.9-2.4,0-.1-.7,0-1,.7-1.5h0Z" class="AC"/><path d="M309.1,360.4c-.4.7-1.1,1.6-.9-.4.2-.2.7.2.9.4Z" class="z"/><path d="M332.8 367.9c.3 0 .5.6.4 1.4-.3-.1-.4-.5-.4-1.4zm26.9 4.8c-.4.2-.7-.2-.8-.6 0-.2.1-.4.5-.9.4.2.4.5.4 1.5h-.1zm-54.1 4.3c-.2.5-.6 1-1 .9-.7 0-.7-.6 0-1.4.3-.2.8.2 1 .4h0zm27.6 3.7c.4-.2.7.2.8.6 0 .2 0 .4-.4.9-.4-.1-.5-.5-.4-1.5z" class="v"/><path d="M270.4,338.7c.4,0,.6.4.7.7,0,0-.3.2-.8.4-.3,0-.1-.8.1-1.1h0Z" class="AC"/><path d="M343,451.6c.7,1.3.6,2.7.6,4.7-2.1.6-4.1.6-6.2.5-.9,0-1.6-.6-1.8-1.6-.3-1.4.5-2.4,1.6-2.8,1.6-.5,3.4-.6,5.8-.9h0Z" fill="#d5b278"/><path d="M339.8,402.4c0,.9-.7,1.9-1.6,2.5-1.8,1.2-3.1.7-3.5-2.1,1.5-.5,2.9-.5,5.1-.3h0Z" class="AG"/><path d="M291.3 354c.8.3 1.8 1.3 1.6 1.6-.4.7-1.4.8-2.4-.2 0-.6.2-.9.8-1.4zm-3.6 7.7c-.5.1-.7-.8-.7-1.2 1.8-1.1 1.5 0 .7 1.2z" class="AD"/><path d="M336.6,478.8c-.9-.5-1.4-1.4-1.9-2.8,1.6-.1,3.4,0,1.9,2.8Z" fill="#d4a961"/><path d="M282.7 517.2c.5.8.5 1.5.4 2.7-2.2 0-1.7-1.4-.4-2.7zm11.5 2.1c1.4 0 2 1.1 2.7 2.1.2.2.2.5.3.8-.5 0-1.3.5-1.6.3-.6-.5-1.1-1.3-1.6-2.5 0-.5.1-.6.2-.7h0z" class="z"/><path d="M205.3,497.2c-1.1-3.2-1.2-6.7.6-10.5.4,3.1.2,6.7-.6,10.5Z" class="AD"/><path d="M319.8 440.7h.2-.2zm-5-5.4c-.2-.6.1-1.2.9-1.9.2.5 0 1.2-.9 1.9z" class="z"/><path d="M203.2 481.2c0 1.1-.2 2-.6 2.8-.2.5-.7.9-1 1.4-.2-.5-.7-1-.7-1.5 0-.9.3-1.7.9-3 .3-.5 1 .1 1.4.4h0zm20.2 6.5c-1.8.1-2.3-1-2.6-2.7 2.1-.7 2.5.8 2.6 2.7zm1.4 1.8c-.6.3-1.2 0-1.9-.8.8-1 1.4-.8 1.9.8zm83.5-132.6c.7-.1 1 .2 1.2.6 0 0-.2.4-.7.7-.5-.2-.7-.5-.6-1.3h.1z" class="AD"/><path d="M309.3,440.7c-.5,0-1-.7-1-1.1.4-.5.8-.5,1.7-.6.3.5,0,1.1-.7,1.7Z" class="x"/><path d="M435.8 544.8c.4-2.1.5-3.4.5-5.4-3.4-11.9-3.9-23.3-3.5-35.8.7-3.1 1-5.5 2.8-8.2.6-5.6.7-10.6.6-16.3-.7-1.6-.9-2.4-.5-3.9.4-4.3.5-8.1.4-12.6-.8-1.6-1.4-2.4-2.1-3.9-.4-2.2-.4-3.7-.8-6-.5-4.3-.2-7.9-.5-12.3 0-1.3-.1-1.9-.2-3.3.3-10 0-19.3.2-28.5 0-3.3.2-6.6 2.7-10.1.6-3.9.8-7.1.7-11-1.8-.6-2.4-1.3-1.2-3.1 1-17 1.1-33.9 1-51.6-5.1-7.3-2.9-14.9-3.3-22-.2-4.5-.2-9.1.3-14.5.3-1.6.4-3.2.5-4.8 0-2.4-.3-4 0-6.4.2-1.3.3-1.8.8-3.1 3.8-6.4 9-6 15.2-4.5 4.5-.4 8.2-.3 12.7 0 15.4-.7 30-.7 45.4 0 3.6.3 6.3-.5 9.9.1 3 .4 5.1.5 8.1-.1 10-.5 19.1-.5 29.1 0 2.3.4 3.9.3 6.2.3 2.3.1 3.7-.1 6-.3h3c3.3 0 5.8 0 9 .5h4.7c19.9-1.9 39.1-.5 59.1-.8 2.5.5 4.1.8 6.7.8s3.1 0 5.1-.2c23 .9 45.3 0 68.2 3.1 3.1 2.5 3.8 5.3 3.9 9.1-.2 3.1.5 5.3 0 8.3-.3 4.1 1 7.3 0 11.3 1.1 8.4.4 15.9-.2 24.2.7 7.6 1.4 14.3 1.6 22 0 1.8 0 2.9-.3 4.7-1.2 8.6 0 16.5-1.1 25.1.2 4 .8 7.2 0 11.3v6.7c1.3 35.7.5 70.6.3 106.3-.4 1.9-.5 3.1-.6 5v13.2c1 11 1.3 21.2.2 31.5-.8 7.9-5.1 11-12.3 11.6-6.7.5-13.2-.7-20.6-2.1-7.1.4-13.3.9-20.3 0-7 .7-13.2.9-20.3 0-11.6 1-22.4.8-34 0-3.7-.2-6.7.3-9.9-2.1-3.3-.6-5.9-.8-9.2-.8-1.1.3-1.4.6-2.2.5-1-.3-1.4-.3-2.5 0 .9.6 1.7 1.5.5 2.5-1.5 1.3-2.6 0-3.3-2 .2-.8-.5-1.1-.8-1-1.8 1.2-3.5.5-5.7 1.1-6.7 2.7-12.5 2.9-18.9-.7-2-.7-3.4-.8-5.5-.8-2.5 1.7-4.5 2.1-7.3.6-8-.6-15.4-.8-23.6-.7-5.9 4.8-12.1 3.6-18.9 3.3-1.9-.3-2.9-.3-4.8-.4-2.4 0-4 .3-6.4 0-5.2.7-9.5.9-14-2.4-5-1.6-9.4-.9-14.5-.9-11.8 3.4-22.7 4.9-33.2-3.1-.3-.8-1.1-1.1-1.2-.9-.7-1.4.4-3.2-.7-5.4 0-1.7 0-2.8-.3-4.3-1.5-2.4-.9-4.4-.6-7.2v.3z" class="AD"/><path d="M435.6 474.8c.6.7.8 1.6.7 3-3.3-.5-3.5-1-.7-3zm.8 26.6c-2-.9-1.9-3.1-1.9-5.9s.8-.7 1.3-.7c.6 1.9.7 3.9.6 6.6z" class="AE"/><path d="M587 567.9c-.8 0-.8-.7-.8-1.1 1.2-.5 2.5-.6 4.3-.5-.5.6-1.5 1-3.4 1.6h0zm10.3-1.2c0-.6.5-.7 1.3-.4 0 .6-.5.8-1.3.4z" class="AM"/><path d="M435.7,544.6c.5,1.5.7,3.5.7,6.2-2.2-1.2-2.2-3.4-.7-6.2Z" fill="#e0be80"/><path d="M436.6,556.7c1.7.4,1.3,2.4,1.1,4.7-.7-.9-.9-2.3-1.1-4.7Z" fill="#e9d096"/><path d="M503.4,327.5l7.9-3.7c.6-.3,1.8.3,2.4.8.7.6.7,1.5,0,2.3-3.4,3.4-6.7,7-10.2,10.3-7.7,7-12,15.8-13.8,25.9-.2,1.2-.2,2.4-.6,3.6-3,9.9-.1,18.4,6.1,26.9.2,4.1-2.5,5.2-5.1,5.5-11.4,1.1-22.8,2.2-34-4.1-1.3-5.9-.8-11,.3-16.1,3.4-14.9,7.9-29.3,19.1-41.2,9.4-3.7,18.5-6.7,28.1-10l-.2-.2Z" fill="#e1c99b"/><path d="M549.2,402.2c5.7-2.7,11.2-2.6,16.6-3.3,12.3-1.7,24.7-2.9,37.8-4.2,1.1.2,1.5.3,2.3.2,1.8-.4,3.2-.5,5.2-.6,7.3,1.2,13.9,1.9,20.5,2.7,3.7.5,7.2,1.3,10,5.1-.2,5.4-1.7,10.9,6.7,9.2,2.2-.4,4.2.8,4.8,3.2.6,2.7-.7,4.7-2.9,6.1-3.2,2.2-7,2.5-10.5,1.7-5-1.2-10.2-1.4-15.6-3.6-4.5-2.6-8.2-5.4-13.7-3.1-1.5.3-2.3.3-3.7-.1-1.9-1.1-2.4-2.7-3.5-3.6-5.8-4.8-8.1-4.3-12,3.3-2.2,3.1-5.2,4.3-7.6,6-3,2.1-7.1,4.2-9.9.6-3.5-4.4,2.1-5.9,4.4-9.2,1.3-2.8,3.7-4.6,3.6-7.9-4,1.7-3.2,5.4-5.1,8.4-2.2,2.7-4.6,3.9-7.5,3.9s-6.7.5-5.8,6.1c.6,4-3.3,4.5-6.4,4-5.3-.8-10.7-1.3-16.1-4.2-3.2-9.4,3.2-14.4,8.6-20.5l-.2-.2Z" fill="#ddbf84"/><path d="M622,415.3c6.3,1.7,11.9,3.1,17.6,4.2,4.3.8,8.6.8,12-2.6.6-.6,1.2-1.4.6-2.4-.5-.8-1.1-1.6-2.1-1.4-2.1.4-4.1,1.1-6.2,1.5-4.7.8-7.5-2.6-5.8-7.3.4-1.1,1.3-2,2.5-3.5,5.8-8.1,12.1-4.4,19-1.6,3.4,2.1,5.7,4.1,7.7,7.6,2.7,10.1.8,15.1-7.1,19.5-7.1,3.9-14.6,5.5-23.4,4.2-9.7-1.6-18.8-2.5-27.7-4.4-10-2.2-18.2,2.8-27.7,5.6-1.4-.2-2.1-.2-3.4-.2-1.2-.3-1.7-.8-1.9-2,.3-1.1.3-1.5-.2-1.9-.2.6-.5,1-1.6,1.4-2.7,1-5.5-3.7-7.7,1.2-.8,1.7-4.6.4-6.7-.8-7.8-4.7-16.2-4.6-24.5-2.4-6.8,1.8-13.8,1.4-20.6,2.9-7.5,1.7-12.9-1.9-15-9,8.9-2.9,18,.6,27.2-3,4.6-.6,8.6-1.5,13,.7,6.8,1.2,13.3.6,19.3,3.2.6.2,2-.3,2.3-.9.5-1.1,0-2.3-.9-3.3-1.2-1.2-2.8-.8-4.2-1.2-.4-.1-.9-.8-.9-1.3s.3-1.2.7-1.5c2.7-1.5,5.6-2.1,8.6-2.5,3-.3,6-.6,9.6-1.3,1.8-1.6,3.2-1.7,5.3-.6.8,1.9,1.7,3.6-.4,4.2-1.7.5-3.6.4-4.8,2-.7.9-1.1,2.1-.3,3.3.6.9,1.5.7,2.3.3,4.1-2.3,8.2-4.7,12.8-7.5,5.1-4.4,10.1-4.6,16.1-1.3,1.6.6,2.4.8,3.8.8,4.6-2.6,8.3-.6,12.7,1.1v.2Z" class="z"/><path d="M703.2,298.6c2.1,5.6.9,10.5-1.9,15.1-1.9,3.1-2.5,5.8-.6,9.3,1.3,2.3-1.5,5.1-3.9,3.8-6.1-3.4-10.3.3-14.8,3.2-1.2.8-1.1,2.2-.2,3.1,2.7,2.9,5.7,5.5,8.2,8.5,2.3,2.7,5.6-1.4,7.2.9,1.3,1.8-2.6,4.1-.6,6.7.7,1,1.6,1.9,2.1,2.9,2.3,4.2,1.4,10.9-1.7,14.4-2.4,2.6-6.5,2.6-8.8-.2-.9-1.2-1.6-2.8-.5-4.1,1.4-1.7,2.6-.6,3.7.5.7.7,1.6,1,2.3.2.5-.6.7-1.6.7-2.5,0-2.3-1.4-3.9-2.8-5.6-3.1-3.8-7.2-6.5-11.4-8.9-18.6-10.4-37.5-19.8-58.1-27.6,0-3.8,1.7-6.3,5.6-7.9,8,1.7,15.3,3.6,22.7,5.5l6.2,1.5c12,3.2,23.5,1.5,35.2-4.1.7-.2,1.1.4.9,0-.2-.3,0-.8.4-.9,3.1.6,2.9-2.1,4.3-3.8,1.3-2.9,2.8-5.2,2.4-9.2,1.2-1.5,2-1.5,3.4-1v.2ZM503.4,327.1c-1.1,3.9-4.9,5.1-8,6.4-3.1,1.4-5.8,4.1-10.1,3.1-2.4-.6-5.2,1.2-8.8.8,13.4-17.2,31.3-28.6,52.7-34.5,14.9-4.1,30-4.6,45.2-3.2,14.2,1.3,28.2,3.6,42.1,6.9,3.1,4,.8,6.1-2.5,8.6-8.1-.6-15.3-3.2-22.8-3.9-19.4-1.6-38.7-1.3-57.6,4.2-2,.6-4,1.4-7,.6-4-3.8-7.7-1.4-11.9-1-4.8,1.9-8.6,4.2-11.6,7.7-1,1.2-1.6,2.5.1,4.3h.2Z" class="AB"/><path d="M528.1,423.2c-9.2,3.9-17.8,4.7-27.4-.3-1.4-3.9,1.1-4.7,3.3-5.7,1.7-.8,3.7-1.4,3-3.8-.6-2.3-2.7-3.2-4.9-3.5-6.6-1.1-11.8,3.6-11.9,10.3,0,2.8,1.6,5.2,1.7,8.7,0,5.3,1.8,10.2-2.2,14.9-5.2-.7-8.9-3.1-12.3-6.2-9.6-8.5-17.4-18.3-20.8-31.7,1.5-2.2,3.3-3.7,5.4-3.7,14.7,0,29.4-3.1,45-1.2,6.5-.4,11.9,1.9,18.3,2.6,7,5.7,7.1,12,2.8,19.5h0Z" fill="#d9b877"/><path d="M699.4,437.6c4.9,6.8,6.6,14,6.3,21.8,0,2.1,0,4.2-.2,7.2-8.5,15.1-14,30.6-22.1,45.7-3,4.8-7.2,7.1-11.2,9.7-3.2,2.1-6.6,4-10.6,6.1-5.4-8.3.5-14.7,3.7-22.4.2-.7.8-.2.6-.5,1.6.4,1.4-1.2,2.1-2.6,3.5-5.9,6.7-11.2,9.1-17,1.7-4.2,2.8-8.5,2.4-13.8,2-14.5,8.1-25.9,19.8-34.1h.1Z" fill="#e0c695"/><path d="M699.9,437.2c-2.8,4.5-5.8,8.2-8.7,12.1-.7,1-1.5,1.9-2.1,3l-9,18.3c-1-1.9-1.6-4.2-2.1-6.6-2.1-10-7.1-17.8-16.6-23.2-2.9-4.1-.4-6.8,1.4-9.5,4.6-7,11.1-12.9,13-21.5.2-1.1,1.8-1.6,3.6-1.4,9.2,6.2,15.7,13.8,18.7,24,.4,1.4,1.1,2.8,1.8,4.8h0Z" fill="#debb7b"/><path d="M595.5,356.8c-8.3,3.9-13.2,10.1-16.6,17.8l-3.5,8.1c-2.7,2.8-5.3,3.2-8.8,1.2-4.2-6.8-7-13.6-12.9-18.3-1.7-1.4-.6-2.5,1.5-2.3,1,.1,1.9-.4,1.7-1.4-.3-1.5-.7-3-1.4-4.3-7.9-15.1-18.6-27.6-34.4-35-1.7-.8-4.5-.6-4.4-4.3,2.9-3.4,5.6-3.1,8.8.1,6,3.3,10.4,7.6,15.6,10.7,5.4,3.3,8.5,7.8,11.7,13,6.6,11.1,11.3,22.8,14.7,35.1.6,2.3,2.3,2.7,4.1,1.1,1.1-1,2.6-2,3-3.3,4.1-12.4,13.9-21.2,19.8-32.5.6-1.1,1.3-2.1,2.4-3.6,3.1,1.1,3.4,3.6,2.7,7.1-1.4,2.3-2.6,3.8-4.2,5.7-.7,2,.6,3.1.4,5.1h-.2Z" class="AN"/><path d="M458.3,479.9c.9,6.2,3.8,10.9,7.6,14.9,8.2,8.7,17.4,16.1,28.7,20.6,2.4,1,5.4,1.4,6.7,4.2-1.5,2.3-5.6-1-5.7,2.1,0,2.7,3.7,2.5,5.8,3.5,2.4,1.2,5.1,1.9,7.8,2.6,7.4,2.2,7.4,2.1,14.5-1.2,1.7,2.3,2.5,4.3,1,7.3-9.5-.6-18.5-1.7-27.4-3.1-6.9-1.1-13.8-1.4-21.6-.8-3.5-2.2-3.5-4.9-1.6-8.5,2.9-1.1,5.2-1.5,7.4-1.9.6-2-.7-2.9-1.9-3.7-2.7-1.9-5.5-3.6-8.2-5.6-3.2-2.3-6.3-3.4-10.1-1.3-1,.6-2.5.6-3.1-.7-.3-.6.1-2,.7-2.4,2.6-2,2.8-3.9.9-6.8-3.6-5.4-5.8-11.3-3.9-18.6.8-.8,1.2-1,2.3-.8v.2Z" fill="#d7b57a"/><path d="M650.9,532.7c-11.5,6.9-23.5,9.7-35.8,11.3-5.4.7-10.8.5-17.1.6-3.3-3.1-3.9-6.2-1.3-10.2,8.7-1.6,16.7-2.4,24.7-4.3,9.7-2.4,19.1-5.6,28.2-10.9,4.7,3.9,4.4,8.3,1.3,13.7v-.2Z" fill="#e0c695"/><path d="M580.6,435.2c6.9-8.3,15.5-11,25.4-9.8,9.6,1.1,19.1,2.8,29.3,4.5,2.1,2.6,1.9,4.6-.8,6.7-2.7.6-4.8,1.1-6.9,1.2-14,.4-27.8,2.2-41.5,5.1-4.9,1-5.4.5-5.6-5,0-.6.2-1.2.3-2.6h-.2Z" fill="#ddc290"/><path d="M564.7,442.7c-.8.1-.9-.4-.7-1.3-8.3-12.2-20.4-9.4-32-7.9-7.5,1-15,2.2-22.5,1.9-7.8-.3-13.9-3.9-18.2-10.3-3.3-5-1.3-11.6,3.9-13.8,2.9-1.2,6.3-1.7,8.3,1.2,1.9,2.7-1.1,4.1-2.8,5.7-1.2,1.1-1.6,2.5-.7,4.7.5.6.4.5.5.4-1.4.6-1.6,1.6-.6,2.7,3.7,3.7,8.4,4.7,13.4,4.4,5.4-.3,10.8-1.1,16.2-1.8,4.2-.5,8.5-.9,12.5-2,6.3-1.6,11.9,0,17.5,2.8s4.2,3.6,7.5,3c.8-3.3-1.1-6.5-.9-9.7,0-.9,0-1.8.2-2.7,0-.4.8-1,1.2-1s1.4.3,1.4.6c.5,2.3.9,4.7,1.3,7,.4,1.8.6,3.6,3.3,4.2,1.3-.3,2.1-.5,3.7,0,.7,1.4.5,2,.3,3.2-1.5,7-.5,13.2,1.7,19.4,1.2,3.4,2.7,6.8,4.3,10.8-.3,1.1-.9,1.6-2.4,1.8-5.2-4.9-7.2-10.6-9.7-16.1-1.1-2.5-1.7-5.2-3.6-7.3-.8-.9-1.6-.6-3,.1h0Z" class="w"/><path d="M646.7,303.5c6.5-4.5,12.7-8.7,21.1-10,3.8-1.6,6.9-3.2,11-.5,1.9,1.9.9,3,0,3.4-3.9,1.6-7.9,3-11.9,4.3-2.9.9-5.8,1.6-9.3,2.9-.9.8-1,1.2-.8,1.4s.4.4,1,.4c3.2,0,5.9-.2,8.6,0,3.1.3,5.9,1.5,7.3,4.6.3.8.5,1.9,0,2.6-.3.6-1.5,1-2.3.9-1.8-.3-3.5-.9-5.2-1.5-4.4-1.5-8.7-2.5-13.3-1.2-3.4,1-6.6-.5-9.8-1.2-3.4-.7-6.3-1.8-5.6-6.5.5-3.6-2.1-5.3-5.3-6.2-1.4-.4-1.4-1.9-.4-2.7,4.8-3.6,8.3-2.6,12.4.4,1.9,1.4,1.6,3.8,1.1,6.5.3,1.2.6,1.8,1.3,2.2v.2Z" class="y"/><path d="M634.5,437.1c-.2-2,.5-3.9,1.2-6.3,8.4,1,16.2-.5,23.6-4.6,2.7-1.5,4.9-3.4,6.2-6.3,1.2-2.7.8-5.3-.2-8.5,1.2-2.5,2.2-4.5,3.1-7.2.5-.8.8-1.1,1.6-1.7,3.8.9,6.7,2.8,9.7,5.6-1.3,1.4-3.9,2.7-2.9,4.2,2.1,3.6,0,5.2-1.8,7.7-4.7,6.3-10.1,12-13.8,19.7-8.5-1.8-17.1-2.5-26.6-2.6h0Z" fill="#ddbe87"/><path d="M716.5,558.8c-2.9,4-6.3,3.9-9.6,3.8l-22.8-.8-26.4-.8c-5.2,0-10.3,0-15.4,1.1-1.8.4-3.6.5-5.4.5-20.1,0-40.2,0-60.9-1.5-1-.6-1.4-.8-1.2-1.5,4.4-.5,8.4-.7,12.3-.7l120.4-.2c2.3,0,4.9.8,7.4-1.8,1.1,0,1.6.5,1.8,2.1l-.2-.2Z" class="x"/><path d="M507.4,400.9c-4.7,1.3-9.8,1.8-14.8,3.1-4.2,1.1-8.4,1.2-12.6,1.2h-22.6c-2-3-2.4-6.3-2.3-10.3,10.7.7,21.3,1.7,31.9,1.3,2.4,0,4.9.3,7.7-1.6,4.5,1.6,8.4,3.7,12.6,6.3h0Z" class="AA"/><path d="M670.9,290.8l-77.1-1.3c-7.6,0-15.1-.4-23.4-1-1-.6-1.4-.8-1.2-1.4,14.5-.4,28.5-.7,42.5-.5l90.4,1.5c1.5,0,3,.1,5.8.3-2.5.7-.5-.2-1.2.8-.2.2-.5.4-.8.5-1.5.1-3,.2-4.5.2l-20.9.5c-3.4,1.6-6.1,1.6-9.6.4Z" class="x"/><path d="M670.1,401.7c.3.9.3,1.3.2,2.4-3.2,4.9-6.3.8-10.1.6-6.2-2.4-11.6-5.1-18.4-1.7-4.3-2.9-8.7-3.2-13.2-3.4-5.6-.3-11.2-.9-16.4-4.8.8-1,1.9-1.7,3-1.7,12.4-.8,24.7-1.1,37,1.3,6.3,1.2,12.2,3.3,17.9,7.3h0Z" class="AA"/><path d="M479.7,315.9l3.1-2.9c.4-.4.6-1.1.5-1.6s-.8-1.1-1.2-1.1c-2.1-.1-4.2,0-6.4,0s-6.1.2-9.1-.2c-6.5-.8-11.2-4.3-13.6-10.6-.2-.5-.2-1.2,0-1.8.1-.5.5-1,1-1.8,9,5.3,17.5,12.2,29,10.5.2-2.4-1.5-3.5-2.3-5.1-1-2.2-.7-4.2.9-5.9.5-.6,1.5-1,2.3-1.1,1.1-.2,1.8.8,1.8,1.6.1,6.5,5.4,8,9.8,10.1,2.1,1,4.8.9,6,3.4-1.4,2.4-3.9,2.7-6.3,3.1-4.8.7-9.5,2.1-14.3,4.9-.9-.2-1.2-.6-1.1-1.5h0Z" class="y"/><path d="M494.7 545c-2.8 1.5-4.8 3.2-6.9 5s-4.3 3.5-6.9 4.4c-1.2.4-2.5.7-3.4-.3-1.6-1.7.3-2.5 1.2-3.5 1-1 2.6-1.7 2.4-3.8l-6.6-2.1c-2.5-1-3.7-3.1-3.4-5.8 0-.8.5-1.8 1.1-2.3.7-.6 1.7-.4 2.4.2s1.4 1.2 2 1.9c2.8 2.8 6 2.7 9.3 1.3 2.2-.9 4.4-2.1 6.5-3.2 1.6-.8 3.2-1.7 5.1-1.8 3.4 0 4.7.9 4.7 4v2.7c.7 3.6 1.1 3.9 5.6 4.3h1.8c.5 0 1 .6 1.1 1 0 .5-.2 1.3-.6 1.6-4.9 4.1-8.4 4-12.5-.5-.8-.9-1.6-1.8-3.1-3.1h.2z" class="AJ"/><path d="M528.3,423.8c-.8-6.2.3-12.5-2.2-19.3,7.3-1.5,14.7-2.2,22.8-3,.8,2.5.3,4.8-1.5,6.7-3.4,3.5-5.4,7.8-6.8,13.2-3.9,1.3-7.8,1.8-12.4,2.4h.1Z" class="AK"/><path d="M596.4,533.6c.8,3.2.7,6.2.6,10-10.5,1.5-20.9-.5-32.1-1.5-3-2.4-3-4.8-1.2-8,11-.5,21.4.2,32.7-.5Z" class="y"/><path d="M563.5,533.3c.8,2.5.8,4.8.8,7.8-13.1-.5-25.9-3.7-39.5-6.3-.7-2.3-.7-4.3-.6-7.1,12.9,1.3,25.8,3.3,39.4,5.5h-.1Z" fill="#e1c89a"/><path d="M599.4,472.3c-2.5.6-2-2.9-4.3-2.3-1.7.4-2.8-.2-3.6-1.8-1.7-3.7-2.2-7.5-2.6-11.5-.2-2-1.2-4.7,1.5-5.5,1.9-.6,2.9,1.7,3.8,3.2,1.1,1.8,2.3,1.4,3.6.2,3.2-3.2,6.3-6.7,10.9-8,.5-.1,1.3,0,1.6.3s.3,1.2,0,1.5c-3.3,3.3-4.8,7.6-6.1,12-1.1,3.9-.9,4,3.6,4.9.5,0,1,.4,2.1.9-2.6,2.9-6.1,5.3-5.9,9.7,0,.5-.8.6-1.3,0-.3-.5-.4-1.1-.7-2.2-2-3.3-2.6-6.4-2.4-8.9-.2-2-1.7,0-.7-.7,1,2.5,1.2,5.1.2,8.2h.3Z" class="y"/><path d="M638.1,508.5c-2.3.9-3.3,0-4.3-1.3-3.8-5.2-6.9-10.8-9-16.8-4.8-13.5-8.1-27.4-7.7-41.9,0-3.5,1.1-5.4,2.5-4.8,2.3.9,1.8,2.9,1.8,4.6,0,7,0,14.2,1.9,20.8,3.4,12.2,5.7,25,13.8,35.4.7.9,1.1,2.2,1,4h0Z" class="AB"/><path d="M683.6,512.6c.8-7.5,3.4-14.9,6.6-22,2.4-5.4,5.2-10.7,7.8-16,1.4-2.8,3.6-4.8,6.6-6.9,1.2,7.6-1,14.7-4.9,21.5-.8,1.3-1.7,2.6-2.2,4-2.4,7.9-7.8,13.7-14,19.5h.1Z" fill="#d2ae74"/><path d="M589.8 519.7c-3.4 1.4-5.2 4-7.5 5.9s-2.4 1.9-3.3-1.8c-.4-1.8-1.4-2.7-3.1-2.4-5 1-10 2.3-15 3.4-.9.2-1.8.4-2.7.5-.9 0-1.9 0-2-1.2 0-.5.3-1.2.7-1.5.7-.6 1.6-.9 2.4-1.4 1.8-1.1 3.8-2 5.4-3.3 7-5.6 15.3-8.3 24.5-10.3.9.3 1.1.6 1 1.3-.7.6-.9.8-1.6 1.3-4.1 4.3 2.2 5.8 1.2 9.5h0zm93.8 23.8l-19.7-8.8c-.5-.2-.9-1.6-.8-2.3.2-.9 1.1-1.3 2.1-1.2.6 0 1.2 0 1.8.2 11.9 4.4 23.8 8.8 34.7 15.5 1.8 1.1 3.5 2.4 5.2 3.7.9.7 1.9 1.9 1.3 3.1-.9 1.6-2.5 1.3-3.9.5l-20.6-10.9v.2z" class="y"/><path d="M528.8,559.6c-7.4.9-15.6,1.2-23.8,1.2-18.6,0-37.2-.2-55.7-.4-2.1,0-4.3.4-6.1-1.2-.2-.2-.3-.6-.2-.9.3-1.2-1-.3.1-.7.6-.2,1.2-.4,1.8-.4,15.8,0,31.7-.5,47.5.3l36.4,2.1h0Z" class="x"/><path d="M599.6,346.5c-1.2-2-1.8-4.3-2.6-7.3.4-2.1.8-3.6,1.5-4.9,2.2-4.5,3.4-9.1,1-14-.3-.5.2-2,.7-2.2.7-.2,1.8,0,2.4.6,2.4,1.8,3.4,4.2,2.4,7.2-.9,2.8-1.7,5.7-2.7,9.4,3.2-.7,4.6-2.7,6.3-4.1,3.1-2.4,6.1-5,9.2-7.4,1.6-1.2,4.7-1.3,5-.3.5,1.7-.7,2.8-1.8,3.8l-8.3,7.1-13.1,12.1h0Z" class="w"/><path d="M474,520.9c.7,2.5.8,5.1.9,8.4-3.1,2.5-6.8,3.1-9.7,5.4s-5.5,4.7-7,8.9c-.6,1.1-1.1,1.6-2.5,2.4-4-4.2-1.8-8.4.2-12.3,1.9-3.5,3.2-6.9,2.7-11,5.1.9,10.3.3,15.4-1.8h0Z" fill="#ddc290"/><path d="M664.2,465.7c.4-3.7,1.1-6.9,3.2-9.6.5-.6,1.5-1.2,2.2-1.1,1.3.2,2.1,1.4,2.1,2.6s-.4,3-1.1,4.3c-1.8,3.5-3.9,6.8-5.9,10.2-1.4,2.3-3.5,4.2-4.1,6.9,1.6,1.5,3.3,2.8,4.7,4.3.5.6,1,1.7.9,2.4-.4,1.7-1.7,1.2-2.8.8-3-.9-6-.6-9.7,0-1.1.3-1.5.5-2.3.2-1.6-1.7-2.1-3.3-2.6-5.5,0-1,0-1.4.2-2.4.3-.9.5-1.3,1.4-2.6,1-1.2,1.3-1.5,2-2.2.8-.6,1.1-.9,1.9-1.4,3.9-1.7,5.4-5.8,9.8-6.8h0Z" class="y"/><path d="M651,533.4c-.7-4.3-.7-8.6-.8-13.7,4.8-5.3,9.6-9.7,15-14.5,1.7,2.4.8,5,0,7.6-1.3,4.6-3.6,9-4.1,14.6-2.7,3.3-6.3,4.2-10.1,5.9h0Z" fill="#dab97d"/><path d="M512.4,517.2c8.2-14.4,20.2-25.1,36.5-31.6,1.1.5,1.4,1,1.4,2.3-14.3,6.8-24.6,17.2-34.7,28.7-1.1.5-1.7.7-3.2.5h0Z" class="w"/><path d="M647.1,483.9c-1.2,0-1.8-.8-2.7-.1-1.2.9-2.1,2.1-3.2,3.1-1.8,1.5-1.4-.4-1.5-1.1,0-.9-.6-2.2-1.2-2-2.5,1.2-3.3.4-2.9-2.1l1.8-8.6c3-.1,2.9,3.1,5,3.6,6-2.9,4.2-9.3,6.2-14,2.2-.5,2.3,1.3,2.9,2.5.7,1.6.7,3.6,3.5,4.1,2.2,1.7,1.6,3.2-.5,4.9q-.6.4-.7.5l-1.3,1.3c-.4.4-.5.5-.5.6l-1.3,1.3-.5.5c-.6.6-1,1.1-1.6,2.3-.3,1.2-.6,1.8-1.5,3.2h0Z" class="y"/><path d="M519.8,466.4c1.5-.3,2.6-.4,3.1-1,.8-.9,1.3-2.2-.4-2.9-1.7-.6-3.5-1.5-5.2-.6-6.2,3.3-10.1-1.1-14.4-4.1-.3-.2-.4-1.1-.3-1.7,0-1.3,1.2-1.3,2-1.2,3,.3,6,.6,9,1.3,4.4,1.1,8.7,2.5,13,3.9,1.7.6,2.3,1.8,1,3.5-.9,1.1,0,1.4.8,1.7,1.4.5,2.9.9,2.7,2.9-1.6.8-3,0-4.4-.5-2.5-.8-4.6-.6-6.5,1.5-.8.9-2.6.7-3-.5-.6-1.5,1.1-1.8,2.7-2.4h0Z" class="w"/><path d="M631.1,451.2l7.1-6.8c.5-.4,2.3-.3,2.4-.2,1.2,4.6,4.8,2.5,7.4,2.6,3.6.2,7.3-.5,10.5,1.7,1,.7,2.2,1.5,1.7,2.8-.2.6-1.3,1.1-2.1,1.2-7.1,1.1-14.3,2.1-21.5,5.2-.5-.3-.8-1.2-.6-2,.9-3.3-.8-2.5-2.6-1.7-.5.2-1.1.2-2.3,0-.6-.9-.5-1.5,0-2.7h0Z" class="y"/><path d="M718.3,306c1.8,2.7,1.4,5.2,1.4,7.6v41.1c0,1.9-.6,3.6-2.3,5.9-1-17.1-1.1-34.9-1.1-53.5.6-1.1,1.1-1.3,2.1-1.1h-.1Z" class="v"/><path d="M675.5,382.5c-4.7-.4-17.7-1-21-.3-3.6.8-6.6,3-9.8,4.7-2.4,1.3-4.7,2.9-7.7,2.4-.5,0-1.1-.5-1.5-.9-.7-.9,0-1.9.6-2.3,11-5.7,22.4-9.5,35-8.3,1.5.1,3,.4,4.1,1.6.8.8.4,1.6.3,3.1h0Z" class="y"/><path d="M664.5,359.1c.7,2.3.5,4.1-.5,5.7-.4.7-1.7,1.5-1.9.7-.7-3.2-5.1-3.3-5.2-8.7-1.3,6.7-.8,11.8-3.7,16.7-2.6-3.2-3.1-7-4.3-10.4,0-.3.5-1.2.8-1.3,3.2-.6,2.7-2.6,1.8-4.7-.6-1.4-1.5-2.6-2.1-4-1-2.1-.5-2.5,2.7-2.4.3,0,.6.2,1.6,0,2.1-.8,2.9,0,4.2,1.2,1.1,1.3,1.7,2.4,2.7,3.7,2.2.4,2.8,1.8,3.9,3.6h0Z" class="x"/><path d="M479.4,315.4c.7.3.7.7.8,1.6-4.5,4.3-7.8,8.7-9.3,14.4-.4,1.4-1.3,2.7-2.2,3.9-.7,1-3.3.7-4-.4-3.3-5.1-1-13.7,4.6-16.3,3-1.4,6.2-2.2,10-3.3h.1Z" fill="#ccb078"/><path d="M557.4,504.4c-2.3,1.3-3.7,2-4,4.2-.4,3-1.1,5.9-1.8,8.8-.2.9-.7,1.6-1.8,1.5-1,0-1.4-.8-1.9-1.7-2-3.2-1.6-6.9-2.9-10.8-1-.3-1.5-.3-1.8-1,1.9-3.1,3.6-5.5,5.5-7.8.4-.5,1.5-.5,2.2-.8.2.8.3,1.7.5,2.5,0,.5.4,1,.8,2.2,1.4-2.1,2.6-3.9,4.4-6,1.6,2.4,3,5.1.9,8.7v.2Z" class="w"/><path d="M591.5 517.3c7.7-2.7 15.3-2.9 22.9-2.3 2.4.2 3.2 1.5 2.4 3.7-.3.9-.8 1.6-1.2 2.5-.7 1.5-.6 4.2-3.1 3.6-1.4-.3-1.3-2.5-1.2-4 0-2-1-2.8-2.7-2.6-5.8.7-10.6 2.7-11.7 9.4 0 .4-1 1.1-1.3 1-.8-.3-1.7-.7-2.2-1.4-1.1-1.6-.6-3.5-.3-6-.8-1.6-1.7-2.3-1.6-3.9h0zm63 30.5c3.7 1.6 6.1 0 9.4 0 1.6-.7 2.5-1 4.2-.4 1.8.4 3 .5 4.2.5.5 2.2-1.3 1.6-2.1 2-1 .6-2.2.9-3.3 1.4s-2.1 1.2-3.2 1.6c-.8.2-1.9 0-2.5-.3-2.7-1.7-5.2-.5-7.8.2-5.5 1.5-11 3.1-16.9 2.6-2.7-.3-5.4-.5-8-3.3 6.1-1.2 11.5-2.7 18.1-1.1 1.4-.6 2.3-1.4 3.8-2.3 1.3-.6 2-.8 4-.8h0z" class="y"/><path d="M568.9,286.6c.8.1.8.8.9,1.2-7.9.5-15.8.6-23.7.6-15.2,0-30.5,0-45.7-.2-5.9,0-11.8-.4-17.7-1,3.1-1.1,6.2-1.8,9.5-1.7l71.3.8c1.5,0,3,0,5.4.2h0Z" class="w"/><path d="M550.6,488.6c-.8-.4-.9-.9-1-2.2.8-1.7,1.9-2.5,2.3-3.5.7-1.9,1.5-3.2,3.7-2.9,11.9,1.4,24,1.7,35.8,7.3.8.6.9,1,.5,2-1.4,1.6-2.4,1.4-3.6,1l-10.4-3.2c-9-2.5-17.9-2.4-27.3,1.6h0Z" class="AB"/><path d="M634.4,343.8c-3.2.8-6.6-1.7-8.4,2.7-.2.6-1.5.5-2.4,0l-5.2-3.3c2.3-1.4,5.8-2.3,10.6-2.6l-4.5-.7c-2.7-.2-3.3-2.4-3.9-4.4-.5-1.7,1.5-3.9,3.1-3.2,1.8.8,3.2,1,5.1.4,1.8-.6,4-2.6,5.7-.2,1.1,1.6-2.1,2.8-1,5.1,1.8,1.9,2.1,3.7.8,6.3h.1Z" class="w"/><path d="M595.1,483.9c1.9-.7,2.7.2,3.5,1.1,7.5,7.9,16,14.7,25,22,0,.8-.6,1.1-2.2,1.4-3.6-1.6-6.3-3-8.9-4.6-5.9-3.7-11.8-7.4-17.6-11.8-.3-3-.9-5.3,0-8.1h.2Z" class="AB"/><path d="M716.6,489.9c-.5-2.6-.8-4.7-.8-6.8l.3-67.6c0-2.3-.6-4.8.9-7,.3.6.7,1.1.7,1.7v78.4c-.3,1.2-.6,1.5-1.1,1.3Z" class="x"/><path d="M511.6 348.6c-3.5-2-3.9-3.3-2.1-4.5 3.1-2 6.6-2.9 10.2-3.5 1.7-.3 3 0 3.6 1.8.3.8.8 1.6 1.8 1.8.9.2 2 .4 1.9 1.5 0 1.3-1.3 1.9-2.4 2.3-4.1 1.4-8.2 1.9-13.1.7h.1zm10.9 127.8c-11.3-.3-21.8-3-32-6.9-1.4-.5-2.7-1.4-3.9-2.2-.3-.2-.5-1.1-.3-1.6.2-.4.9-.9 1.4-.8 1.2 0 2.4.3 3.5.7 9.6 3.9 19.6 6.2 30.2 9.1.9.5 1.1.8 1.1 1.7h0z" class="w"/><path d="M559.1,383.9c-7.8-7.2-16.9-10.2-26.6-11.9.4-.8.6-1.6.9-1.7,11.4-1.6,20.6,2.2,27.3,12.4-.3.9-.7,1.2-1.7,1.2h0Z" class="AJ"/><path d="M513.2,500.7c.5,1.4,1.3,2.2,1.3,3s-.6,1.7-1.2,2.2c-.9.7-1.8,0-1.9-.9-.2-2.3-1.2-3.2-3.5-2.6-6.2,1.6-11.9.2-17.4-2.8-.4-.2-.5-1-.6-1.5-.2-.8.2-1.2,1-1.2,3,.2,6.6-.7,8.9.7,4.1,2.4,8,1.8,12.1,1.4.4,0,.8.7,1.3,1.8h0Z" class="w"/><path d="M565.8,384c2.6-.6,5.2-.6,8.5-.7.2,2.6-.2,5.3-.9,7.9-.4,1.5-1.4,2.6-2.9,3.3-3.2,1.5-6.7,1.8-7.8-2.8-.2-.9-.6-1.7-1-3.2-.3-1.1-.5-1.6,0-1.9,2.4.4,4.1.5,4-2.6h0Z" class="AA"/><path d="M652.6 486.2c-.2 1-.8 1.7-1.3 2.4-.7 1.2-.5 2.4.8 2.9 1.1.4 2.3.2 3.5.1 1.3 0 2.6.4 3 1.5.8 2.2-1.4 2.1-2.5 2.6-3.9 1.7-7.1 4.2-9.1 7.7-2.9-.7-2.1-2.5-2-3.7.3-3.9 1.5-7.6 3.5-11.7.6-1.5 1.1-2.1 2.5-2.7.6 0 1.3.5 1.6.8h0zm63.5 4c0-.8.8-.9 1.2-.8l1 64.9c0 1.5-.6 2.9-1.5 5-.7 0-.9-.6-1.2-2.2l.3-34.4.3-32.5h0z" class="y"/><path d="M589.7,368.7c.8-.8,1.3-1.2,1.8-1.1,1.7.4,2.7,3.1,4.6,2.3,1.6-.6,2.8-2.2,4.1-3.5l3.1-3.3c.8-.8,1.7-2,2.9-.9,1,1,.5,2.3,0,3.4-.6,1.4-1.5,2.7-2.3,3.9-2.6,4.1-5.7,7-11,6.4-1.8-.2-2.8-.3-2.8-2.4s-1.3-2.8-.3-4.9h0Z" class="AI"/><path d="M665,359c-1.6,0-2.6-1.1-3.7-2.9,2-2.8,4.1-5.1,2.5-8.7,0-.1.3-.5.5-.7.7-.5,1.7-1.1,2.3-.2.7.9,1,2.1,1.5,3.2.6,1.3,0,3.3,2.1,3.5,1.1.1,2.3-.6,3.4-1,.7-.2,1.3-.1,1.5.5,0,.5.2,1.2,0,1.6-.4.8-.8,1.9-1.5,2.2-3.4,1.3-4,4.2-3.8,7.7q-2.9-1.2-3.5-6.4c0-.5.6-1.9-.9-1.1-.3.2-.2,1.1-.3,2.2h0Z" class="w"/><path d="M614,315.8c-.4-3.4,2.6-5,3.2-8.4,3.6-.4,6.7,1.2,10.5,2.6-1.1,2.9-2,6-5.6,7.8-3.1.2-5.4-.6-8.1-2h0Z" class="AF"/><path d="M596,357.3c-1.8-1.3-3.1-2.6-1.8-4.8.8.9,1.5,1.8,2.9,1.7l7.1-1.1c3.3-.5,6.6-.2,9.4,1.9.6.4,1,1.4,1,2.2s-1,1.5-1.9,1.4c-2.7-.3-5.4-.6-8-1.3-2.7-.7-5.3-.5-8.8,0h0ZM499.2,372.8c1-2.3,2.1-3.8,4-4.3.8-.2,1.9-.2,2.6.2,1.7.9.4,1.8-.2,2.6-1.1,1.5-.3,3,.2,4.3.5,1.4,1.6,2.5,2.4,3.8.5.8.8,1.7-.2,2.4-.4.3-1.1.5-1.7.3-4.6-1-7.7-3.3-7.1-9.2h0ZM614.2,365.6c1.8,2.8-1.2,6.5,1.9,8.7,1,.7.2,1.6-.7,1.9-3.8,1.5-7-.2-7.5-3.9-.2-1.5-.2-3,0-4.5.3-3.5,3.3-5.4,7.3-4.4.8.2.2,1.4-1,2.3h0Z" class="w"/><path d="M640.5 368.8c2.4-1.9 0-1.7-.3-2.5s-.5-1.9 0-2.5 1.6-.7 2.4-.9c.3 0 .6 0 .9.2 3 1.4 4.3 5.4 3.1 9.4-.9 2.9-2.9 4.2-6.2 4-2.2-.1-3.2-1.8-1.7-3.4 1.2-1.3 1.1-2.6 1.9-4.3h0zm-67.1-52.7c1.7 1.2 2.6 3 .6 3.4-1.3.3-2.9.9-4.1.8-2.3-.3-2.9 1.3-4.1 2.5-.9 1-2 2.3-3.7 1.2-1.3-.9-1.7-2.4-1.8-3.9 0-1.6.4-3 1.8-3.8 2.2-1.2 4.6-1.7 6.7 0 1.5 1.2 2.6.8 4.6-.1h0zm-42.9 244.3c-.8 0-.8-.6-.8-.9 14.6-.9 29.2-1.6 44.6-.5.8 0 .8.9.9 1.3-14.6 1.2-29.2.3-44.7 0h0z" class="y"/><path d="M500.9,490.7c-1.5.7-2.6.6-2.7-.4-.3-3.3,1.1-6,4-7.5,2.7-1.5,5.8-1.9,8.8-1.4,1.3.2,2,1.3,1.6,2.8-.4,1.4-1.2,3.8-2.6,2.7-3.3-2.7-4.9-.6-6.8,1.4-.6.7-1.2,1.4-2.4,2.5h.1Z" class="w"/><path d="M478.4,467.4c-1.9-.3-2.9-1.1-2.6-2.4.5-2.6,1.3-5.1,2-7.7.3-1.4,0-3.2,2.4-2.8,1.7.3,2.5,1.6,2.9,3,1.2,4.3,0,7.6-4.7,9.9h0Z" class="x"/><path d="M458.5,286.1c4.7,0,8.6.2,12.8.3-1.3,2.5-3.1,1.7-4.6,1.8h-18.1c-4,.1-4.1.5-5.1,4.8-.2.8-.4,1.7-.6,2.7-2.1-.7-1.4-2.4-1.4-3.6-.4-6.2.8-7.3,7.2-6.8,3,.2,6,.6,9.8.9h0Z" class="v"/><path d="M459.3,479.9c-.9.4-1.3.4-2.4.3-.5-3.1.6-4.5,4.1-5.3,5.5-1.2,6.5-1.6,8.9,2,1.2,1.8,1,3.8-.4,4.8-1.9,1.3-4.3,1-5.5-.8-.5-.7-.5-1.7-.9-2.5-1-2-1.4-1.9-3.7,1.6h-.1Z" class="w"/><path d="M658.3,351.4c-1,.3-2-.1-3.5-.8-2.3-3.7-4.1-7.2-5.8-10.7-.2-.4,0-1.2.3-1.5.4-.4,1.1-.6,1.6-.5,3.2.5,5.1,2.8,7,5.3,2,2.6,1.2,5,.4,8.2Z" class="y"/><path d="M688,373.6c3.7-.5,6.6-.2,8.7,2.5,1,1.2,1.6,2.6.8,4.1-.8,1.4-2-.2-3.1.2-.8.3-1.7.8-2.3-.4-2-3.9-3.5-1.5-5.1.4-.5.6-1.2,1.5-2.1.5-.5-.7-1.2-1.6-1.1-2.4.2-2.2,1.4-3.9,4.1-4.9h0Z" class="w"/><path d="M526,318.5c-2.6,0-4.9-1.8-8.5-.9-1.2-.5-1.7-1.1-2.7-2,3.1-3.7,7.7-5.3,12.2-7.1.8-.3,1.8-.1,2.3.8.4.9,0,1.7-.8,2.3-1.3,1.1-3.7,1-2.9,4.1.4,1.1.4,1.8.4,2.9h0Z" class="z"/><path d="M590.4 509.3c-.6 0-.6-.8-.5-1.2-1-3.5-5-1.1-6.5-4.2-.9-1.8-3.8-2.7-5.7-4.1-.8-.6-.6-1.5-.2-2.4.3-.7.8-.7 1.5-.4 3.7 2 7.2 4.2 12 5.1.3 1.7.5 3.2 1.5 4.8.8 1.2-.3 2-2.1 2.4h0zm32-126.5c2.8-1.2 4.8-2.5 6.8-3.8 1.7-1.1 3 0 3.9 1.1 1.1 1.4.8 2.9-.6 4-3 2.4-6.3 3.8-10.4.7-.5-1-.5-1.5.3-2h0z" class="w"/><path d="M554.2,458.7c-.9-.3-1.2-.3-1.5-.5-1.9-1.2-5.3-1.6-4.3-4.6.7-2.1,3.6-1.1,5.6-1.1s2.3.6,3.3,1c1.9.9,2.4,2.6,1.8,4.4-.9,2.6-2.8,1.2-5,.6v.2Z" class="y"/><path d="M587.1,321.4c-2.6-.2-2.6-4-5.5-3-.8.3-1.2-1.9-.3-2.8,1.4-1.3,3.1-2.1,5-1.4,2.7,1,4.9,2.6,5.6,5.5.5,2,0,3.7-2.1,4.4-2.4.8-2.3-.9-2.6-2.8h-.1Z" class="w"/><path d="M567.2,342.3c-1.1.5-1.8.7-2.3.5-5.9-2.1-7-4.4-5-10.2.5-1.5,2.4-2.7,3.4-2.3,1.5.7.9,1.8.8,3-.2,3.4,2.3,5.7,3.1,9Z" class="x"/><path d="M687.7,534.9c-3.5-3.1-5.3-6.5-6.4-10.2,0-.4.2-1.2.6-1.5.3-.3,1.1-.3,1.5,0,1.7,1.1,3.2,2.7,5.1,3.5,1.4.6,2,1.4,1.9,2.5-.2,2.1,1.5,4.9-2.6,5.7h0Z" class="AF"/><path d="M555.1,323.8c-.8,1.9-1.8,2.3-3.1,1.7-1.9-.9-3.4-.8-4.3,1.5-.4.9-1.4,1.2-2.2.6-.4-.3-.7-1.1-.6-1.6.3-1.5.6-3,1.3-4.3,1.1-2,2.8-3.3,5.2-2.9s3.7,1.8,3.8,4.9h-.1Z" class="w"/><path d="M707.9,388.1c.9,2.4,1.1,4.2.3,5.8-.4.7-1.4,1.4-2.1,1.4-1.2,0-2.5-.6-2-2.2.6-2,.2-3.5-1.9-4.3-1.2-.4-2.3-1-1.5-2.4.6-1.1,1.9-1.3,3.2-1.2,1.6.2,2.8,1,4.1,2.8h0Z" class="x"/><path d="M684.9,400.9c2.2,3.1,5,2.4,7.5,2.9.6.1,1.4,1.3,1.4,1.9s-.8,1.8-1.4,1.9c-4.9,1.3-8.1,0-10.1-4.6-.8-1.7.3-2.7,2.6-2.2h0Z" class="v"/><path d="M591.6,516.4c.8,1.3,1.3,2.2,1.7,3.6-.9.5-1.7.4-3.2.3-1-1.2-1.6-2.3-1.6-3.4,0-1.9-.7-2.6-2.6-2.4-2.7.2-4.8,2.6-7.7,1.9,1.9-2.2,5.1-4.1,9.5-5.8,3.6.5,4,2.6,3.9,5.7h0Z" class="z"/><path d="M453.2 462.5c1.6-2.1 3.2-3.3 4.4-.8.8 1.6.8 3.6 3 4 1.1.2 2.7-.4 2.7 1.3s-1.7 2.4-3.2 2.5c-3.8.3-5-.8-6.9-7zm215.3 84.7c-.6.6-1.5.6-3.1.6-2.9-3-7.2-3.2-8.8-6.7-.2-.5-.5-1.2-.3-1.7.2-.4 1-.8 1.5-.7 2.3.5 5.3.5 6.8 1.9 1.6 1.5 3.8 3.2 4 6.5h-.1zm-129-158.7c-1.4-1.4-2.5-3.1-3.5-4.8-.6-1.1.3-1.9 1.2-1.8 1.5.1 2.9.6 4.4 1.1 1.7.6 4.1 1.6 3.9 3.3-.4 2.5-3.3 2.1-5.9 2.2h-.1zm163.2 117.7c2.3.3 2.7 1.7 2.3 3.2-1 3.1-1.6 6.3-1.7 10.3-.4 2.4-1.7 3-3.2 4.2-.4 1.1-.5 1.7-.7 2.9-5.9-2-3.3-6.3-2.2-10.9l.6-2.5c.8-3.2 2.9-4.8 4.9-7.2h0z" class="w"/><path d="M692.4,517.4c2-1.1,2.7-2.7,3-4.5.3-2.1,1-4,3.2-5.4,2.3,1.1,1.8,2.8,1.4,5.1-.4.7-.4.6-.4.5-1.7,3.9-1.6,8.6-4.9,12.5-1.8,0-2.3-1-2.3-2.3v-5.9Z" class="x"/><path d="M524.2,358.1c2.5-2.6,4-2.9,5.6-1.6,1.9,1.6,3.1,3.7,3.2,6.3,0,1.4-.7,2.4-2,2.6-1.2.2-3,0-2.7-1.4.6-3.3-2.2-3.8-4.1-5.8h0Z" class="w"/><path d="M716.2 362.2c.3-.8.9-.8 1.2-.8.6 1.4 1.1 2.9 1.1 4.4v22.7c0 1.8.3 3.7-1.5 5.7-1.9-5.4-.7-10.6-.9-15.7l.2-16.3h0z" class="x"/><path d="M652.4,549.6c-1.2,2-2.6,2.1-4.6,1.9.6-3.2-3.9-5-2.2-8.4,3.4.7,6.6,1.8,9.9,4.2.2.6.2.5.3.5-.8.8-2,1-3.4,1.8Z" class="w"/><path d="M701.7,504.2c-.3-6,3.8-9.9,5.6-15.4,1.5,4.3.3,9.2-3.8,14.5-.6.8-.9,1-1.8.8h0Z" class="x"/><path d="M474.3,446.8c-2.4-1.5-4.1-3.3-6.5-3.6-.8-.1-1.5-1-1-2,.2-.5.7-1,1.2-1.1,3.4-.9,6.4-.2,8.7,2.7,1.3,1.8,1.2,3.3-.8,5.3,0,0-.8-.4-1.5-1.2h-.1Z" class="v"/><path d="M454.5,446.4c-.2,1.3-.1,1.9-.3,2.5-.6,1.4,1.2,4.2-1.9,3.9-2-.2-2.5-2.4-2.6-4.2-.2-3.5,1.4-5.8,4.4-7,1.2-.4,2.5-.2,3.1.9.1.3-.9,1.2-1.4,1.9-.4.5-.7.9-1.3,2.1h0Z" class="x"/><path d="M622.2 358.1c-1 .8-1.3 1.4-1.8 1.6-1.4.5-1.4-.8-1.3-1.5.8-6.1 3.7-7.6 9.3-5 .8.4 1.5.9 2.5 1.5-2.8 1-5.5 2-8.7 3.3h0zm53.6 25.2c1.4.2 2.9.2 4.3.8 1 .4 2.1 1.9.6 2.7-2.8 1.3-2.3 3.9-3.1 6-.3.9-1.2 1.5-2.1 1.3-.8-.2-1.7-.8-2-1.5-1.5-3.3 0-5.8 2.3-8.7v-.5h0z" class="w"/><path d="M654.6,474.9c0-1.7.5-3.1,1.1-5.1,2-3.1,3.7-6.5,8.5-4.5-1.5,4.4-5,7.3-9.6,9.5h0Z" class="v"/><path d="M609.9,482.7c.9-1.6,1.5-2.7,2.4-3.5.7-.6,2.4-.4,2.2.2-1.1,4.4,1.9,8.6.2,13.2-2.9-2.6-4.7-5.5-4.8-9.9h0Z" class="w"/><path d="M694.6,526.4c1.1-4.5,2.6-8.5,4.6-13,.6,2,0,4.2-.7,6.4s-1.3,4.5.3,7.1c.6,1.5.7,2.7.5,3.9,0,.9-.8,1.7-1.9,1.4-.5,0-1-.7-1.2-1.2-.5-1.4-.8-2.9-1.6-4.8v.2Z" class="z"/><path d="M530.6,390.4c-3.1,3.2-8,3.3-12.3,5.2-.8.4-2.2-.8-2.3-2.2,0-1,.6-1.5,1.5-1.8,4.1-1.2,8.2-1.2,13.1-1.2Z" class="v"/><path d="M633.4,513.9c1.1,0,1.8.3,2.6.5,1,.3,2.1.4,2.2-1.7.2-1,.5-1.5,1.3-2.6,1.8.7,3,1.9,4.2,3.3.8.9,1.4,1.9.9,3.2-.6,1.6-2.1,2-3.6,2.2-2.9.5-5-1.5-8-3-.4-.8-.2-1.2.3-1.9h0Z" class="AB"/><path d="M512.4,353.1c0,3-2,2.7-3.6,3.3-1.1.4-1.5,2.3-2.5,3.2-.7.7-2.4-.4-2.6-1.5-.6-4.5,1.4-6.7,5.9-6.5.8,0,1.7.6,2.8,1.5Z" class="y"/><path d="M523.7,382.5c.7-2.4.3-4.7,2.5-6,.7-.4,1.7-1.1,2.3-.8.6.2,1.1,1.4,1.2,2.2.3,3.4-1.4,5.6-5,7.1-1.3-.5-1.5-1.2-1-2.4h0Z" class="w"/><path d="M634.6,344.5c-.7-1.9-.7-3.6-.7-6,2.3,0,4.6.7,6.8,1.5,1.1.4,2,1.5,1.6,2.8-.3,1.2-1.4,2-2.6,2.1-1.5.1-3,0-5.1-.4Z" class="AB"/><path d="M530.5,348.7c4-2,4-2.1,9.2-1.5-1,3.3-4.4,3.7-6.5,5.4-1.6,1.3-2.7,0-2.7-3.9Z" class="y"/><path d="M454.9,546.9c.4-1,.9-1.4,2.3-2.3,2.5,2.1,4.2,2.6,6.6.3.9-.9,2.2-.9,3,.4s.3,3.4-.9,3.9c-3.8,1.3-7.6,1.8-10.9-2.3h-.1Z" fill="#ccb078"/><path d="M620.9,508.6c.2-.6.8-.8,2.3-1.1,3.9,1.6,6.9,3.4,10.3,5.6.2.7,0,1.1-.5,1.9-4.2-1.7-8-3.8-12.1-6.3h0Z" class="x"/><path d="M719,305.7c-.5.7-.9.6-2,.6-.9-5.1-1.2-10.3-1.3-15.4,0-.8.4-1.8,1.6-1.5.5.2,1.1.7,1.3,1.1.4,1.1.6,2.3.7,3.5,0,3.6,0,7.3-.2,11.7h0Z" class="y"/><path d="M603 379.4c1.2 1 1.4 2.4.7 2.5-2.3.4-4.6.3-6.9.3s-.9-.8-.9-1.2.4-1.1.8-1.4c1.8-1.7 3.8-1.2 6.3 0v-.2zm-17.1-42.5c3.3.7 3.2 2.6 2.4 4.7-.6 1.4-1.6 2.4-3.1 2.9-1.2.4-2.3.2-3.3-.6 0-2.9 3.4-4.1 3.9-7.1h0zm-99 142.7c-1.1-.7-1.6-1-1.9-1.5-.8-1.1.2-1.4 1-1.7.5-.2 1.2-.2 1.7-.1 2.7.4 5.8-.8 8.1 1.8-2 3.9-5.4 1.8-9 1.5h0zm209.5-181.3c-1.7 2.2-2.8 4.6-5.3 3.4-2-.9-1.4-4.6 1.1-6.9.6-.6 1.6-.8 3.1-1.1 1.7 1.2 2 2.5 1.2 4.6h0zm-69.8 67.2c1.1.3 1.7.6 2.1 1 1.3 1.2 1.5 2.6.4 4s-2.6 1.5-4 .5c-1.6-1.1-1.9-2.7-.6-4.6.3-.5 1-.7 2.1-1h0zm-107.5 1c1.7 2.4.8 3.8-.9 4.8-1.6 1-3.5.3-4.4-1.6-.8-1.6 0-2.9 1.4-3.7 1.1-.6 2.3-.5 3.9.5h0z" class="w"/><path d="M651.7,484.7c-.8,1.2-1.4,1.8-2.5,2.6-1.1-.4-1.7-1-2.5-2.1-.2-.6-.2-.5-.2-.4-.2-.6-.5-1.2-.4-2.9.5-2.6,1.5-3.5,3.5-3.7,1.9,1.9,2.3,3.8,2.1,6.5h0Z" class="v"/><path d="M636.5 458.9c-.4-.5-.4-.4-.4-.5 1.5 1.3 3.4 0 5.1.5 1 .3 1.9 2.1 1.4 2.8-1.1 1.5-2.6 1.1-4.1.8-1.7-.4-2.6-1.3-2-3.7h0zm-63.3-105.7c-1.4.4-3.4 1-3.7-1.7-.3-2.4-.4-4.8 1.4-6.7.4-.4 1.1-.7 1.6-.7s.9.8.9 1.2l-.2 7.8h0zm5.9-22.9c-1.6 1.7-3 2.2-4.4 1.4-.7-.4-1.4-1.2-1.6-2-.4-1.6.3-2.9 1.8-3.7 2-1 3.1 0 4.2 4.2h0zm124.3 202.9c1.9-.2 3.4-.5 3.1 1.3-.4 2.3-1.2 4.6-2.1 7.6-2.3-3-4.8-5.3-1-8.9h0z" class="w"/><path d="M670,290.8c2.8-.5,5.4-.5,8.8-.4.7.8.7,1.5.7,2.7-3.1.5-6.3.5-10.2.4-.3-.8,0-1.6.7-2.7Z" class="z"/><path d="M534.9,393.6c2.4-2.8,4.8-4.3,8.6-2.2-2.3,2.5-4.8,4-7.7,4.8-.7.2-1.1-1.2-1-2.7h.1ZM631.2,450c.2,1,0,1.6-.4,2.8-4.4-.1-4.6-.1-4.2-4,0-1.6-1.2-4.2,1-4.5,3-.5,2.4,2.6,3,4.4,0,.3.2.6.6,1.4h0Z" class="v"/><path d="M609.9,347c2.4-.6,4.2-.3,5.7.9,1,.7,2.3,1.6,1.9,2.8-.8,2.3-2.4.7-3.5.1-1.8-.9-4.3-.8-4.1-3.8h0Z" class="w"/><path d="M522.7,477.4c-.4-.8-.4-1.1-.5-2,2.3,0,4.5.5,6.8,1,1.2.3,2.7.8,2.5,2-.3,2.3-2.1,1.2-3.4.9-1.7-.4-3.4-1-5.5-2h.1Z" class="v"/><path d="M700.5,524.3c-.4-1.4.5-2.5,2.2-3.6,1-.5,1.5-.8,2-1.2,1-.8,2.2-1.2,3.1,0,.7.8,0,1.7-.4,2.5-1.6,2.2-3.6,3.1-6.9,2.4h0Z" class="x"/><path d="M557,505.4c-.2-3,0-5.7,0-9.1,2-1.1,2.7,1.9,4.8,1.1.2.8.3,1.6.2,2.8-1.6,2-1.2,4.3-3.4,5.9-.6.1-1.4-.3-1.7-.6h.1Z" class="v"/><path d="M591.7,502.2c1.7-1.4,0-2.5-.6-3.6-.3-.7-.5-1.1.2-1.4.5-.2,1.2-.5,1.6-.3,1.3.7,2.5,1.5,3.5,2.5s.5,1.6.7,2.4c-.8,0-1.7.2-2.5.1-.6,0-1.1-.3-2.3,0-.6.4-.5.4-.6.4h0Z" class="x"/><path d="M558.4 506.7c.9-2.1.3-4.6 2.9-5.9.7 1.4.9 3.1 1.1 4.8 0 1.1.6 2.4-.8 2.9-1.3.6-2.1-.6-3.2-1.9h0zm10.3-50.6c.8 1.6 1.6 2.7.3 3.6-1.2.8-2.3.2-3.2-.5-1.3-.9-1.7-2.4-1.6-3.9 0-.5.4-1.5.5-1.5.8 0 1.6.3 2.3.6.5.2.9.8 1.7 1.7h0z" class="y"/><path d="M688.5,390.6c1.2-2.1,2.7-2.2,4.1-1.4,1.1.6,1.7,1.6,1.4,3-.5,1.8-1.8,2.1-3.4,1.7-1.3-.3-1.8-1.3-2-3.2h0Z" class="w"/><path d="M599.5,472.9c-.4-3.7-.3-7.3-.2-10.8.3,0,.6,0,1-.1.7,3.3,1.4,6.5,2,10.5-.8.7-1.5.6-2.8.4Z" class="v"/><path d="M549.4,360.7c1,.6,1.5.9,1.9,1.3.5.6.2,1.1-.6,1.2l-4.4.4c-1.1.2-2.5,1-2.6-1,0-.6.9-1.6,1.6-1.8,1.1-.4,2.3-.3,4-.1h0Z" class="AN"/><path d="M573.4,354c.6,1.6,1.7,1,2.8.8,1.3-.3,2.6,0,2,1.5-.7,1.9-2.1,4.8-4,4-2.5-1,0-3.5-.3-5.8-.5-.5-.6-.5-.6-.5h0Z" class="w"/><path d="M539.2,480.3c-.7-.7-.8-1.1-.8-1.6,1.1-.2,2.3-.7,3.3-.4,1.7.5,4.9-1,4.6,1.9-.2,1.6-3.1.2-4.7.4-.6,0-1.2-.1-2.3-.4h0Z" class="v"/><path d="M468.1,456c-2,1-3.6,1.1-4.3-.4-.7-1.4.1-2.8,1.5-3.6,2-1.3,3.1-.1,2.8,4Z" class="AC"/><path d="M515.8,489.6c2.8-3.3,4.4.8,6.9.4-2.3,1.2-4.6,1.6-6.9-.4Z" class="v"/><path d="M595.5,483.5c-2.1,1.1-.3,2.2.2,3.2.6,1.3,3,2.4,0,4.2-.4.3-.3.2-.3.3-.7-.9-1.8-1-3.3-1.5-.5-.3-.5-.1-.5,0,.3-.3.6-.6.8-1.6,0-1.3.5-1.9,1.1-2.8.3-.8.4-1.3,1.3-1.6.7.2.8,0,.8,0v-.2Z" class="z"/><path d="M580.2,466.3c.4-.7.9-.9,2.4-1.2,2.1,1.8,3.3,3.7,4.8,6.2,0,1.1,0,1.7-1.2,2.3-2.5-2.2-4.2-4.5-6-7.3Z" class="AB"/><path d="M544.2,505.8c-1.1,2.4-2.9,3.7-5.5,3.5-.5,0-1.1-.5-1.3-.9-.4-.8-.5-1.8.6-2.2,1.3-.5,2.8-.7,4.8-1.2.6-.2,1.1.4,1.4.8h0Z" class="w"/><path d="M591.8,480.8c-2.6-2-4.3-4.1-6.2-6.7.2-.8.5-1.2,1.5-1.9,2.2,1.6,3.9,3.7,5.8,6.3,0,1.1,0,1.7-1,2.3h0Z" class="AB"/><path d="M670.3,365c.5.1,1.1.2,1.7.5,2,.9,2.4,2,1.1,3.1-1.1.9-2.5,2.3-3.8.7-.4-.5.6-2.1,1-3.8v-.5h0Z" class="x"/><path d="M701.2,503.9c.3,0,.6.2,1.5.2.6.2.6.5.6,1.3-.9,2.7-1.8,5-3.2,7.5-.4-1.2-.3-2.7-.5-4.8-.3-.7-.2-.7,0-.6,1-.6,1-1.8,1.6-3.2.3-.4.2-.4.2-.4h0Z" class="z"/><path d="M696.6,298.9c-.6-1.3-.7-2.6-.7-4.5.8-.7,1.6-.7,3-.5,1.6,1.3,2,2.6,1.1,4.7-.4.6-.5.7-.6.8-.8,0-1.5-.3-2.8-.4h0Z" class="AB"/><path d="M569.3,494.4c-1.8.4-3,.4-4.1.2-1.2-.2-1.1-1.3-.7-2,1.9-2.6,4.1-2,4.8,1.8Z" class="y"/><path d="M523.6,381.7c.5,1,.4,1.7.4,2.8-1.1.6-2.3.9-3.4.9s-2-.9-1.3-2.3c.4-.8.7-1.6,1.2-2.3,1.2-1.7,1.8.1,3.2,1h-.1Z" class="AB"/><path d="M590.3,388.4c-1.1-.9-2-1.9-1.9-2.2.9-1.5,2.4-1.4,3.6-.4.6.4.8,1.4,1.2,2.1-.8.2-1.5.5-2.9.5h0Z" class="v"/><path d="M508.8,565.9c.6.8.6,1.3.5,1.9-.1,1.1-.2,2.5-1.6,2.6-2.1,0-1.7-1.8-2-3.7.8-.7,1.6-.9,3.1-.8Z" fill="#e8d6b1"/><path d="M697.3,308.5c.3,1.9.4,4.3-3.3,4.1.6-1.4,1.7-2.7,3.3-4.1Z" class="w"/><path d="M442.3,301.2c.6-.2.9,0,1,.3.7,2,1.1,3.9-.2,5.8,0,.1-.5.3-.6.2-1.5-1.8-.9-3.9-.2-6.3h0Z" class="x"/><path d="M700.3,299.1c-.7-1.2-.7-2.5-.8-4.4,2.1-.3,3.3,1.2,4.2,3.6-.9.6-1.8.7-3.4.8Z" class="w"/><path d="M492.2,484.9c.5,2-.4,2.4-1.8,2.2-.3,0-.6-.3-.7-.6-.1-1.4.6-2.1,2.4-1.7h.1Z" class="x"/><path d="M595.8,483.2c-.6.9-.8,1.3-1.7,1.7-1.4-1.1-2.1-2-3-3.5,0-.8.5-1.1,1.4-1.9,1.6.8,2.7,2,3.3,3.7h0Z" class="AB"/><path d="M568.9,470.1c1.4-.5,2.1-.2,2.3.8,0,.4-.4,1.3-.7,1.4-1.4.3-2.1-.3-1.6-2.2h0Z" class="x"/><path d="M629.8,471.1c-1.7-.8-2.1-1.8-1.1-3,.7-.8,1.6-.6,2.3,0,1.2,1.1.6,2.1-1.2,2.9h0Z" class="AI"/><path d="M550.3,466.9c.5,2.3-.8,2.5-1.9,2.1-1.2-.5-1.6-2-1-3,.9-1.5,1.9-.6,2.9.9Z" class="w"/><path d="M536 457.4c-.5-1.9.2-2.7 1.6-2.7s.9.7 1 1.2c0 1.5-.7 2.1-2.6 1.5zM718.2 403c-.5.8-1.2 1.3-1.3 1.2-1.3-1.2-.8-2.7-.6-4.1 0-.4.7-.6 1-1 .3.5.7 1 .8 1.5.2.6 0 1.2 0 2.4h0zm-169.8-8.4c.8-1.2 1.4-1.8 2.3-1.3.3.2.6 1.2.4 1.5-.7 1.2-1.8 1.4-2.7-.2z" class="x"/><path d="M558.6,384.3c.2-.6.6-.7,1.6-.8,1.2.7,1.7,1.5,2.3,2.9,0,.5-.4,1.1-.7,1.4-1.2-.8-2.1-1.8-3.2-3.4h0Z" class="AA"/><path d="M622,384c-.8,0-1.3-.4-1.6-.9-.6-1-1.2-2.2.3-2.9,1.3-.6,2.1.2,2.5,2.1-.2.8-.5,1.1-1.1,1.7h-.1Z" class="w"/><path d="M634.3,360.3c-1.5.5-2-.1-1.7-1.2,0-.2.4-.6.6-.6,1.1-.2,1.6.4,1.1,1.8h0Z" class="z"/><path d="M519.6,332.4c1.5-.5,2.2,0,2.3.9,0,.5-.4,1.1-.6,1.6-.7-.4-1.4-.8-2-1.3-.2-.1,0-.6.3-1.2Z" class="x"/><path d="M442.9,323.2c-.5,0-.8-.1-.9-.4-.4-.9-.2-2.1.7-2.1s.9,1.3.2,2.4h0Z" class="v"/><path d="M571.5,370.6c0,1.3,0,2.4-1.1,2.2-.4,0-.6-1.5-.5-2.3,0-.8.7-1.6,1.6.2h0Z" class="w"/><path d="M436.3,457.6c-1.7-.7-2.1-2.2-.6-4.4.5,1,.6,2.4.6,4.4Z" class="AE"/><path d="M511.3,517.1c.9-.2,1.5-.2,3,0,0,1.1-.8,2.2-2.2,3.5-.5.2-1.4,0-1.5-.4,0-1.2.2-2,.7-3.1Z" class="v"/><path d="M549.5,383.5c-.8-.5-1-.9-1.2-1.4.5-.2,1.1-.6,1.5-.4.9.4,1.1,1.1-.3,1.8ZM700.7,503.9c1.2,1.2.9,2.4-.6,3.5-1.8-1.3-.8-2.3.6-3.5Z" class="x"/><path d="M668,502.3c.4,1,0,2-1.7,2.6,0-.8.6-1.6,1.7-2.6Z" fill="#dab97d"/><path d="M692.4,516.6l-1.6.4c-1,.3-1.7-.3-1.7-1.2,0-1.3,1.1-.9,1.9-.7.3,0,.5.3,1,1,.3.6.3.5.4.5h0Z" class="x"/><path d="M566.1,354.4c-1.7-.6-2.5-1.6-1.6-2.7.7-1,1.5,0,2.2,1.1,0,.8,0,1.2-.7,1.7h0Z" class="v"/><path d="M591.5,490.2c1.5-2.1,2.5-.9,3.7.4-1.3,2.6-2.5.9-3.7-.4Z" class="AB"/><path d="M692.5,313.2l.5.6s-.5,0-.5-.3v-.3h0Z" class="w"/><path d="M435.8,284.1c-.4.1-.7-.2-.8-.5,0-.1.2-.4.5-.7.3.2.4.5.3,1.2Z" class="AE"/><path d="M511.3,520.5c-.5,1.1-1.2,1.7-1-.5.2-.3.7.2,1,.5Z" class="v"/><path d="M638.7,511.6c-2.7-2.1-2.6-2.5.9-2.7.2,1.1,0,1.5-.9,2.7Z" class="AB"/><path d="M531.4,390.6l.3-.8s0,.5-.2.6,0,.1,0,.2h0Z" class="v"/><path d="M605.9,394.4c.2.9-.4,1.1-1.3.5,0-.4.5-.5,1.3-.5Z" class="AA"/><path d="M723.9,357.3c.4.2.6.7.5,1.7-.7-.1-.8-.7-.5-1.7Z" fill="#bf9b57"/><path d="M568.5 358.7c0-.4 0-.5.3-.7 0 .2.4.4.4.5 0 .2-.3.3-.6.2h-.1zm-1.9-5.1c.9.3 1.2 1 .8 1.9-.3.5-.7.5-1.6-.5 0-.7.2-.9.8-1.4z" class="v"/><path d="M436.1,439.5c-.8.1-.9-.4-.4-1.1.2-.2.5.7.4,1.1Z" class="AE"/><path d="M606.3,413.2c-4.9.8-9.8.9-15.6,1.1-1-3.4.2-6.5,2-9.4,3.8-.4,7,1.6,10.4,2.6,2.3.7,3.1,2.7,3.1,5.7h0Z" fill="#e5d0a7"/><path d="M580.8,412.6c-1.8.4-3.1.4-5,.3-.4-2.8-.6-5.5,0-8.1.9-4.1,3.2-5.2,7.2-4l1.7.6c2.8,1,3.3,2.4,1.7,4.6-1.6,2.1-3.4,4.2-5.6,6.6h0Z" fill="#e6d2ab"/><path d="M622.5,415.1c-3.6.2-7.3-.3-11.8-.9-.3-1.6.3-3.5,2-3.1,3.3.8,7.1.4,9.8,3.9h0Z" fill="#e5d0a7"/><path d="M656.5,422c-5.4,5.2-11.7,6.1-18.6,4.6-7.1-1.5-14.1-3.3-21.3-4.2-9.6-1.2-19.2-2.2-29.3,2-1-.3-1.3-.8-1.3-2,8.5-4.5,17-5.5,25.9-3.8l24.1,4.6c6.1,1.3,12,1.2,18.5-1.8,1.1,0,1.5,0,1.9.6h0Z" class="y"/><path d="M660,405.1c2.6-3.2,5.8-1.1,9.5-.5.4,3.1-.8,5.1-3.6,6-2.3-1.7-3.8-3.4-5.9-5.5Z" fill="#debb7b"/><path d="M646.2,410.7c-1.9.2-3.1.3-3.5-1.2-.3-1.1.3-1.8,1-2.3,3.4-2.2,6.7-2.1,10.6.7-2.5,1.9-5.1,1.8-8.1,2.8Z" class="y"/><path d="M578.5,431c-1.1.4-1.8.3-3.4,0,.6-3.5,2.1-6.8,6.1-7.5.8-.1,2,0,2.4.4.5.5.5,1.6-.3,2.4l-4.9,4.8h.1Z" class="AB"/><path d="M655.5,409.1c2.5,0,3.9,1.1,4,3.2,0,.5-.5,1-.8,1.5h-.7c-1.7-.9-2.7-2.4-2.5-4.6h0Z" class="y"/><path d="M585.5,421.9c.9.2.9.7,1.1,1.9-.7.7-1.3,1.4-2.2.5-.9-1,.2-1.4,1.1-2.4h0Z" class="AB"/><g class="y"><path d="M657,419.8c.4.6.4,1.2,0,2.3-.4.4-1-.2-1.3-.5,0-.8.6-1.2,1.4-1.8h-.1Z"/><path d="M657.5,419.9c.3-.4.6-.9.9-1.4.5.5.5,1-.5,1.4-.4-.1-.3,0-.3,0h-.1Z"/></g><path d="M500.5,422.7c-1,2.1-2.1,2.1-2.9,1-2-3-1.6-5.8,1.2-7.8,1.2-.9,2.6-1.4,4-2.2-4-1.7-4.7-1.7-6.9-.1-2.6,1.9-4.1,4.4-3.7,7.8.5,4.4,3.4,7.1,7.1,8.8,5.6,2.6,11.6,3.6,17.8,2.9,8.1-.9,16.3-1.8,24.4-3.1,5-.8,9.8-.3,14.4,1.3,4.3,1.5,8.4,3.7,9,9.2-2.5-.5-4.3-1.7-6.2-2.6-6.7-3.1-13.5-5-21.1-3.3-5.6,1.2-11.3,1.8-17,2.9-3.6.7-7.2,1-10.8.6-7.9-.7-14.6-3.7-19.9-10.7-2.8-5.3-3.6-10-.2-14.9,4.9-7,16.4-7,21.1,0,2.2,3.3.5,7-3.3,7.3-1.8.2-3.6-.2-5.3,0-.6,0-.9,1.3-1.6,2.7v.2Z" class="z"/><path d="M657.9,305.1c-.2.6-.7.9-1.3,1-.8,0-1.7.2-1.9-.8,0-.3.8-.7,1.7-1.2.7.2.9.4,1.4,1h0ZM646.7,303c-.7,1.5-1.5,1.4-1.5-.7.4-.2.8,0,1.5.7Z" class="AD"/><path d="M650.9 478.4c-.4-.8-.2-1.4.5-1.9.9.9.7 1.5-.5 1.9zm1.8-1.8c-.4-.7 0-1.3.6-1.8.9.8.7 1.5-.6 1.8z" class="v"/><path d="M646,481.5c.6.1.7.8.7,2.4-2.1.8-2.3.4-.7-2.4Z" class="AD"/><path d="M643.5 450.9c0-1.3 1-1.8 2.2-1.7.5 0 1 .5 1.5.7-.4.3-.7.8-1.1 1-.5.2-1.2.3-2.6 0h0zm-.4.2c-.3.5-.6.9-1.1 1.1-.7.3-1.6.6-2-.4 0-.1 1-.7 2.1-1.2.5 0 .8.3 1 .4h0z" class="v"/><path d="M652.5,549.7c-.3-1.3,1-1.4,2.7-1.8.3,1.4-1,1.3-2.7,1.8Z" class="AD"/></svg>